<?xml version="1.0" encoding="utf-8"?>
<!-- Generator: Adobe Illustrator 19.2.0, SVG Export Plug-In . SVG Version: 6.00 Build 0)  -->
<svg version="1.1" id="Layer_1" xmlns="http://www.w3.org/2000/svg" xmlns:xlink="http://www.w3.org/1999/xlink" x="0px" y="0px"
	 viewBox="0 0 511.5 351.8" style="enable-background:new 0 0 511.5 351.8;" xml:space="preserve">
<style type="text/css">
	.st0{clip-path:url(#SVGID_3_);}
	.st1{clip-path:url(#SVGID_4_);}
	.st2{fill:url(#SVGID_5_);}
	.st3{fill:url(#SVGID_6_);}
	.st4{fill:#007575;}
	.st5{fill:#F9B217;}
	.st6{fill:#C29000;}
	.st7{fill:#CE2447;}
	.st8{fill:#ACDEEA;}
	.st9{fill:#9B1C2A;}
	.st10{fill:#2AB3BB;}
	.st11{fill:#C29102;}
	.st12{fill:#D7C5AE;}
	.st13{fill:#FDCD0B;}
	.st14{fill:#D28E55;}
	.st15{fill:#EE4358;}
	.st16{fill:#B91F5E;}
	.st17{fill:#F8E68E;}
	.st18{fill:#DFAA25;}
	.st19{fill:#F7E0B8;}
	.st20{fill:#EF5577;}
	.st21{fill:#ABABAB;}
	.st22{fill:#F5E7CA;}
	.st23{fill:#676267;}
	.st24{fill:#D2C8C8;}
	.st25{fill:#EE3C52;}
	.st26{fill:#14B9C6;}
	.st27{fill:#BBB433;}
	.st28{fill:#F7BAC9;}
	.st29{fill:#A3DCEC;}
	.st30{fill:#F5BC75;}
	.st31{fill:#DFBE85;}
	.st32{fill:#DCC198;}
	.st33{fill:#D1CDD1;}
	.st34{fill:none;}
	.st35{fill:none;stroke:#231F20;stroke-width:0.2208;stroke-miterlimit:10;}
	.st36{fill:#F8BDCD;}
	.st37{fill:#CB862A;}
	.st38{fill:#D31F3C;}
	.st39{fill:#019598;}
	.st40{fill:#EFF6E4;}
	.st41{fill:#5FC1C9;}
	.st42{fill:#FAD404;}
	.st43{fill:#EE3D52;}
	.st44{fill:#525453;}
	.st45{fill:#14576D;}
	.st46{fill:#BDA030;}
	.st47{fill:#414242;}
	.st48{fill:#0F4656;}
	.st49{fill:#888032;}
	.st50{fill:#157198;}
	.st51{fill:#BBB200;}
	.st52{fill:#928C34;}
	.st53{fill:#F38BA6;}
	.st54{fill:#B7E3F3;}
	.st55{fill:#40B8E9;}
	.st56{fill:none;stroke:#231F20;stroke-width:0.2166;stroke-miterlimit:10;}
	.st57{fill:#62C7D1;}
	.st58{fill:#54ABB5;}
	.st59{fill:#ACACAC;}
	.st60{fill:#9A9234;}
	.st61{fill:#D8AA29;}
	.st62{fill:#D92E5C;}
	.st63{fill:#5E5E5E;}
	.st64{fill:#5C5D5D;}
	.st65{fill:#7A712E;}
	.st66{fill:#B88B2D;}
	.st67{fill:#DFDBD5;}
	.st68{fill:#FCF6F0;}
	.st69{fill:#E2F2F5;}
	.st70{fill:#FFF7EF;}
	.st71{fill:#489299;}
	.st72{fill:#F7F5C3;}
	.st73{fill:#ED3E74;}
	.st74{fill:#DCAB27;}
	.st75{fill:#9C9534;}
	.st76{fill:#E0D560;}
	.st77{fill:#F8DD84;}
	.st78{fill:#F7BACB;}
	.st79{fill:#AADEE9;}
	.st80{fill:#E3ECEE;}
	.st81{fill:#B9B9BA;}
	.st82{fill:#D5D5D4;}
	.st83{fill:#9C1C2C;}
	.st84{fill:#C29C2E;}
	.st85{fill:#E39000;}
	.st86{fill:none;stroke:#231F20;stroke-width:0.2186;stroke-miterlimit:10;}
	.st87{fill:#DD6427;}
	.st88{fill:#F6E4A4;}
	.st89{fill:#E8C96A;}
	.st90{fill:#DD9727;}
	.st91{fill:#FFD163;}
	.st92{fill:#F8E8B6;}
	.st93{fill:#FD840B;}
	.st94{fill:#E95A7A;}
	.st95{fill:#F6B3C6;}
	.st96{fill:#DBD9D9;}
	.st97{fill:#F1E6B5;}
	.st98{fill:none;stroke:#231F20;stroke-width:0.2221;stroke-miterlimit:10;}
	.st99{fill:#BFA066;}
	.st100{fill:#E5C180;}
	.st101{fill:#783E2F;}
	.st102{fill:#D44B68;}
	.st103{fill:#AC6D49;}
	.st104{fill:#894A28;}
	.st105{fill:#573019;}
	.st106{fill:#087780;}
	.st107{fill:#D59529;}
	.st108{fill:#727989;}
	.st109{fill:#EEE7C9;}
	.st110{fill:#F7B15D;}
	.st111{fill:#64B8E2;}
	.st112{fill:#6F3D1B;}
</style>
<g id="Layer_5">
</g>
<g>
	<defs>
		<rect id="SVGID_1_" y="0" width="511.5" height="351.8"/>
	</defs>
	<defs>
		<rect id="SVGID_2_" y="0" width="511.5" height="351.8"/>
	</defs>
	<clipPath id="SVGID_3_">
		<use xlink:href="#SVGID_1_"  style="overflow:visible;"/>
	</clipPath>
	<clipPath id="SVGID_4_" class="st0">
		<use xlink:href="#SVGID_2_"  style="overflow:visible;"/>
	</clipPath>
	<g id="_3" class="st1">
		
			<linearGradient id="SVGID_5_" gradientUnits="userSpaceOnUse" x1="0" y1="617.9" x2="511.5" y2="617.9" gradientTransform="matrix(1 0 0 1 0 -442)">
			<stop  offset="1.270012e-03" style="stop-color:#4BFFDA"/>
			<stop  offset="0.1778" style="stop-color:#4BC7FD"/>
			<stop  offset="0.8682" style="stop-color:#9586FF"/>
			<stop  offset="1" style="stop-color:#9844FF"/>
		</linearGradient>
		<rect y="0" class="st2" width="511.5" height="351.8"/>
		
			<linearGradient id="SVGID_6_" gradientUnits="userSpaceOnUse" x1="0" y1="617.9" x2="511.5" y2="617.9" gradientTransform="matrix(1 0 0 1 0 -442)">
			<stop  offset="1.270012e-03" style="stop-color:#4BFFDA"/>
			<stop  offset="0.1778" style="stop-color:#4BC7FD"/>
			<stop  offset="0.6795" style="stop-color:#0086FF"/>
			<stop  offset="0.828" style="stop-color:#456DFF"/>
			<stop  offset="0.9427" style="stop-color:#735CFF"/>
			<stop  offset="1" style="stop-color:#8555FF"/>
		</linearGradient>
		<rect y="0" class="st3" width="511.5" height="351.8"/>
	</g>
	<g class="st1">
		<g>
			<path class="st4" d="M36,148.2c-1.4-2.1-3-4.3-5.6-4.6c-2.1-0.3-4.6,0.8-5.3,2.9c-0.1,0.4-0.2,0.7-0.2,1.1
				c-0.6,0.5-1.2,1.1-1.7,1.8c-1.5,2.1,1.9,4,3.4,2c0.1-0.1,0.2-0.1,0.3-0.1c0.1,0.1,0.2,0.2,0.4,0.3c-1.3,2.4,2.8,9,3.6,10.2
				c0.7,1.1,2.1,1.1,2.9,0.6c0,0.3,0,0.6,0,0.9c0,0.7,0.2,1.2,0.7,1.5c-0.1,0.6-0.4,1.4-0.6,2c-1.6,3.2-5.4,5.7-9.1,6.7
				c-2.5,0.6-1.4,4.3,1,3.8c6.4-1.1,13.8-2.9,16.8-9.4C45.7,160.5,39.7,153.7,36,148.2z"/>
			<path class="st4" d="M52.5,199.5c0.8-1.8,1-3.6,0.9-5.4c0-1-0.1-2.1-0.6-3.1c-2-6.1-8.6-10.6-16.2-7.6c-1.6,0.6-1.6,2.8-0.6,3.6
				c0,1.4,0.9,2.6,2.4,3.3c0.1,0.5,0.5,0.9,0.9,1.2c3.5,2.1,6.1,4.9,3.8,9.1c-0.1,0.1-0.1,0.2-0.2,0.4c-2,2-4.4,3.5-6.2,5.6
				c-0.9,0.9-0.6,2.3,0.2,2.9c-0.6,0.2-1.1,0.5-1.7,0.7c0-0.1-0.1-0.2-0.1-0.3c-0.6-2.4-4.4-1.4-3.8,1c0.3,1.5,1.1,2.6,2.2,3.5
				c0.6,0.9,1.6,1.4,2.8,1.6c5.1,0.9,9.9-4,12.4-7.9c1.2-1.9,2.1-3.9,2.6-6.1C51.7,201.3,52.2,200.4,52.5,199.5z"/>
			<path class="st4" d="M18.7,211.8c0.1-1.6-0.1-3.3-0.4-5.1c-0.2-1.4-0.6-2.9-1.1-4.3c0.1-0.9-0.3-2-1-2.8
				c-0.2-0.2-0.6-0.6-0.9-0.8c-1.4-1.7-3.1-2.9-5.5-2.6c-1.2-0.3-2.3-0.6-3.2-0.6c-3.2-0.4-6.4,0.6-8.5,3.1c-1.6,2,1.2,4.7,2.8,2.8
				c1.7-2.1,4.1-2.4,6.4-1.8c0.1,0.1,0.1,0.1,0.1,0.1c1.6,1.6,4,5.4,6.7,5.4c0.6,2.2,0.6,4.5,0.7,5.5c0,1.1-0.1,2.1-0.2,3.1
				c-0.1-0.7-0.1-1.4-0.3-2.1c-0.1-0.6-0.7-1.3-1.4-1.4c-5.3-0.9-5.9,9.2-3.4,13.9c-0.2,0.2-0.5,0.6-0.6,0.9
				c-0.5,1.8-0.5,3.1-0.1,4.9c0.2,1.2,1.9,1.9,2.9,1.2c0.1-0.1,0.3-0.2,0.4-0.3c0.1,0,0.1,0,0.1-0.1c4-2.2,7-5.7,8.4-10.1
				C21.7,217.9,21.9,213.7,18.7,211.8z"/>
			<path class="st5" d="M8.5,166.1c-0.1-0.3,7.6,12.7,8,12.9c1,0.7,5.2,0.1,9.8-2c3.4-1.5,10.2-6.9,10.6-8.9
				c0.3-1.4-7.7-14.9-7.8-14.7C28.9,153.6,8.6,166.4,8.5,166.1z"/>
			<path class="st6" d="M27.1,156.8l-2-0.9c-6,3.8-16.6,10.3-16.7,10.1c-0.1-0.3,7.6,12.7,8,12.9c0.9,0.6,4.3,0.2,8.2-1.4
				c-1.1-1.4-4.9-6.8-5.1-7c-0.1-0.3-3.6-3.6-1.1-6C21.1,162.4,26.8,157.2,27.1,156.8z"/>
			<path class="st7" d="M21.7,193c0.2-0.2-6.8,13.1-6.8,13.6c-0.1,1.3,2.6,4.4,6.8,7.4c3.1,2.1,11.2,5.1,13.1,4.4
				c1.4-0.5,8.6-14.4,8.4-14.4C43.2,203.8,21.5,193.2,21.7,193z"/>
			<path class="st8" d="M-12.5,217.5c0.1-0.3,1.4,15.9,1.6,16.3c0.6,1.2,4.9,2.4,10.1,2.4c3.9,0.1,12.9-2.1,14.3-3.9
				c0.9-1.3-2-20-2-20C11.3,212.5-12.6,217.9-12.5,217.5z"/>
			<path class="st9" d="M41.2,202.8c-5.5-2.6-19.7-9.7-19.5-9.9c0.2-0.2-6.8,13.1-6.8,13.6c-0.1,0.9,1.3,2.7,3.4,4.6
				c1.2-2.9,3.4-8.9,5.2-9.1c2.4-0.3,8.4,0.9,10.8,1.2C36,203.5,39.2,203.2,41.2,202.8z"/>
			<path class="st10" d="M10.9,212.6c-3.9,0.9-23.4,5.3-23.3,4.9c0.1-0.3,1.4,15.9,1.6,16.3c0.6,1,3.7,2.1,7.8,2.4
				c-0.3-2.6-0.8-9,0.1-11.4c1.1-3.1,6.1-3.5,14.2-8.8L10.9,212.6z"/>
			<path class="st8" d="M-17,203.3c0,0,1.1,13.7,1.4,14.3c0.2,0.6,8.7,1.1,17.5,0.6c8.6-0.5,14.1-2.2,14.7-2.9
				c0.6-0.6-0.6-13.7-0.9-14.3c-1.1-1.8-10.9-2.8-16.9-2.5C-8,198.7-16.1,200.5-17,203.3z"/>
			<path class="st10" d="M-17,203.3c0,0-0.8,3.2,14.8,3c10.6-0.1,15.5-2,17.4-3.9c0.9-0.9,0.2-1.4,0.1-1.6
				c-0.2-0.7-6.1-2.4-14.3-2.4c-6.4,0-8.2,0.7-10.1,1C-11,199.7-16.8,201.3-17,203.3z"/>
			<path class="st7" d="M24.7,181.4c0,0-4.9,10.8-4.9,11.3c-0.1,0.5,6.1,4.6,12.9,8c6.8,3.4,11.6,4.5,12.3,4.3s5.2-10.6,5.2-11.2
				c-0.1-1.9-7.1-6.9-11.6-9.3C33.4,182,26.5,179.7,24.7,181.4z"/>
			<path class="st9" d="M24.7,181.4c0,0-1.4,2.1,10.4,8.6c8,4.5,12.4,5.3,14.4,4.6c1-0.3,0.6-0.9,0.7-1.1c0.1-0.6-3.6-4.4-9.9-7.9
				c-4.8-2.9-6.4-3.1-7.9-3.6C30.9,181.5,25.6,180.1,24.7,181.4z"/>
			<path class="st5" d="M0.7,156.9c0,0,6.1,10.1,6.6,10.4c0.4,0.3,7.2-2.5,13.9-6.1c6.6-3.7,10.2-7,10.4-7.7
				c0.1-0.7-5.9-10.2-6.3-10.6c-1.6-1-9.7,2.1-14.3,4.5C6.1,149.9,0.4,154.4,0.7,156.9z"/>
			<path class="st11" d="M0.7,156.9c0,0,2,2.3,13.1-3.4c8.2-4.1,11.1-7.5,11.6-9.5c0.3-1-0.4-1-0.6-1.2c-0.5-0.4-5.7,0.4-12.1,3.7
				c-6.4,3.3-6,3.6-7.4,4.5C4.1,151.9,0.3,155,0.7,156.9z"/>
		</g>
		<g>
			<g>
				<path class="st12" d="M-72.4-287.4c0.9,0,0.9-1.3,0-1.3S-73.3-287.4-72.4-287.4L-72.4-287.4z"/>
			</g>
		</g>
		<g>
			<polygon class="st13" points="299.5,317.9 304.8,319.8 307.1,318.4 306.1,316.8 			"/>
			<g>
				<g>
					<path class="st14" d="M506.8,277.3c-0.8-4.6-5.7-8.1-5.7-8.3l0.3-0.6c0.2,0.2,5.1,3.8,5.9,8.6L506.8,277.3z"/>
				</g>
				<g>
					<path class="st14" d="M515.4,275.1c0-0.1-1.8-6-5.1-7.1l0.2-0.6c3.6,1.2,5.4,7.4,5.4,7.6L515.4,275.1z"/>
				</g>
				<g>
					<path class="st14" d="M520.7,274.6c0-0.1-0.9-4.9-3.2-6l0.2-0.6c2.6,1.4,3.5,6.2,3.5,6.4L520.7,274.6z"/>
				</g>
				<g>
					<g>
						<path class="st4" d="M461.5,285c13.9-3.6,28.7,1.5,43.1,1"/>
					</g>
					<path class="st4" d="M380.7,325.6c-2.9-0.5-5.5-0.5-8.4-0.1c-2.3-0.3-4.9,0.2-7.4,0.3c-6.3,0.5-12.8-0.2-19.1-0.8
						c-8.8-0.8-17.7-1.7-26.6-2.5c0-1-0.6-2-1.6-2.2c-1.4-0.2-2.6-0.3-3.9-0.3c-0.5-0.6-1.2-1-2.3-0.9c-1.2,0.2-2.4,0.6-3.6,0.8
						c-0.9,0.2-1.4,0.8-1.5,1.6c-0.2,0.1-0.2,0.1-0.5,0.2c-2.2,1-0.8,4,1.1,4.2c0.1,0,0.2,0,0.3,0c0.2,0.1,0.2,0.2,0.5,0.2
						c1,0.3,2,0.5,3,0.6c3.7,2.1,7.7,2.4,11.9,2.7c5.8,0.5,11.5,0.7,17.3,0.9c4.8,0.2,9.5,0.2,14.3,0.2c2.2,0.2,4.4,0.3,6.6,0.6
						c2.2,0.2,4.2,0.3,6.2,0.5c5,2.5,10.6,1.6,14.7-2.4C382.7,328.3,382.4,326,380.7,325.6z"/>
					<path class="st4" d="M356.3,339.2c-2.8-2.6-6.4-0.7-9.5,0.6c-4.6,1.9-8.7,4.6-12.7,7.8l0,0c-1.4,0.3-2.6,0.6-4.1,0.9
						c-2.1,0.5-1.9,3-0.6,4c-0.2,0.1-0.3,0.2-0.6,0.2c-2.6,1-1.5,5.2,1.1,4.2c3.8-1.4,7.2-3.1,10.4-5.4c0.6-0.3,0.8-0.9,1-1.5
						c4.6-1.4,9-3.4,13.1-6.2c0.5-0.2,0.7-0.6,0.8-1c0.1-0.1,0.2-0.1,0.2-0.2C357,341.8,357.5,340.1,356.3,339.2z"/>
					<path class="st4" d="M516.9,357.7c-1.4-2.8-3.4-5.5-5.4-8.3c0.6-0.8,0.6-1.9-0.2-2.7c-10.1-10.8-16.6-25.3-28.5-34.2
						c-0.2-0.3-0.6-0.8-0.9-1.1c-2.7-3.4-7.5-11.3-12.7-13.5c0,0,0,0-0.1-0.1c-0.7-0.8-1.6-0.9-2.3-0.6c-1-0.1-2,0.1-3,0.6
						c-0.8-0.2-1.7-0.2-2.6-0.1c-2.8,0.2-2.8,4.8,0,4.4c0.2,0,0.3,0,0.6,0c0.6,0.6,1.6,0.9,2.5,0.6c1.8,0.9,3.4,2.7,4.6,4.3
						c0.3,0.5,0.7,0.8,1,1.1c-0.2,0.6-0.2,1.2,0.2,1.8c4.3,6.2,9,12.1,14,17.6c2.9,3.8,5.8,7.5,8.8,11.2c0.6,0.8,1,1.7,1.6,2.5
						c0,0.1,0.1,0.1,0.1,0.2c0.1,0.2,0.2,0.2,0.2,0.3c0.5,0.6,0.9,1.4,1.4,1.9c0.5,0.7,1.1,1,1.8,1c0.6,0.7,1.1,1.4,1.8,2.1
						c0.7,1,1.5,2.2,2.3,3.3c0.6,1.1,1.4,2.1,2.3,2.9c1.1,1.4,2.4,2.8,3.7,4.2c1,1,2.5,0.7,3.2-0.2c0.3,0.5,0.7,0.8,1,1
						c-1,1.1-1,2.8,0.3,3.9c0.8,0.6,1.8,0.9,2.6,0.3C517.2,361.5,517.7,359.8,516.9,357.7z"/>
					<path class="st4" d="M549.5,352.5c-7.5-10.6-14.8-21.5-23-31.6c-3.8-4.6-7.8-9.2-12.6-13.1c-1.1-0.9-2.3-1.8-3.5-2.7
						c1.2-0.6,1.9-2.2,0.7-3.4c-0.1-0.1-0.2-0.2-0.3-0.2c1.2-0.6,1.6-2.6,0.7-3.7c-0.6-0.8-1.4-1.5-2-2.2c0.3-0.6,0.5-1.5,0-2.2
						c-1.7-2.6-3.7-4.6-6.2-6.1c0.2,0,0.6-0.1,0.8-0.1c2.8-0.2,2.9-4.4,0-4.4c-2.3,0-4.6,0.1-6.9,0.2c-0.2-0.2-0.6-0.5-0.9-0.6
						c-1-0.7-2.4-0.2-3,0.8c-2.1,0.1-4.2,0.2-6.2,0.2c-7.8,0.2-15.5,0.8-23.3,1.7c-0.8,0.1-1.4,0.5-1.7,1c-5,0.3-10.1,0.7-15.1,1
						c-2.8,0.2-2.8,4.6,0,4.4c11.1-0.8,22.1-1.6,33.1-2.3c0.1,0.2,0.2,0.2,0.2,0.5c5.8,6.7,13.3,11.5,21.6,14.3
						c1.4,1.4,2.8,2.6,4.4,3.8c5.1,4,9.8,8.1,14,13c9.3,10.7,17.1,22.7,25.2,34.2C547.3,357,551.1,354.8,549.5,352.5z M494.4,288.1
						L494.4,288.1c0.3,0.6,0.6,1,1,1.5c-0.7-0.5-1.5-0.9-2.3-1.4C493.6,288.2,494,288.2,494.4,288.1z"/>
					<path class="st4" d="M559.4,334.6c-3.4-5.1-6.6-10.3-9.6-15.6c-1.6-3.2-3-6.3-4.4-9.5c-2-4.6-3.9-9.7-7-13.7
						c-1.8-4.1-3.4-8.1-4.9-12.3c-1-2.9-2.8-6.1-6.2-4.3c-2.2,1-0.8,4.2,1.4,4.1c1.4,1.7,2.4,6,3,7.5c0.1,0.1,0.1,0.2,0.2,0.3
						c-1.2,0.2-2.2,1.4-1.7,2.6c0.6,1.4,1,2.8,1.7,4.2c-1.4,0.2-2.3,1.6-1.4,3.2c7.2,13.7,15.2,26.9,24,39.7
						c1.1,1.7,4.2,1.2,4.2-1.1c0-0.6,0-1.2,0-1.8C559.3,337.3,560.3,335.9,559.4,334.6z"/>
					<polygon class="st15" points="558.4,273 453.8,277.2 452.4,279.4 455.5,281.6 558.4,277.3 					"/>
					<polygon class="st16" points="454.9,285.2 558.4,281.6 558.4,277.3 455.5,281.6 453,283 					"/>
					<polygon class="st17" points="316.8,314.1 314.2,317.2 380.2,322.8 376.8,319.2 					"/>
					<polygon class="st13" points="314.2,320.6 380.2,326.3 380.2,322.8 314.2,317.2 					"/>
					<polygon class="st18" points="377.5,329.4 315.9,323.7 314.2,320.6 380.2,326.3 					"/>
					<polygon class="st19" points="316.8,314.1 306.1,316.8 307.1,318.4 304.8,319.8 315.9,323.7 314.2,320.6 314.2,317.2 					"/>
					<path class="st20" d="M305.8,351.5c0.3-0.5,22.5-7.6,22.5-7.6s0.2,0,0.6,0c1,0,3,0.5,3.8,3.4c0.6,2.4,0,3.1,0,3.1l-2.6,1.1
						L305.8,351.5L305.8,351.5z"/>
					<path class="st21" d="M341.2,339.1l-12.9,4.8c0,0,4.6,0.1,4.4,5.5c0,1-0.1,1-0.1,1l12-5.2c0,0,0.1-0.2,0.2-0.5
						C345.2,343.4,346.1,339.3,341.2,339.1z"/>
					<path class="st22" d="M350.9,341.2c1-0.7-0.6-5-2.8-4.2c-3.8,1.2-5.8,1.9-5.9,2c0,0,4,0.8,2.7,5c-0.2,1,0,0,0,0
						S349,342.5,350.9,341.2z"/>
					<path class="st23" d="M339.4,342.8c-0.3-0.8-1.2-1.6-2.1-2.2l-3.9,1.4c0.6,0.2,1,0.7,1.6,1.4c1.8,1.8,1.6,4.8,1.6,5.3l3.4-1.5
						C340.2,345.9,340.1,344.4,339.4,342.8z"/>
					<path class="st24" d="M356.1,351.5c0,0,102.7-57.2,103.6-56.6c0.9,0.6,47.4,56.6,47.4,56.6H358.9H356.1z"/>
					<path class="st24" d="M360.3,351.5c0,0,98.3-54.9,99.1-54.3c0.7,0.6,45.7,54.3,45.7,54.3H360.3z"/>
					<polygon class="st5" points="493.1,347.7 457.3,303.9 440.4,314.1 475,358.7 					"/>
					<polygon class="st25" points="467.3,361.7 431.4,317.8 414.6,328.1 449.2,372.7 					"/>
					<polygon class="st26" points="440.9,377.2 405,333.3 388.2,343.6 422.8,388.2 					"/>
					<polygon class="st27" points="416.2,390.1 380.2,346.3 363.5,356.6 398.1,401.2 					"/>
					<g>
						<path class="st17" d="M475.8,350.6c-0.3,0-0.8-0.2-1-0.6l-26.5-33.6c-0.5-0.6-0.3-1.4,0.2-1.8c0.6-0.5,1.4-0.3,1.8,0.2
							l26.5,33.6c0.5,0.6,0.3,1.4-0.2,1.8C476.3,350.5,476.1,350.6,475.8,350.6z"/>
					</g>
					<g>
						<path class="st17" d="M482.4,346c-0.3,0-0.8-0.2-1-0.6l-26.5-33.6c-0.5-0.6-0.3-1.4,0.2-1.8c0.6-0.5,1.4-0.3,1.8,0.2
							l26.5,33.6c0.5,0.6,0.3,1.4-0.2,1.8C483,345.9,482.7,346,482.4,346z"/>
					</g>
					<g>
						<path class="st28" d="M455.8,360c-0.3,0-0.8-0.2-1-0.6l-26.5-33.6c-0.5-0.6-0.3-1.4,0.2-1.8c0.6-0.5,1.4-0.3,1.8,0.2
							l26.5,33.6c0.5,0.6,0.3,1.4-0.2,1.8C456.5,359.9,456.1,360,455.8,360z"/>
					</g>
					<g>
						<path class="st28" d="M448.8,364.4c-0.3,0-0.8-0.2-1-0.6l-26.5-33.6c-0.5-0.6-0.3-1.4,0.2-1.8c0.6-0.5,1.4-0.3,1.8,0.2
							l26.5,33.6c0.5,0.6,0.3,1.4-0.2,1.8C449.4,364.3,449.1,364.4,448.8,364.4z"/>
					</g>
					<g>
						<path class="st29" d="M430,374.8c-0.3,0-0.8-0.2-1-0.6l-26.5-33.6c-0.5-0.6-0.3-1.4,0.2-1.8c0.6-0.5,1.4-0.3,1.8,0.2
							l26.5,33.6c0.5,0.6,0.3,1.4-0.2,1.8C430.7,374.7,430.4,374.8,430,374.8z"/>
					</g>
					<g>
						<path class="st29" d="M423.1,379.5c-0.3,0-0.8-0.2-1-0.6l-26.5-33.6c-0.5-0.6-0.3-1.4,0.2-1.8c0.6-0.5,1.4-0.3,1.8,0.2
							l26.5,33.6c0.5,0.6,0.3,1.4-0.2,1.8C423.7,379.4,423.4,379.5,423.1,379.5z"/>
					</g>
					<path class="st30" d="M558.4,340.8c0,0-22.2-31.2-23.6-35.8c-1.5-4.5-5.1-22.4-6.7-26.9c-1.6-4.5-4.1-9.5-6.3-10.4
						c-3.2-1.2-4.2,0.9-4.2,0.9s-1.9-2.1-4.9-1.7c-2.3,0.5-2.2,0.6-2.2,0.6s-2.6-1.9-5.8-0.8c-2.4,0.9-3.2,2-3.2,2s-2.3-1.8-5.4-0.9
						c-3.1,1-6.8,2.9-7.5,6c-0.7,3.1-0.2,2.5-0.2,2.5c-3.4,0,3.6-0.2,6.1-0.2c1.2,0,7,5.8,7.9,10.2c1,4.4,1.8,6.1,0.1,6.3
						c-1.8,0.2-7.5-0.9-10.1-4.3c-2.6-3.4-6.7-1.5-6.7-1.5s4.3,8.1,11.5,12.6c7.1,4.4,10.8,1.9,15.8,8.8c5,6.9,21.3,40.6,21.6,42
						c0.3,1.4,0.3,1.4,0.3,1.4h23.6v-10.6L558.4,340.8L558.4,340.8z"/>
					<g>
						<path class="st14" d="M488.3,276.3C488.2,276.3,488.2,276.3,488.3,276.3C488.2,276.5,488.3,276.3,488.3,276.3z"/>
						<path class="st14" d="M509.1,293.8c-3-6.2-4.1-10.1-9.8-16.6c-3.8-4.3-8.7-2.5-11.1-1c0,0.1,0,0.1,0,0.2
							c1.5-0.1,4.6-0.2,6.2-0.2c1.2,0,7,5.8,7.9,10.2c1,4.4,1.8,6.1,0.1,6.3c-1.8,0.2-7.5-0.9-10.1-4.3c-2.6-3.4-6.7-1.5-6.7-1.5
							s4.3,8.1,11.5,12.6c7.1,4.4,10.8,1.9,15.8,8.8c5,6.9,21.3,40.6,21.6,42s0.3,1.4,0.3,1.4h7.6c0,0-9.7-19.6-15.8-30.8
							C520.5,309.6,513,302.2,509.1,293.8z"/>
						<path class="st14" d="M487.7,276.3c0.1,0,0.2,0,0.5,0c0,0,0,0,0-0.1c-0.1,0-0.2,0-0.3,0C487.8,276.3,487.7,276.3,487.7,276.3z
							"/>
					</g>
					<path class="st22" d="M439.6,281.6l14.3-4.4l-1.4,2.2l3.1,2.2l-2.5,1.4l1.8,2.2l-16-1.8C438.8,283.4,442.3,282.3,439.6,281.6z"
						/>
					<path class="st15" d="M442.2,281.3c0,0-11.1,1-9.8,1.6c1.4,0.7,12.7,1,12.7,1L442.2,281.3z"/>
					<polygon class="st31" points="314.2,320.6 315.9,323.7 304.8,319.8 307.1,318.4 					"/>
					<path class="st32" d="M345.1,342.1l5.9-2.7c0,0,0.2,0.3,0.2,1c-0.1,0.6-0.6,1-0.6,1l-5.7,2.6
						C344.9,344.2,345.1,342.9,345.1,342.1z"/>
					
						<ellipse transform="matrix(0.7728 -0.6347 0.6347 0.7728 -139.7344 293.2508)" class="st33" cx="339.7" cy="341.8" rx="0.7" ry="1.8"/>
					
						<ellipse transform="matrix(0.7728 -0.6347 0.6347 0.7728 -142.321 290.1487)" class="st33" cx="334.1" cy="343.8" rx="0.7" ry="1.8"/>
					<line class="st34" x1="335.2" y1="341.3" x2="335.2" y2="341.3"/>
					<path class="st35" d="M335.8,341.1"/>
					
						<ellipse transform="matrix(0.9373 -0.3485 0.3485 0.9373 -101.3552 133.841)" class="st36" cx="321.3" cy="348.6" rx="8.7" ry="0.9"/>
					<polygon class="st37" points="440.4,314.1 440.4,317.8 470.6,358 472.9,355.8 					"/>
					<polygon class="st38" points="414.6,328.1 414.6,331.7 444.8,371.9 447,369.9 					"/>
					<polygon class="st39" points="388.2,343.5 388.2,347.3 418.4,387.5 420.6,385.4 					"/>
				</g>
			</g>
		</g>
		<g>
			<path class="st4" d="M128.3,49.9c-6.8,0.5-13.4-2.4-19.8-4c-4.2-1-8.3-1.7-12.5-2.4c1.6-0.9,2.8-2.1,3.2-3.4
				c1.1-3.3-2.5-6.1-4-8.5c-0.1-0.2-0.4-0.6-0.5-0.9c-0.9-2.7-2.3-5-3.2-7.7c-1-2.4-1.5-5-2-7.6c-0.1-2.2,0-4.4-0.9-6.2
				c-1.1-2.2-4.2-0.6-4.1,1.6c0,0.3,0.1,0.6,0,0.9c-1.1,4.7,2,12.7,3.6,16.4c0.7,1.7,1.6,3.2,2.5,4.8c0,0.1,0.1,0.2,0.1,0.3
				c-1.4-0.2-2.8,0.6-2.5,2.4c-0.2-1-1.8,1.3-2,1.8c0,0.2-0.1,0.3-0.2,0.6c-2-0.3-4.8-1.4-5.7-1.6c-2.9-0.7-6-1.6-9-1.9
				c-2.2-0.4-4.3-0.6-6.4-0.4c0.3-0.5,0.7-0.9,1.1-1.4c1.8-2.4-1.6-5.5-3.3-3l-0.1,0.2c-8.4-5-18-5.9-27.5-3.3
				c-2.8,0.7-1.2,5.2,1.5,4.4c8.5-2.4,17-1,24.5,3.4c-1.3,0.1-2.6,0.5-3.9,0.9c-2.8,0.8-1.3,5.3,1.5,4.4c8-2.3,15.7,0.6,23.4,2.2
				c1,0.2,2.5,0.6,4.2,0.8c0,0.3,0.1,0.5,0.1,0.8c-0.9,1.2-0.3,3.4,1.2,3.7c0.9,2.6,2,5.1,3.1,7.3c3.6,8.4,8.1,16.2,13.4,23.6
				c1.7,2.4,5.4-0.4,3.7-2.7c-4.9-6.7-9.1-14-12.5-21.7c-0.8-1.8-1.7-3.8-2.5-5.8c5.7,0.8,11.2,1.8,16.8,3.2
				c6.5,1.7,12.7,4.1,19.5,3.6C131.6,54.3,131.2,49.7,128.3,49.9z M92.7,39.7c-0.4,0.3-0.9,0.6-1.3,0.9c0.1-0.3,0.1-0.7,0.1-1.1
				c0-0.3-0.1-0.6-0.2-0.8c0.3-0.3,0.6-0.6,0.9-0.9c0.2-0.7,0.4-1,0.4-1.6C94.1,38.3,94.9,38.1,92.7,39.7z"/>
			<path class="st4" d="M49.9,3.4c-1.1-1.5-2.1-3-3.2-4.5c-1.3-1.7-4.5-0.8-4.1,1.6C42.9,1.8,43,3,43,4.1c-7.9,3-15.8,6-23.6,9.2
				c-0.5-1.6-1.2-3.3-1.3-4.5c0.6-0.7,0.8-1.6,0.4-2.4c-0.4-1.1-0.9-1.6-2.1-1.9c-1-0.2-2,0.4-2.4,1.3c-1.5,3.1,1.2,8.4,2,11.3
				c0.4,1.2,1.7,1.8,2.8,1.4c2.6-1,5.1-2.1,7.7-3.1c0.4,0.3,0.8,0.4,1.5,0.3c6.1-1.4,12-2.9,17.8-5.2c0.7-0.2,1.3-1,1.4-1.8
				c0.1-0.5,0.1-0.9,0.1-1.3c0.5-0.2,0.9-0.4,1.3-0.6C50.2,6.5,50.8,4.6,49.9,3.4z"/>
			<path class="st4" d="M75.1,64.5c-2.5-3.3-7.2-5.5-10.6-7.8c-1.6-1.2-3.2-2.3-4.9-3.5c-2.1-2.4-4.8-4.1-7.6-5.7
				c-5.5-3.2-11.1-6.5-16.6-9.6c-11-6.5-22.1-12.8-33.2-19.3c-2.5-1.5-4.5,2.9-1.9,4.3c10.1,5.8,20.1,11.7,30.2,17.5
				c4.8,2.8,9.5,5.5,14.3,8.3c0.8,0.4,1.6,0.9,2.4,1.4c0.1,0.1,0.1,0.2,0.3,0.2c3.7,3.1,7.4,6.1,11,9.2c0.8,0.7,1.7,0.6,2.4,0.3
				c1.6,1.2,3.2,2.3,4.9,3.5c4,2.8,7,4.2,6.2,9.9c-0.6,3.6-1.8,7.2-3.3,10.5c-3.1,6.6-7.8,12.3-12.7,17.5
				C51.5,105.9,44,116.6,37,112c-2.4-1.6-4.4,2.8-1.9,4.3c7,4.5,13.7-1.3,18.7-6.4C60.6,103,67.4,95.8,71.9,87
				C74.8,81.5,79.5,70.2,75.1,64.5z"/>
			<path class="st40" d="M0.5,20.6c0,0,71.3,43.3,73.1,51.2c1.9,8.3-26.4,48.1-32,47.8c-8.8-0.7-52.9-32-52.9-32L0.5,20.6z"/>
			<path class="st41" d="M15.7,1.3c0,0,3,14,4.8,14.8c1.5,0.5,23.1-6.8,23.2-7.4c0-0.5-2.6-9.8-4.1-13.4c-0.4-0.9-0.7-1.4-0.9-1.4
				C37.4-6.1,15.1-0.4,15.7,1.3z"/>
			<path class="st40" d="M43.4-6c0.2,0.7,3.9,10.2,3.7,11.4c-0.1,0.8-3.7,2-3.7,2L39.2-5.3C39.3-5.2,43.1-6.9,43.4-6z"/>
			
				<ellipse transform="matrix(0.1729 -0.9849 0.9849 0.1729 -34.4683 40.5913)" class="st42" cx="6.9" cy="40.8" rx="9.2" ry="8.7"/>
			
				<ellipse transform="matrix(0.1729 -0.9849 0.9849 0.1729 -31.6829 76.0106)" class="st43" cx="29.4" cy="56.9" rx="9.2" ry="8.7"/>
			
				<ellipse transform="matrix(0.1729 -0.9849 0.9849 0.1729 -27.1175 112.0828)" class="st8" cx="53.2" cy="72.2" rx="9.2" ry="8.7"/>
			
				<ellipse transform="matrix(0.1729 -0.9849 0.9849 0.1729 -67.9963 119.6352)" class="st44" cx="37.2" cy="100.3" rx="9.2" ry="8.7"/>
			<path class="st45" d="M8.2,84c2-4.6,7.2-6.7,11.5-4.7c4.3,2,6.2,7.4,4.2,12.1s-7.2,6.7-11.5,4.7C8.1,94,6.2,88.6,8.2,84z"/>
			
				<ellipse transform="matrix(0.1729 -0.9849 0.9849 0.1729 -76.5765 55.7086)" class="st27" cx="-5.1" cy="73.4" rx="9.2" ry="8.7"/>
			<path class="st12" d="M-4.7,50.1l55.3,36.2c0,0,1.4,2.2-0.1,3.7c-1.5,1.6-3,0.5-3,0.5C44.1,89.9-5.7,56.1-5.7,56.1L-4.7,50.1
				L-4.7,50.1z"/>
			<path class="st12" d="M72.4,70c0,0-0.8,4.7-5.3,13.4c-3.2,6-7.2,11.8-10.6,16.3c-9.6,12.9-13.5,16.7-17.9,15.9
				c-7.7-1.3-49.4-31-49.4-31l-1,4.6c0,0,41,26.7,45.4,29.3c2.2,1.3,7.1,1.4,8.5,0.9c1.3-0.6,5.6,0.6,26.4-32.3
				C73.4,79.3,75.4,71.8,72.4,70z"/>
			<path class="st46" d="M1.7,33.6c0,0-3.7,3.7-2,8.4c1.4,4,4.9,5.7,8.4,5.6c4.3-0.1,6.5-3.1,6.8-3.6c0.3-0.5-0.3,1.8-1.7,3.2
				c-1.5,1.6-3.6,3.1-6.8,2.8c-2.8-0.2-4.7-1.4-6.3-3.5c-1.9-2.4-1.9-5.7-1.3-8C-0.5,35.8,0.2,34.9,1.7,33.6z"/>
			<path class="st9" d="M24.4,49.5c0,0-3.7,3.7-2,8.4c1.4,4,4.9,5.7,8.4,5.6c4.3-0.1,6.5-3.1,6.8-3.6c0.3-0.5-0.3,1.8-1.7,3.2
				c-1.5,1.6-3.6,3.1-6.8,2.8c-2.8-0.2-4.7-1.4-6.3-3.5c-1.9-2.4-1.9-5.7-1.3-8C22.1,51.8,22.8,50.8,24.4,49.5z"/>
			<path class="st10" d="M48.1,65c0,0-3.7,3.7-2,8.4c1.4,4,4.9,5.7,8.4,5.6c4.3-0.1,6.5-3.1,6.8-3.6c0.3-0.5-0.3,1.8-1.7,3.2
				c-1.5,1.6-3.6,3.1-6.8,2.8c-2.8-0.2-4.7-1.4-6.3-3.5c-1.9-2.4-1.9-5.7-1.3-8C45.8,67.1,46.5,66.2,48.1,65z"/>
			<path class="st47" d="M32.2,93.1c0,0-3.7,3.7-2,8.4c1.4,4,4.9,5.7,8.4,5.6c4.3-0.1,6.5-3.1,6.8-3.6c0.3-0.5-0.3,1.8-1.7,3.2
				c-1.5,1.6-3.6,3.1-6.8,2.8c-2.8-0.2-4.7-1.4-6.3-3.5c-1.9-2.4-1.9-5.7-1.3-8C29.9,95.3,30.6,94.4,32.2,93.1z"/>
			<path class="st48" d="M10.7,80.5c0,0-3.7,3.7-2,8.4c1.4,4,4.9,5.7,8.4,5.6c4.3-0.1,6.5-3.1,6.8-3.6c0.3-0.5-0.3,1.8-1.7,3.2
				c-1.5,1.6-3.6,3.1-6.8,2.8c-2.8-0.2-4.7-1.4-6.3-3.5c-1.9-2.4-1.9-5.7-1.3-8C8.5,82.6,9.3,81.7,10.7,80.5z"/>
			<path class="st49" d="M-10.3,66.3c0,0-3.7,3.7-2.1,8.3c1.4,4,4.9,5.7,8.2,5.7c4.3,0,6.5-3.1,6.9-3.6c0.3-0.5-0.4,1.8-1.7,3.2
				c-1.5,1.6-3.6,3.1-6.8,2.8c-2.8-0.2-4.7-1.4-6.3-3.6c-1.9-2.4-1.9-5.7-1.2-8C-12.6,68.5-12,67.5-10.3,66.3z"/>
			<path class="st50" d="M18.5,12c0.3,0.8,24.3-6.4,24-7.6c-0.1-0.4,1.7,3.9,1.2,4.2c-0.7,0.7-21.1,8.1-23.2,7.5
				C19.3,15.7,18.5,12,18.5,12z"/>
			<path class="st12" d="M42.3,4c0,0,4.3-1.7,4.2-2c-0.1-0.3,1.1,2.9,0.9,3.7c-0.1,0.3-1.2,1-1.4,1.1c-0.1,0.1-0.9,0.5-1.2,0.6
				c-0.3,0.1-1,0.4-1,0.4S42.4,4.6,42.3,4z"/>
			<path class="st7" d="M132,52.8c-0.4-1-2.2-2.5-5.2-4.6c-3-2-14.5-7.2-25.3-11.8S57.3,20.7,54.9,20.9c-2.4,0.3,0.5,1.6-2.3,1.2
				s-3.1,0.9-3.8,0.8c-0.7-0.1-4.8-1-9.5-1.7c-4.7-0.6-7.1,2.8-7.4,3.1c-2.9,4.4-1.7,8.9,1.3,11.7c2.2,2.2,7.3,5.7,18.7,7.7
				c5.3,0.9,7.6-2.1,8.7-4.8c1.3-3.4,2.2-2.7,5.1-2.9c2.9-0.3,36.1,9,38.2,9.6c2.1,0.5,1,1.1,3.6,1.2c2.6-0.1,1.5,1.1,3.7,0.6
				s1.4,1.8,3.3,1.5c1.9-0.3,0.9-0.2,2.6,1.2c0.7,0.5,1.6-0.8,3.4,0.5c1.7,1.3,1.4,2.3,2.2,1.3c1.7-2,1.1,0.3,1.4,1.1
				c0.2,0.6,1.9,0.7,2.6,0.3c1-1,1.5,0.8,3,1.4S132.3,54.1,132,52.8z M56.2,36.6c-1.1,3.2-6.8,4.1-12.6,1.9s-9.8-6.5-8.7-9.7
				c1.1-3.2,6.8-4.1,12.6-1.9C53.5,29.1,57.4,33.4,56.2,36.6z"/>
			<path class="st51" d="M92.8,45.6c1.1-1.9,2.8-1.5,2.3-3.3C94.6,40.6,86,16,85.7,14.4c-0.2-2-1.5-5.2,0.9-5.2
				c2.4,0.1,4.8,1,6.6-1.4s2.4-7.6,1.6-9c-0.3-0.4-2.7-1.1-6-1.7c2.2,2.2,3,4.6,2.2,6.4c-1.4,2.5-6,2.6-10.5,0.1
				c-4.2-2.4-6.7-6.1-6-8.6c-2-0.3-3.4-0.5-3.4-0.5S71.8,13,78,33c6.1,19.8,17.6,40.4,20.5,43.9c2.9,3.6,6.8,5.5,6.8,5.5
				S91.8,47.6,92.8,45.6z"/>
			<path class="st7" d="M82.4,34.4c0.8-1.9,3.6-2.6,6.2-1.4c2.6,1.2,3.9,3.8,3.1,5.7c-0.8,1.9-3.6,2.6-6.2,1.4
				C83,38.9,81.6,36.4,82.4,34.4z"/>
			<path class="st52" d="M78,33c6.1,19.8,17.6,40.4,20.5,43.9c2.9,3.6,6.8,5.5,6.8,5.5s-0.1-0.1-0.1-0.2c-2.9-3.2-6.5-8.1-10.7-15.8
				C78.3,36.3,73.9,3.5,73.1-5c-1.1-0.1-1.8-0.2-1.8-0.2S71.8,13,78,33z"/>
			<g>
				<path class="st9" d="M79.2,36.6c-7.1-1.5-13.6-2.7-16.3-2.9c-6-0.2-4.4,5.7-6.5,7.3c-4,3-9.5,0.3-16.2-2.2
					c-7.5-2.9-9.5-7.8-9.7-11.9c-1.2,3.5,0.2,6.9,2.5,9.1c2.2,2.2,7.3,5.7,18.7,7.7c5.3,0.9,7.6-2.1,8.7-4.8
					c1.3-3.4,2.2-2.7,5.1-2.9c1.2-0.1,7.4,1.4,14.5,3.2L79.2,36.6z"/>
				<path class="st9" d="M130.7,53.2c-1.4-0.2-3.9-1.6-10-4.4c-6.2-2.8-15.7-4.3-20.3-6.5c-1-0.4-3.1-1.2-5.9-2l0.7,2.8
					c4.7,1.3,7.9,2.3,8.6,2.5c2.2,0.6,1,1.1,3.6,1.2c2.6-0.1,1.5,1.1,3.7,0.6c2.1-0.5,1.4,1.8,3.3,1.5c1.9-0.3,0.9-0.2,2.6,1.2
					c0.7,0.5,1.6-0.8,3.4,0.5c1.7,1.3,1.4,2.3,2.2,1.3c1.7-2,1.1,0.3,1.4,1.1c0.2,0.6,1.9,0.7,2.6,0.3c1-1,1.5,0.8,3,1.4
					c1,0.4,2,0.1,2.2-0.6C131.5,53.5,131.1,53.3,130.7,53.2z"/>
			</g>
			<path class="st53" d="M84.4,33.4c0,0-1.5,0.3-1.6,2c-0.1,1.8,1.3,3.3,3,3.9c2.9,1,4.9,0.6,1.1-1.4C83,36.1,84.4,33.4,84.4,33.4z"
				/>
		</g>
		<g>
			<g>
				<path class="st46" d="M159-3.6c0,0-7.5,16.6-7.7,18.6s8.5,0.2,8.5,0.2s7.5-18.8,7.9-18.8S159-3.6,159-3.6z"/>
			</g>
			<g>
				<line class="st34" x1="154.2" y1="11" x2="159.4" y2="11.6"/>
				<path class="st42" d="M159.4,11.9L159.4,11.9l-5.3-0.7c-0.2,0-0.3-0.2-0.2-0.3c0-0.2,0.2-0.3,0.3-0.2l5.3,0.7
					c0.2,0,0.3,0.2,0.2,0.3C159.8,11.8,159.6,11.9,159.4,11.9z"/>
			</g>
			<g>
				<line class="st34" x1="155.9" y1="6.1" x2="160.9" y2="7.8"/>
				<path class="st42" d="M160.9,8.2L160.9,8.2l-5-1.7c-0.2-0.1-0.2-0.2-0.2-0.5c0.1-0.2,0.2-0.2,0.5-0.2l5,1.7
					c0.2,0.1,0.2,0.2,0.2,0.5C161.1,8.1,161,8.2,160.9,8.2z"/>
			</g>
			<g>
				<line class="st34" x1="157.7" y1="2" x2="162.8" y2="3.5"/>
				<path class="st42" d="M162.8,4c-0.1,0-0.1,0-0.2,0l-5-1.6c-0.2-0.1-0.3-0.3-0.2-0.6s0.3-0.3,0.6-0.2l5,1.6
					c0.2,0.1,0.3,0.3,0.2,0.6C163.2,3.9,163,4,162.8,4z"/>
			</g>
			<g>
				<line class="st34" x1="159.4" y1="-1.1" x2="164.3" y2="0.3"/>
				<path class="st42" d="M164.3,0.7L164.3,0.7l-5-1.6c-0.2-0.1-0.2-0.2-0.2-0.5c0.1-0.2,0.2-0.2,0.5-0.2l5,1.6
					c0.2,0.1,0.2,0.2,0.2,0.5C164.7,0.6,164.4,0.7,164.3,0.7z"/>
			</g>
			<g>
				<line class="st34" x1="161.1" y1="-3.6" x2="165" y2="-1.9"/>
				<path class="st42" d="M165-1.6c-0.1,0-0.1,0-0.2,0L161-3.3c-0.2-0.1-0.2-0.2-0.2-0.5c0.1-0.2,0.2-0.2,0.5-0.2l3.9,1.7
					c0.2,0.1,0.2,0.2,0.2,0.5C165.2-1.7,165.1-1.6,165-1.6z"/>
			</g>
			<g>
				<line class="st34" x1="152.9" y1="14.1" x2="158.6" y2="14.1"/>
				<path class="st42" d="M158.6,14.5h-5.7c-0.2,0-0.3-0.2-0.3-0.3s0.2-0.3,0.3-0.3h5.7c0.2,0,0.3,0.2,0.3,0.3
					C159,14.3,158.8,14.5,158.6,14.5z"/>
			</g>
			<g>
				<line class="st34" x1="157.1" y1="3.9" x2="161.9" y2="5.4"/>
				<path class="st42" d="M161.9,5.8L161.9,5.8l-5-1.6c-0.2-0.1-0.2-0.2-0.2-0.5c0.1-0.2,0.2-0.2,0.5-0.2l4.9,1.6
					c0.2,0.1,0.2,0.2,0.2,0.5C162.2,5.7,162,5.8,161.9,5.8z"/>
			</g>
			<g>
				<line class="st34" x1="155.1" y1="8.6" x2="159.7" y2="9.8"/>
				<path class="st42" d="M159.7,10.1L159.7,10.1L154.9,9c-0.2-0.1-0.2-0.2-0.2-0.5c0.1-0.2,0.2-0.2,0.5-0.2l4.7,1.2
					c0.2,0.1,0.2,0.2,0.2,0.5C160,10,159.9,10.1,159.7,10.1z"/>
			</g>
			<g>
				<path class="st4" d="M368.7-6.5c-0.1,0.1-0.1,0.2-0.2,0.2c-0.8-1.6-3.5-1.8-4.1,0.3c-1.8,6.5-3.7,12.9-5.6,19.4
					c-0.5,1.5,0.6,2.5,1.8,2.6c-1.3,4.4-2.8,9.3-5.3,12.7c-1.7,2.2,1.4,5.3,3.1,3.1c3.5-4.5,4.9-10.6,6.8-15.9
					c2.4-6.8,4.8-13.5,7.1-20.3C373-6.3,370.1-8.1,368.7-6.5z"/>
				<path class="st4" d="M351.9-5.4c-4.8,13.3-10.1,26.4-15.7,39.4c-1.1,2.5,2.6,4.8,3.7,2.2c4.1-9.3,7.9-18.5,11.6-28
					c0.1-0.1,0.2-0.2,0.2-0.5c1.7-2.9,2.9-6,3.6-9.4c0-0.1,0-0.2,0-0.3c0.2-0.8,0.5-1.5,0.7-2.3C356.9-6.9,352.9-7.9,351.9-5.4z"/>
				<path class="st4" d="M337.1-5.4c-1.8,3.2-3.6,6.4-5.3,9.7c-2.6,4.4-5.2,8.8-8.1,13.2c-0.7,1-0.3,2,0.3,2.6
					c-2.2,4.8-4.2,9.6-6.1,14.5c-1,2.6,3.2,3.7,4.2,1.1c3.8-10.1,8.3-19.7,13.3-29.2c1.8-3.2,3.6-6.4,5.3-9.7
					C342.2-5.7,338.5-7.8,337.1-5.4z"/>
				<path class="st4" d="M324.2-6.6c-9.2,14.2-18.1,28.5-26.9,43c-1.5,2.4,2.3,4.6,3.7,2.2c0.2-0.2,0.2-0.5,0.5-0.7
					c0.6-0.1,1.2-0.3,1.7-0.9c9-13.2,20.4-26.4,25.1-41.9C328.9-7.3,325.5-8.6,324.2-6.6z"/>
				<path class="st4" d="M317.3-6.3c0,0.6-0.1,0.9-0.2,1.4c-0.8-0.6-1.9-0.6-2.7,0.2c-2,2-4.2,4-6.4,5.8c-0.2,0-0.2,0.1-0.5,0.2
					c-10.8,4.9-21.5,9.7-31.4,16.1c-0.9,0.6-1.1,1.5-0.9,2.4c-1,0.6-2.2,1.1-3.2,1.7c-2.8,1.2-5.4,2.5-8.1,4.1
					c-1.3,0.8-1.3,2-0.6,3.1c-2.4,0.2-3.4-0.7-5.6-1.3c-4.2-1.2-10.6,5.7-13,8.5c-1.7,1.7,0.5,4.7,2.6,3.4c0.2-0.2,0.6-0.3,0.8-0.5
					c0.5,0,0.9-0.1,1.4-0.5c0.2-0.1,0.6-0.2,0.7-0.5c2.3-1.8,4.4-3.6,6.7-5.4c0.2-0.2,0.3-0.3,0.6-0.6c4.9,2,9.5,0.9,13.8-1.7
					c11-4.4,21.3-10.4,30.5-17.8c2.4-1.3,4.6-2.5,6.9-3.9c5.9-3.4,13-7.1,13.3-14.7C321.7-9.1,317.4-9.1,317.3-6.3z"/>
				<path class="st4" d="M227,13.7c0-0.1,0-0.1,0-0.2c0.1-0.7-0.5-1.6-1-1.9c-1.5-0.7-2.4-2-2.7-3.6c-0.5-2.8-4.6-1.6-4.2,1.1
					c0.3,2.4,1.6,4.2,3.5,5.6c0,0.1,0,0.2,0,0.2c-0.2-0.1-0.5-0.1-0.7-0.1c-0.6-0.2-1.1-0.3-1.7-0.2c-0.1,0-0.2,0.1-0.2,0.1
					c-1.9,0-3.7,0.5-5.7,1.2c-0.2,0.1-0.3,0.2-0.6,0.3c-4.6,1.1-9.2,2.2-13.8,3.1c0-0.7-0.3-1.5-1-1.7c-4.5-2.1-9.1-2.3-13.9-2
					c-4.5,0.2-9,0.6-13.4,0.9c-0.6-0.7-1.5-1.2-2.4-1c-0.3,0.1-0.7,0.2-1.1,0.2c-0.6-0.6-1.5-0.8-2.4-0.2l-3.5,2.4
					c-1.5,0.8-2.8,1.6-4.2,2.6c-1.6,1.2-1.2,4.1,1.1,4.1c3.4-0.1,6.8-0.2,10.1-0.3c0.3,0.5,0.9,0.8,1.5,0.9
					c15.2,1.9,30.2-1.1,44.9-4.9c0.3,0.2,0.8,0.2,1.1,0.3c0.2,0.2,0.6,0.5,0.9,0.6c4.3,1.1,8.3,0.7,12.4-1.1c0.7-0.3,1-1.1,1-1.9
					C231.3,15.2,229.3,14.1,227,13.7z"/>
				<path class="st42" d="M228.1,6.1l9,2c0,0,1.7,2,1.2,5c-0.3,1.9-1,3.2-2.7,4.2c-0.9,0.6-2.4,0.7-2.4,0.7l-8.9-2
					c0,0-4.2-0.7-4.1-2.3s1.6-5.6,1.6-5.6l3.9-2.7L228.1,6.1z"/>
				<path class="st54" d="M194.6,35.8c-1.9-2.8,2.4-4.3,9.4-5.3c6.9-1,11.1-4.5,16.7-3.2c5.7,1.3,1.5,2.3,5.3,4.6
					c3.9,2.4,8.3,5.6,2.6,7.4c-7,2.3-4.2,2.4-11.8,3.1c-19.4,1.7-12.6-4.8-16.7-4.8C196,37.4,194.6,35.8,194.6,35.8z"/>
				<path class="st54" d="M238.4,42.5c5.2,0.8,13.5,2.9,7.7,4.4c-4.7,1.1-6,2.7-13.4,1.9C224.4,48.1,233.4,41.9,238.4,42.5z"/>
				<path class="st55" d="M230.6,35.2c-0.1,0.2-0.2,0.6-0.3,0.9c-0.6,1.5-20.8,7.9-25.9,2.7c-1.6-1.6-2.4-3.9-6.6-4
					c-1.7-0.1-2.4-0.7-2.8-1.6c-0.9,0.8-1,1.7-0.3,2.7c0,0,1.4,1.6,5.7,1.6c4.2,0-1.2,8.5,18,5.6C233,40.7,231.8,36.7,230.6,35.2z"
					/>
				<path class="st55" d="M246.1,47c3.5-0.9,1.9-2-0.9-2.8c-0.7,0.6,0.3,1.2-0.5,1.7c-1.7,1.2-8.5,1.5-12.6,1.1
					c-1.2-0.1-2-0.5-2.4-0.8c-0.9,1.2-0.2,2.4,2.9,2.8C240.1,49.7,241.3,48.1,246.1,47z"/>
				<path class="st42" d="M159.7,15.2c0,0,0.9,2.8,26.4,3.9s28.1,0.9,28.1,0.9l10.3-4c0,0-1.9-4.3,0.7-7.8c1.4-1.8,2.9-2,2.9-2
					L224-3.6h-56.3L159.7,15.2z"/>
				<path class="st40" d="M222.2-2.4c-4.6,3.4-8.5,8.6-8.5,19.2c0,1.3,0.2,2.4,0.5,3.2c0.1,0,0.1,0,0.1,0l10.3-4
					c0,0-1.9-4.3,0.7-7.8c1.4-1.8,2.9-2,2.9-2L224-3.6C223.6-3.5,222.6-2.8,222.2-2.4z"/>
				<path class="st56" d="M232.9,15.5"/>
				<g>
					<path class="st46" d="M233.3,15.9L233.3,15.9l-9-1.5c-0.2,0-0.2-0.2-0.2-0.3c0-0.2,0.2-0.2,0.3-0.2l9,1.4
						c0.2,0,0.2,0.2,0.2,0.3C233.6,15.8,233.5,15.9,233.3,15.9z"/>
				</g>
				<g>
					<path class="st46" d="M233.4,13.4L233.4,13.4l-9.3-1.7c-0.2,0-0.2-0.2-0.2-0.3c0-0.2,0.2-0.2,0.3-0.2l9.2,1.7
						c0.2,0,0.2,0.2,0.2,0.3C233.6,13.2,233.6,13.4,233.4,13.4z"/>
				</g>
				<g>
					<path class="st46" d="M234.3,11.2L234.3,11.2l-9.4-1.9c-0.2,0-0.2-0.2-0.2-0.3c0-0.2,0.2-0.2,0.3-0.2l9.4,1.9
						c0.2,0,0.2,0.2,0.2,0.3C234.6,11.2,234.4,11.2,234.3,11.2z"/>
				</g>
				<g>
					<path class="st46" d="M236.1,9.1C236,9.1,236,9.1,236.1,9.1l-9.2-1.8c-0.2,0-0.2-0.2-0.2-0.3s0.2-0.2,0.3-0.2l9.1,1.7
						c0.2,0,0.2,0.2,0.2,0.3C236.3,9,236.2,9.1,236.1,9.1z"/>
				</g>
				<path class="st46" d="M213.9,20c-0.6-2.3,0-5.2-0.2-6.9c-0.2-2-51.1-3.2-52.4-1.7l-1.7,3.9c0,0,0.9,2.8,26.4,3.9
					C207.2,20,212.7,20,213.9,20z"/>
				<path class="st12" d="M213.8,13c-0.1,1.1,0,2.4,0,3.7s-0.1,2.4,0.2,3.2c0.1,0,0.3,0,0.3,0l10.3-4c0,0-0.2-0.6-0.6-1.6l0,0
					C224.1,14,215,13.2,213.8,13z"/>
				<path class="st57" d="M244.2,23.9l-2.2-9.3c0,0,17.2-13.3,17.4-13.7c0.1-0.5-0.3-3.4,1.7-2.7c2,0.7,0.3-0.8,2.7-0.8
					s3.6-1.2,3.6-1.2h47l-24.4,17.4c0,0,3.1,1.6-0.8,1.7c-3.9,0.1-1.9-0.3-3.9,0.9c-1.9,1.3-2-1.2-4.8,1.5
					c-2.7,2.7-20.8,12.7-21.1,12.7c-0.3,0.1-9.5-0.9-9.5-0.9S242.4,28.2,244.2,23.9z"/>
				<path class="st56" d="M262.8,0.6"/>
				<g>
					<path class="st58" d="M284.3,15.4c-6.4-10.7-17.8-16.9-17.9-17l0.3-0.6c0.1,0.1,11.7,6.4,18.2,17.2L284.3,15.4z"/>
				</g>
				<g>
					<path class="st58" d="M279.8,16.7c-0.1-0.2-7.4-14.1-16.2-16.6l0.2-0.6c9.1,2.5,16.3,16.3,16.6,16.8L279.8,16.7z"/>
				</g>
				<g>
					<path class="st58" d="M286.9,14.1c-3.4-9.1-16.4-15.4-16.6-15.5l0.3-0.6c0.6,0.2,13.4,6.5,16.9,15.9L286.9,14.1z"/>
				</g>
				<path class="st58" d="M303.3-2.9c-2.4,1.8-6.1,4.2-11.3,6.8c-11.2,5.7-26,16-30.5,18.2c-4.5,2-12.1,0.7-12.6,3.9
					c-0.1,0.9,0.9,2,2.3,3.1c2.7,0.3,7.5,1,7.7,0.9c0.3-0.1,18.7-9.4,21.6-12c2.8-2.6,2.8-0.1,4.9-1.3c2-1.2,0-0.9,3.9-0.9
					c3.9,0,0.8-1.7,0.8-1.7l25.1-16.7L303.3-2.9z"/>
				<path class="st59" d="M318.1-3.6c0,0-23.5,38.2-23.6,38.7s-2,3.9,0.5,5.3c2.9,1.9,5.6-0.6,6.4-2.6c0.9-2,26.3-42.3,26.3-42.3
					L318.1-3.6z"/>
				<polygon class="st60" points="329.5,-3.6 322.6,12.3 330,13.4 337.9,-3.6 				"/>
				<polygon class="st61" points="345.8,-5.4 339.8,10.2 345.6,11.6 352.4,-5.2 				"/>
				<polygon class="st62" points="360.2,-6.1 355.7,11.2 362,12 367.4,-6.8 				"/>
				<path class="st27" d="M322.8,9.7l-9.5,24c0,0,0.2,2.7,2.5,3.9c2.7,1.3,5.7-0.6,6.3-1.5c0.6-0.9,9-23.7,9-23.7
					c0.1-0.2-1.1,0.1-2.8-0.2C326.4,11.9,324.2,11.3,322.8,9.7z"/>
				<path class="st13" d="M339.8,8.7l-9.5,24c0,0,0.2,2.7,2.5,3.9c2.7,1.3,5.7-0.6,6.3-1.5c0.6-0.9,9-23.7,9-23.7
					c0.1-0.2-1.1,0.1-2.8-0.2C343.5,10.9,341.5,10.4,339.8,8.7z"/>
				<path class="st20" d="M355.8,9.7L350,30.2c0,0,0.3,2.2,2.4,2.8c2.4,0.8,4.7-0.9,5-1.7c0.3-0.9,5.3-20.4,5.3-20.4
					c0.1-0.1-0.9,0.2-2.4,0.1C359.1,11.2,357.2,10.9,355.8,9.7z"/>
				<path class="st63" d="M303.7,25.5c-1.3-0.6-2-1.3-2.3-2c-1.9,3.2-3.6,6-5,8.1c0.6,1,1.6,2,3.1,2.6c1.1,0.6,2.4,0.6,3.6,0.3
					c1.3-2,3.1-5.1,5.2-8.4C307.2,26.3,305.5,26.2,303.7,25.5z"/>
				<path class="st64" d="M325-4.3C321.1,2.4,303,33,297.7,40.1c-0.2,0.5-0.6,0.7-0.9,0.9c2.2,0.2,3.9-1.7,4.5-3.3
					c0.9-2,26.3-42.3,26.3-42.3L325-4.3z"/>
				<polygon class="st65" points="328.2,12.1 330.1,13 337.9,-3.6 335,-3.6 				"/>
				<polygon class="st66" points="345.2,11.1 347.3,12 354.7,-4.8 351.8,-4.8 				"/>
				<polygon class="st9" points="360.4,11.9 362,12 367.4,-7.4 365.2,-7.4 				"/>
				<path class="st67" d="M200.4-3.6h-11.9h-1.2c-1.3,1.5-3.2,4.4-4.6,7.9c-2.4,6-2.4,11.2-2,14.5c1.7,0.1,3.4,0.2,5.3,0.2
					c2.4,0.1,4.7,0.2,6.8,0.2c-0.5-3.4-0.6-8.3,1.7-13.2C196.6,1.6,198.9-1.9,200.4-3.6z"/>
				<path class="st68" d="M183.8,7c-1.6,6.1,4.1,10.4,5,7.1c2.4-9.2,4.3-10.2,7.4-12.6c4.6-3.5-5.2-6.3-7.5-3.1
					C186.3,1.6,184.5,4.4,183.8,7z"/>
				<ellipse class="st69" cx="207.8" cy="33.8" rx="4.3" ry="1.9"/>
				<path class="st70" d="M258.2,27.1c-1.8-5.8-4.3-9.2-10.7-11.7c-2-0.8-5.6-0.9-5.6-0.9l2,9.3c-0.9,2,0.3,3.5,1.8,4.4
					c0.9,0.5,2,0.9,3.1,1.3c0.5,0.2,0.8,0.2,0.8,0.2s7.9,0.9,9.3,0.9C258.9,29.8,258.6,28.5,258.2,27.1z"/>
				<path class="st71" d="M235.8,30.6l9-7.6c0,0,1.4-0.2,3.9,1.6c2,1.6,2,4.2,2,4.2l-8.6,7.9c0,0-3.4,0.9-5.2-1.3
					C235,33.2,235.8,30.6,235.8,30.6z"/>
				<path class="st8" d="M241.8,36.7c0.8-0.9,1.1-2,0.8-3.5c-0.7-2.9-3.6-4-5.8-3.2c-0.2,0.1-0.6,0.2-0.7,0.3l-0.5,0.3
					c0,0-0.9,2.6,0.9,4.8C238.4,37.4,241.3,36.9,241.8,36.7z"/>
				<path class="st69" d="M249.4,12.7c0,0,12.7-6.9,14.1-8.6s2.3-1.5,5-2.4c2.8-0.9,3.1-0.9,5.3-2.4c2.2-1.5,3.2-4.5-1.3-2.4
					c-4.6,2-2.2-2.4-10.6,3.5C253.6,6.3,245.7,12,245.4,13C245.3,14.3,249.4,12.7,249.4,12.7z"/>
				<path class="st72" d="M235.9,17.5c1.6-1,2.5-2.4,2.7-4.4c0.2-4.2-1.5-5-1.5-5c-0.9,0.3-2.4,1.3-3.1,2.8
					c-1.6,3.5-0.9,6.2-0.2,7.3C234,18.1,235.1,18,235.9,17.5z"/>
				<path class="st70" d="M301.4,25.5c0,0,3.6-0.9-2.6,8.6c-2.2,3.3-4.7,5.6-3.9,2.4C295.8,33.4,297.8,29.5,301.4,25.5z"/>
				<path class="st73" d="M360.6,11.2c-0.2,0-0.5,0-0.6,0c-0.2,2.8-1.2,10.1-4.3,18.7c-1.1,3.1-1.9,3.5-1.9,3.5
					c1.7-0.2,2.9-1.3,3.4-1.9s5.7-20.4,5.7-20.4C362.8,11,362,11.2,360.6,11.2z"/>
				<path class="st74" d="M345.1,11.1c-0.2,0-0.6-0.1-0.8-0.1c-0.6,3.5-2.3,11.9-6.8,22c-1.6,3.5-2.5,4-2.5,4.1c2-0.1,3.7-1.2,4.2-2
					c0.6-0.9,8.7-23.8,8.7-23.8C348,11.1,346.8,11.2,345.1,11.1z"/>
				<path class="st75" d="M328.2,12.1c-0.2,0-0.6-0.1-0.8-0.1c-0.6,3.5-2.4,11.9-7,21.9c-1.7,3.5-2.6,4-2.6,4c2,0,3.7-1.2,4.2-1.9
					c0.6-0.9,9-23.7,9-23.7C331.2,12.1,329.8,12.3,328.2,12.1z"/>
				
					<ellipse transform="matrix(0.3603 -0.9328 0.9328 0.3603 175.7489 314.8449)" class="st76" cx="317.4" cy="29.3" rx="4.6" ry="1.5"/>
				<ellipse transform="matrix(0.3603 -0.9328 0.9328 0.3603 185.734 330.7542)" class="st77" cx="334" cy="30" rx="4.6" ry="1.5"/>
				
					<ellipse transform="matrix(0.2705 -0.9627 0.9627 0.2705 232.7365 359.1686)" class="st78" cx="353.4" cy="26" rx="4.2" ry="1.1"/>
			</g>
		</g>
		<g>
			<path class="st79" d="M405.4,41.7c-1.8,1.9-2,4.8-0.2,5.8c1.7,1,5-0.2,6.5-1.5c0.5-1.4,0.3-2.7-0.2-3.2c-1.3-0.9-1.3-0.3-2.6-2.3
				c-0.2-0.5-0.7-0.7-1.1-0.8C406.4,40.5,405.6,41.3,405.4,41.7z"/>
			<path class="st13" d="M418.8,48.3c0,0-1.6,0.2-2.5-0.6s0.5-3-2.2-3.4c-1.5-0.2-2.6,1.4-2.6,1.4l-0.5,1.7c0,0-1.1,2.3,1.7,3.8
				c1.6,0.9,4.5-0.2,6.6-1.5C419.7,49.1,419.5,48.5,418.8,48.3z"/>
			<g>
				<path class="st4" d="M517,131.8L517,131.8c-0.9-0.3-1.8-0.3-2.7,0.3c-4.1,3.6-7.4,7.9-9.9,12.9c-0.5,0.6-1.1,1.4-1.6,1.9
					c-0.3,0.5-0.5,1-0.5,1.5c-6.5,7.4-13.1,14.7-19.9,21.7c-2.5,2.3-4.9,4.7-7,7.4c-1,1.2-0.5,2.7,0.5,3.4c-2.7,2.3-5.3,4.3-8.1,6.4
					c-2.3,1.7-0.1,5.5,2.2,3.8c16.5-12.2,30.9-27.7,45.9-41.7c0.5-0.6,0.7-1,0.6-1.7l0.1-0.1l0,0l0,0c0.2-0.1,0.2-0.2,0.5-0.3
					c1.4-1,0.7-2.6-0.5-3.3c0.2-0.2,0.5-0.5,0.7-0.7c1.4-1.4,0.5-3-0.9-3.5c1.3-1.6,2.6-3.2,3.9-4.9
					C521.8,132.7,519.2,129.9,517,131.8z"/>
				<path class="st4" d="M519.8,65.5c0.1-0.3,0.2-0.7,0.2-1c0.2-1.4-1-3.2-2.5-2.8c-1.1-0.6-2.6-0.2-3.1,1.4
					c-0.5,1.4-0.9,2.7-1.3,4.1c-0.3,1,0,1.7,0.6,2.3c-0.2,0.2-0.3,0.5-0.5,0.8c-4.7,11.1-9.3,22.1-14.1,33.2c-0.6,1.4,0,2.6,0.9,3
					c-1.3,2.6-2.6,5.2-4,7.8c-0.1,0.1-0.2,0.2-0.2,0.3c-1.5,1.9-2.9,3.8-4.3,5.7c-0.5,0.6-0.5,1.2-0.5,1.8c-0.6,1-1.2,2.1-1.8,3.2
					c1.6-8.1,4.1-16.1,7.3-23.8c4.4-10.9,11.4-20.8,12.9-32.7c0.2-2.3-2.8-4.3-4-1.7c-2.7,6-5.3,12.1-7.9,18.1
					c-0.5-1.2-1.8-2-3.2-1.2c-0.7-0.6-1.8-0.6-2.7,0.2c-0.9,0.8-2,1.6-2.9,2.4c-0.2,0.1-0.5,0.2-0.8,0.3c-0.2,0.1-0.2,0.2-0.5,0.3
					l0,0c-0.1,0.1-0.1,0.1-0.2,0.2c-11.6,9.3-22.3,19.6-31.9,30.8c-1.7,1.4-3.4,3.2-3.2,5.7c0,0.6,0.2,1,0.6,1.5
					c0.2,0.6,0.6,1,1.1,1.4c0.6,0.3,1.3,0.5,2,0.3c0.6,0.2,1.3,0.1,1.9-0.6c1.3-1.2,2.6-2.5,3.7-3.8c0.9-0.7,1.8-1.4,2.7-2.1
					c0.6,0.3,1.3,0.3,2,0c0.5-0.2,0.9-0.6,1.5-0.8c0.1,0,0.2-0.1,0.2-0.1c3.4-2.1,6.6-5.3,9.5-8c4.1-3.6,8.1-7.4,12-11.3
					c1-1,0.7-2.3-0.1-3.1c2-2.3,4-4.7,5.9-7.1c-9.8,22.4-19.9,44.7-32.6,65.5c-0.2,0.3-0.2,0.6-0.3,1c-1,1.5,0.2,4.2,2.3,3.5
					c9.1-2.9,12-15.1,15.5-23.1c1.4-3.2,2.8-6.4,4.2-9.7c-0.8,4.1-1.4,8.3-1.8,12.5c-0.2,1.7,1.5,2.3,2.7,2
					c-1.3,1.9-2.7,3.9-4.1,5.9c-1.6,2.3,2,4.5,3.7,2.3c9.1-13,17.1-26.8,23.8-41.3c3.7-5.5,7.3-11.1,9.5-17.3c0.3-1-0.2-1.9-0.9-2.4
					c0.5-0.7,1.1-1.5,1.6-2.3c1.1-1.5-0.5-3.4-2-3.4c0.1-0.2,0.2-0.3,0.2-0.6c0.5-0.8,0.3-1.6,0-2.3c0.9-4.5,1.6-9,2.3-13.6
					C520,66.4,520,65.9,519.8,65.5z M487.9,133.1c0.1-0.5,0.2-0.9,0.2-1.4c0.2,0.1,0.2,0.2,0.5,0.2
					C488.3,132.2,488.2,132.7,487.9,133.1z"/>
				<path class="st4" d="M515,52.4c-1.1-0.1-2.3-0.1-3.3,0c-0.5-0.3-1.1-0.6-1.8-0.3c-1.4,0.3-2.7,0.7-4.1,1.1
					c-0.6,0.1-1.2,0.2-1.9,0.6c-0.1,0-0.2,0.1-0.2,0.1c-2,0.6-4.1,1.5-6,2.6c-0.1,0.1-0.2,0.2-0.3,0.2c-8.4,0.5-16.3,2.7-23.8,6.6
					c-0.2,0.1-0.3,0.2-0.5,0.3c-6.6,1.9-12.7,5.1-18.3,9.2l-7.7,3.9c-0.3,0.1-0.6,0.1-0.9,0.2c-0.9,0.2-1.4,0.8-1.6,1.5
					c-0.1,0.2-0.2,0.2-0.2,0.5c0.1,0,0.1,0,0.2,0c0,1.2,1.1,2.7,2.7,2.3c8-1.4,15.8-3.8,23.3-7c0.3,0.1,0.8,0.1,1.2,0
					c12.3-3.6,24.5-7.4,36.6-11.2c1.8-0.6,1.8-2.7,0.9-3.8c2-0.7,4.2-1.5,6.2-2.3C517.9,55.9,517.5,52.6,515,52.4z"/>
				<path class="st4" d="M507.5-5c-0.2-0.1-0.2-0.1-0.5-0.2c-1.8-0.6-2.9,1.2-2.6,2.7c-0.5,0.3-1.3,0.9-2.3,1.4
					c0.5-1.7-1.1-3.6-3.1-2.7c-2.7,1.4-5.4,2.8-8.1,4.3c-0.1-1.2-1-2.3-2.6-1.9c-3.3,0.8-5.9,2.4-8.4,4.8c-0.2,0.2-0.3,0.3-0.5,0.6
					c-4.5,3.1-8.9,6.3-13.3,9.5c-4.2,3.1-7.9,6.2-8.5,11.8c-0.1,0.8,0.5,1.5,1,1.9c0,1.8-0.1,3.5-0.2,5.3c-0.1,1.5-0.2,3.1-0.5,4.6
					c-0.2,1.8-0.6,3.5-0.9,5.3c-0.1,0.3,0,0.6,0,1c-0.2,0.6-0.2,1.4-0.5,1.9c-1.2-1.9-2.4-3.9-3.6-6c0.1-0.2,0.2-0.5,0.3-0.6
					c1-1.9-1-4.2-2.9-3c-0.2,0.2-0.5,0.2-0.7,0.5c-0.5-0.9-1.7-1.4-2.9-0.8c-2.4,1.2-4.1,2.8-5.5,5.2c-0.2,0.5-0.3,0.9-0.3,1.2
					c-0.6,0.7-1.2,1.4-1.8,2c-1.2,1.4-0.5,3.1,0.9,3.5c-1.5,1-3,1.9-4.7,2.7c1.3-2.4,2.2-5.1,2.2-7.9c1.3-1,2.6-2.3,3.8-3.4
					c1.8-1.7-0.6-5-2.6-3.5c-2,1.6-4.2,3.2-6.2,4.8c-4.1,2.1-7.8,5-11.1,8.5c-0.1,0.2-0.2,0.2-0.3,0.5c-0.2,0.2-0.5,0.3-0.8,0.5
					c-2.3,1.5-0.2,5.3,2.2,3.8c3.4-2.1,6.7-4.4,9.9-6.9c-0.9,2.4-2.5,4.5-4.1,6.8c-1.2,1.7,0.8,3.6,2.4,3.3
					c7.9-1.9,14.8-6.4,19.7-13c1.8,2.9,3.5,5.9,5.3,8.8c0.9,1.5,3.5,1.4,4-0.6c1.6-7.2,2.9-14.5,4-21.8c1.1-2.9,2.8-5.6,4.8-8
					c1.6-1,3.2-2.1,4.8-3.2c5.7-3,11.4-6.1,17.1-9.2c4.2-2.3,8.5-4.5,12.7-6.8c2.4-1.4,5.8-2.3,5.7-5.8C509.1-3.8,508.5-4.6,507.5-5
					z"/>
				<path class="st4" d="M519.4,31.3c0.2-0.6,0.3-1.4,0-1.9c-0.2-0.6-0.5-1-0.9-1.4c-0.5-1-1.6-1.4-2.6-1.2
					c-1.1,0.2-2.3,0.5-3.4,0.8c-0.2-0.2-0.6-0.2-0.9-0.2c-0.7,0-1.3,0-2,0c-1,0-1.7,0.6-2,1.4c-0.2,0.1-0.5,0.2-0.8,0.2
					c-0.9,0.1-1.8,0.3-2.6,0.6c-0.6,0.2-1,0.6-1.3,1.1c-1.5,0.6-2.9,1.2-4.3,1.9c-2.8,1.4-6.4,2.7-8.7,5c-0.3,0.3-0.6,0.9-0.6,1.4
					c-0.2,0.1-0.2,0.1-0.5,0.2c-1.1-0.1-2.2-0.1-3.3-0.2c-1.8-0.1-2.9,2.6-1.6,3.8c0.5,0.3,0.9,0.7,1.5,1c0.2,0.7,0.9,1.1,1.9,1
					c5.1-0.5,10.2,0.1,15.2-1c4.9-1,9.5-3.4,13.5-6.4c0.9-0.6,1.2-1.8,0.9-2.7c0.2-0.3,0.3-0.6,0.5-1c0.1-0.2,0.2-0.6,0.2-0.8
					C518.8,32.6,519.3,32.1,519.4,31.3z"/>
				<path class="st4" d="M526.1,211.8c-1.6-1-3.2,0.6-3.2,2c-0.2,0-0.3,0-0.5,0c-1.9,0.2-3.8,0.5-5.7,0.7c-0.3-0.5-0.9-0.7-1.6-0.7
					c-2.4,0.2-4.5,0.8-6.7,2c-0.5,0.3-0.9,0.8-1,1.2c-3.3-0.7-6.4-2.3-8.9-4.6c-2-1.9-5.1,1.2-3,3.1c5.9,5.4,13.6,7.2,21.3,5.9
					c3-0.6,8.5-1.4,10.4-4.3C528.6,215.3,528.2,213.2,526.1,211.8z"/>
				<path class="st80" d="M453.9,112.4h-0.6l-5.9,7.7c0,0-0.5,0.6,0,1.9c0.5,1.1,0.9,1.9,2.7,2.3c1.6,0.5,2.3-0.3,2.3-0.3l6.2-7.8
					L453.9,112.4z"/>
				<path class="st22" d="M472.6,174.2l-3.4,9.6c0,0,1-0.7,2,0.1c0.9,0.8,0.5,1.2,0.5,1.2l7-6.1l3.1-5.7l-1.3-1.4l-4.7-1.2
					L472.6,174.2z"/>
				<path class="st81" d="M515.9,185.6c0,0-8.7-2.5-16.9,5.7c-7,6.9-7.7,13.3-5.2,19.2s8.7,8,14.6,7.2c4.3-0.6,6.4-2.3,6.4-2.3
					l1.2-1.2v-27.2L515.9,185.6L515.9,185.6L515.9,185.6z"/>
				<path class="st82" d="M504.3,189.7c-3.6,2.5-9.9,10.6-5.9,18c1.8,3.4,7.7,6.8,13.4,5.3c4.3-1,4.1-1.7,4.1-1.7v-24.6
					C515.9,186.7,510.8,185.2,504.3,189.7z"/>
				<path class="st20" d="M515.9,117.2l-43.4,57c0,0,0.8-1,2.5-0.8c0.9,0.1-0.3,3.6-0.3,3.6l41.2-52.2V117.2z"/>
				<path class="st83" d="M478.6,179l37.3-44.8v-9.6l-41.2,52.3c0,0,2.9-2.5,4.1-1.8C479.8,175.7,479.6,177.7,478.6,179z"/>
				<path class="st20" d="M470.4,180.4c0,0-0.8,2.1-1.5,3.9c-0.7,1.8-1.8,4.1-1.8,4.1l0.6,1.2l6.7-7.2L470.4,180.4z"/>
				<path class="st30" d="M450.4,0.1c0,0-10.8,13.9-14.5,16.1c-3.6,2.1-7.7,1.8-10.9,1.5c-3.2-0.2-11.6-3.3-14.3-2.5
					c-2.7,0.8-2.2,3.6,0.2,5.3c2.4,1.7,8.6,4.3,11,4.6c2.4,0.3,1.7,0.9,1.7,0.9s-17.1,14.3-18.5,15.7c-2,2.3-2,4.8-0.2,5.8
					c1.7,1,5-0.2,6.6-1.5l-0.5,1.7c0,0-1.1,2.3,1.7,3.8c2.8,1.5,9.4-3.2,9.9-3.6s12.1-8.9,12.1-8.9s-7.6,13.9-7.9,14.7
					s-1.5,2.7-0.9,4.7c0.5,1.9,2.4,3.1,4.5,2.3c2.2-0.9,2.7-1.9,3.8-3.7c1.1-1.9,12.7-19.4,12.7-19.4c0.9-1,0.6-1.9,1.3,0.6
					c0.7,2.5,4.5,12.8,6.2,15.6c1.8,3,4.1,4.3,6.8,3.6c2.7-0.7,2.4-3.7,2.2-4.2c-0.2-0.5-5.3-17.3-3.8-25.4
					c0.7-3.5,6.2-10.2,12.5-15.9c5.6-5.2,12.5-11.5,12.5-11.5h-34.3V0.1z"/>
				<g>
					<g>
						<line class="st34" x1="411.6" y1="45.9" x2="427.9" y2="31"/>
						<path class="st14" d="M411.6,45.9c0,0,0.2-0.2,0.6-0.7c0.5-0.5,1-1,1.7-1.8c0.8-0.7,1.6-1.6,2.6-2.5c0.9-0.9,2-1.9,2.9-2.7
							c1-0.9,2-1.9,3-2.7c0.9-0.9,1.9-1.6,2.7-2.3c0.8-0.7,1.5-1.1,2-1.6c0.5-0.3,0.8-0.6,0.8-0.6s-0.2,0.2-0.6,0.7
							c-0.5,0.5-1,1-1.7,1.8c-0.8,0.7-1.6,1.6-2.5,2.5c-0.9,0.9-2,1.9-2.9,2.7c-1,0.9-2,1.9-3,2.7c-0.9,0.9-1.9,1.6-2.7,2.3
							c-0.8,0.7-1.5,1.1-2,1.6C411.9,45.7,411.6,45.9,411.6,45.9z"/>
					</g>
				</g>
				<path class="st14" d="M472.2,11.6c5.6-5.2,12.5-11.5,12.5-11.5h-10.2c-0.3,0.2-11.2,9.9-15.2,15.6c-5,6.9-5.2,14-4,20.9
					c1.7,8.8,6.1,15.9,8.1,18.8c0.3-1,0.2-2,0.1-2.3c-0.2-0.5-5.3-17.3-3.8-25.4C460.4,24.1,465.9,17.4,472.2,11.6z"/>
				<path class="st7" d="M434.9,52.6c-1.6-1-1.9,0.2-3.1,0.9c-1.2,0.6-0.5-1.9-2.3-1.9c-0.6,0-1.3,0.5-2,1c-0.2,0.6-0.5,0.9-0.5,1
					c-0.2,0.9-1.5,2.7-0.9,4.7c0.5,1.9,2.4,3.1,4.5,2.3s2.7-1.9,3.8-3.7c0.2-0.2,0.6-1,1.2-1.9C435.4,53.9,435.3,53,434.9,52.6z"/>
				<path class="st84" d="M461.8,47c-1.4-1.7-1.4,0.6-3.1,2.6c-2,2.3-2.5-1.4-4.8-1.8c-0.9-0.2-1.3,0.5-1.4,1.4
					c0.8,1.9,1.6,3.6,2.2,4.5c1.8,3,4.1,4.3,6.8,3.6s2.4-3.7,2.2-4.2C463.4,52.9,462.6,50.4,461.8,47z"/>
				<path class="st7" d="M469.7,48.3c0-0.2-0.1-2.6,2.9-3.4c3-0.7,3.8-1.1,5.9-0.5c2,0.7,3.8,3,1.8,4.1c-2,1-3.3,1.2-6.2,1.4
					C469.5,50.3,469.7,48.3,469.7,48.3z"/>
				<path class="st7" d="M483.6,46.4c0,0,0-0.9,1.2-0.6c1.2,0.3,1.8,0.8,0.7,1.2C484.2,47.5,482,47.4,483.6,46.4z"/>
				<path class="st9" d="M476.2,20.6l4.8,22.1c0,0,4.2,1.9,9.8,1.8c8.2-0.3,15.2-3.2,15.7-4.9c0.5-1.7,0.9-23.8,0.9-23.8
					s-4.8-3.9-17.6-1.9C484.4,14.8,477.9,17.4,476.2,20.6z"/>
				<path class="st9" d="M476.5,21.3c0,0-1.5-1.8,1.1-5.7c2.6-3.9,8.3-5.9,14.3-6.7c3.9-0.5,10.7,0.6,12.9,2.3
					c2.7,1.9,3.2,4.1,2.7,5.2C507.2,17.9,479,23.1,476.5,21.3z"/>
				<polygon class="st8" points="450.4,66.5 454.7,68.2 515.9,46.5 515.9,41.7 				"/>
				<polygon class="st55" points="454,72.7 515.9,51.6 515.9,46.5 454.7,68.2 				"/>
				<polygon class="st22" points="443.3,73.6 450.4,66.5 454.7,68.2 454,72.7 443.8,74.7 				"/>
				<polygon class="st55" points="445.3,71.9 440.1,75.7 446.6,73.9 				"/>
				<path class="st85" d="M506.8,54.8l-54.4,55.2v3.9c0,0,3.7,0.1,4.9,3.4c0.2,0.7,0.2,0.8,0.2,0.8l4.8-1.4l53.6-57.1v-8L506.8,54.8
					z"/>
				<path class="st81" d="M462.3,116.6c-0.5-1.4-1.5-2.5-2.4-3.5c-1.4-1.4-2.6-2.5-5.2-3.1c-0.8-0.2-1.5-0.2-2.3-0.2l-0.2,0.2v3.9
					c0,0,3.7,0.1,4.9,3.4c0.2,0.7,0.2,0.8,0.2,0.8L462.3,116.6z"/>
				<path class="st86" d="M447.5,122.1c0.5,1.1,0.9,1.9,2.7,2.3c1.6,0.5,2.3-0.3,2.3-0.3"/>
				<path class="st20" d="M452.2,122.2c-0.7-1-2.4-2.1-4-2.1c-0.3,0-0.6,0.1-0.9,0.2c-0.1,0.2-0.3,0.8,0.1,1.7
					c0.5,1.1,0.9,1.9,2.7,2.3c1.6,0.5,2.3-0.3,2.3-0.3l0.2-0.2C452.8,123.2,452.6,122.7,452.2,122.2z"/>
				<path class="st13" d="M487.5,89.8L458.9,153c0,0-0.9,2.3,1,3.8c2.9,2.4,5.9,0.7,6.5,0c0.6-0.7,36.2-83.1,36.2-83.1L487.5,89.8z"
					/>
				<path class="st87" d="M505.7,70.6l-29.2,76.5c0,0-0.2,2,1.6,3.4c2,1.5,4.9,1.1,6.1-0.6C485.4,148.2,516,64,516,64v-4.5
					L505.7,70.6z"/>
				<path class="st88" d="M462.3,151.3c-1.6,0-2.8,0.8-3.6,2.1c-0.2,0.7-0.2,2.3,1.1,3.5c2.9,2.4,5.9,0.7,6.5,0c0,0,0.1-0.2,0.2-0.6
					c0-0.2,0.1-0.3,0.1-0.6C466.7,153.3,464.7,151.3,462.3,151.3z"/>
				<path class="st89" d="M480.2,144.8c-1.7,0-3.1,1-3.8,2.5c0,0.6,0.1,2.1,1.6,3.2c2,1.5,4.9,1.1,6.1-0.6c0.1-0.1,0.2-0.3,0.3-0.7
					C484.5,146.7,482.5,144.8,480.2,144.8z"/>
				<path class="st90" d="M478.6,147.7c0.1-0.5,1-0.7,2-0.5c1,0.2,1.7,0.9,1.6,1.4c-0.1,0.5-1,0.7-2,0.5S478.5,148.2,478.6,147.7z"
					/>
				<path class="st13" d="M460.8,154.3c0.1-0.5,1-0.7,2-0.5c1,0.2,1.7,0.9,1.6,1.4c-0.1,0.5-1,0.7-2,0.5S460.7,154.9,460.8,154.3z"
					/>
				<path class="st80" d="M501.5,193.7c0,0-4.3,0.9-4.9,6c-1,8.3,3.8,13.6,7.3,12.3C506.3,211.2,497.3,199.9,501.5,193.7z"/>
				<path class="st91" d="M479.9,83.7c12.1-12.5,22.4-22.1,23-21.5c0.6,0.6-8.7,11.3-20.8,23.7c-12.1,12.5-22.4,22.1-23,21.5
					C458.5,106.8,467.8,96.1,479.9,83.7z"/>
				<path class="st92" d="M476.4,118c7.2-16,13.7-28.7,14.5-28.3c0.8,0.4-4.4,13.7-11.7,29.7s-13.7,28.7-14.5,28.3
					C463.9,147.2,469.1,134,476.4,118z"/>
				<path class="st93" d="M488.7,119.8c4.6-12.6,8.6-22.6,9-22.5c0.4,0.1-3.1,10.4-7.7,23c-4.6,12.6-8.6,22.6-9,22.5
					C480.7,142.6,484.1,132.3,488.7,119.8z"/>
				<path class="st94" d="M507.7,16.5c0-0.5,0-0.7,0-0.7s-4.8-3.9-17.6-1.9c-5.8,0.9-12.3,3.5-14,6.7c1.9,1.4,4.5,2.7,7.4,3.3
					c5.3,1,14-0.5,17.7-2.3C504.1,20.3,506.4,18,507.7,16.5z"/>
				<ellipse class="st95" cx="486.1" cy="21.6" rx="6.9" ry="2.3"/>
				<path class="st78" d="M427.6,55c0,0-1.7,2.4-0.5,3.6C428.5,59.9,430.7,60.1,427.6,55z"/>
			</g>
		</g>
		<g>
			<g id="_6">
				<path class="st96" d="M87.3,268.4c-1.8-0.9-3.1,5.4-3.9,7.4c-1.9,5.2-3.5,6.2-6,11l3.7,3.8l4.8-2.7
					C88,284,89.5,269.5,87.3,268.4z"/>
			</g>
			<g>
				<g>
					<path class="st97" d="M-48.2,335.8c13.1,1.5,20.9,12.3,27.7,22.4c0.3,0.6,1.4,0,1-0.6c-7-10.4-15.2-21.5-28.7-22.9
						C-48.9,334.6-48.9,335.8-48.2,335.8L-48.2,335.8z"/>
				</g>
				<g>
					<path class="st97" d="M-47.9,340.6c8-0.5,14.7,8.1,16.8,14.9c0.2,0.7,1.2,0.3,1-0.2c-2.3-7.4-9.3-16.3-17.9-15.7
						C-48.7,339.6-48.7,340.6-47.9,340.6L-47.9,340.6z"/>
				</g>
				<g>
					<path class="st4" d="M9,311.9c-1.1-4.3-8-6.1-11.2-8.5c-2.3-1.6-4.2-3.9-5.6-6.4c-1.4-4-1.4-8.4,0.2-12.3c0.3-1,0.8-1.9,1-2.8
						c0.2-0.9,0.1-1.7-0.2-2.5c-0.5-1-0.5-1.2-0.3-2.5c0.1-2-2.7-3.3-4.1-1.7c-0.6,0.6-1,1.4-1.5,1.9c-1.4,0.5-2.6,1.4-3.2,3
						c-0.1,0.2-0.2,0.5-0.2,0.6c-0.8-0.2-1.8-0.1-2.5,0.6c-4.7,4.1-3.6,10.2-0.9,15.6c0.5,4,2.6,7.8,4.2,11.4c1,2.3,2.9,2.8,4.7,2.4
						l0,0c1.2,1.5,2.6,2.7,3.6,4.4c1.1,1.8,2.9,2.4,4.6,2.1c1.5,0.8,2.8,1.5,4.4,1.6C5.7,319.6,10.2,316.3,9,311.9z"/>
					<path class="st4" d="M-18.8,332.8c-2.7,4.5-10.6-4.4-12.5-6c-2.3-1.7-4.7-3-7.6-3.2c-4.7-0.2-8.5,2.7-8.9,7.5
						c-0.2,2.8,4.2,2.8,4.4,0c0.7-6.7,9.3-0.9,11.2,0.8c2.3,1.9,4.2,4.1,6.9,5.4c3.8,1.9,8.1,1.6,10.4-2.3
						C-13.5,332.6-17.4,330.4-18.8,332.8z"/>
					<path class="st4" d="M106.4,359.7c-1.9-6-5-11.4-8.6-16.4c-1-1.9-2.3-3.5-3.6-5.2c5.2-1.5,9.8-6.2,10.1-11.5
						c0-1.4-1.5-2.7-2.8-2.1l0,0c-2.7-0.7-5.8,0.3-8.6,2.1c-2,0.9-3.9,2.1-5.5,3.8c-0.5-0.5-0.8-0.9-1.2-1.2
						c-1.5-1.6-3.1-3.2-4.7-4.7c0.6-0.1,1-0.2,1.5-0.5c2.4,1.1,5.9-0.9,7.9-2c2.8-1.6,5.2-3.7,7.2-6.1c1.1-0.9,2.3-1.9,3.3-2.9
						c1.5-1.5,0.3-3.7-1.6-3.8c-0.3,0-0.6,0-0.9,0c-1.4-1-3.3-0.5-4.8,0.3c-6,1-11.4,4.1-15.4,8.9c-0.6-0.2-1.4,0-1.9,0.7
						c-0.2,0.2-0.2,0.5-0.5,0.6c-2.3-2.1-4.6-4.3-6.9-6.3c0.7-1,1.5-2.3,2-3.4c2.4-2.4,4.9-4.6,6.9-7.5c3.5-5.1,6.2-7.7,8.1-15.1
						c-2.4,1.4-3.6,2.1-5.3,2.9c-1.7-1.2-2-4.3-3.4-1.5c-2,2.4-3.8,9.2-6.4,11.3c-1-0.3-4.3-1-4.9,0.3c-0.3,1-0.2,2.3-0.7,3.2
						c-1.1,1.5-0.7,3.8-1,5.8c-2.1-1.8-4.2-3.5-6.3-5.2c-9.4-7.6-19.3-14.7-29.6-21C18.7,276.9,8.2,270-3.5,267.5
						c-2.7-0.6-4,3.6-1.1,4.3c11.1,2.4,21.1,8.9,30.6,14.8c9.8,6,19.1,12.7,28.1,19.8c2.8,2.3,5.7,4.6,8.5,7
						c-0.6,0.8-1.1,1.7-1.6,2.7c-0.9,1.8,0.8,4,2.7,3.2c-0.2,2.4-0.5,4.7-0.8,7.1c-0.5,2.7,3.4,3.9,4.3,1.1c0.6-1.7,0.9-3.3,1-5
						c3.7,6.1,8.9,11.2,14,16.3c-0.2,0.6-0.2,1.1,0.2,1.8c0.7,1.2,1.5,2.6,2,3.8c0.8,4,2.3,7.7,4.2,11.4c1,2,4,1,4.1-1
						c1,1.4,2.1,2.6,3.2,3.9c0.7,0.8,1.9,0.8,2.7,0.2c0.6,0,1.1-0.2,1.6-0.6c0.7,1,1.5,2.1,2.3,3.2
						C103.7,363.5,107.3,362.3,106.4,359.7z"/>
					<path class="st98" d="M-24.2,337.9c0,0,4.7,13.5,5.2,13.9c0.3,0.5,9-1.2,17.6-4.1s13.6-6,13.9-6.8c0.5-0.8-4.3-13.6-4.8-14
						c-1.6-1.5-11.8,0.1-17.6,1.9C-16.3,330.9-24,335-24.2,337.9z"/>
					<path class="st98" d="M-24.2,337.8c0,0,0.3,3.1,15.8-1.2c10.5-2.9,14.8-6,16.1-8.4c0.6-1.1-0.2-1.4-0.2-1.6
						c-0.5-0.6-6.6-0.8-14.7,1.4c-6.4,1.7-7.9,2.8-9.8,3.6C-18.8,332.5-24.5,335.8-24.2,337.8z"/>
					<path class="st99" d="M82.7,335.2c-9.9-13.1-32.2-34.5-49.9-47.5c-13.6-10.1-26.6-16.4-43.2-20.9c-16.4-4.4-23.9,0.3-26.9,9.3
						c-3.1,9.3,2,23.4,5.6,29.7c3.5,6.4,10.5,15.3,8.9,21.4c-1.7,6.9-9.6,0.7-16.5-1.9c-6.9-2.5-10.2,0.6-11.1,9.3
						c-1,9.8,5.8,20,5.8,20H95.5C95.7,354.7,92.6,348.3,82.7,335.2z M4.1,309.4c-4.4,0.7-12.1-1.9-18-10.1
						c-6.4-8.9-2.8-13.9-2.8-13.9c9.7-10.4,26.6,7.7,26.7,16.3C9.9,306,8.6,308.8,4.1,309.4z"/>
					<path class="st100" d="M81.3,338.1c-9.9-13.1-30-32.7-48.8-47c-14.4-10.9-20.9-14.9-39.3-21c-16.2-5.2-24.6-3.3-27.6,5.6
						c-3.1,9.3,0.3,25.4,3.9,31.8c3.5,6.4,10.5,15.3,8.9,21.4c-1.7,6.9-10.3-1.9-17.5-3.6c-7.2-1.8-9.3,3.4-9,11.5
						c0.2,9.8,4.7,19.6,4.7,19.6l135.6-1.4C92,355.1,91.2,351.3,81.3,338.1z M5.1,311.3c-4.4,0.7-12.1-1.9-18-10.1
						c-6.4-8.9-2.8-13.9-2.8-13.9C-6,276.9,10.9,295,11,303.6C10.9,308,9.5,310.5,5.1,311.3z"/>
					<path class="st101" d="M78.1,318.2c-0.6-1,7.7-21.4,9.2-20.6c1,0.6,0.2,3.5,0.9,2.3c0.5-0.9,1.6-1.9,2.9-0.9
						c1.5,1,0.2,2.7,0.9,2.1s2-1.6,2.1-0.8c0.1,0.9-0.6,1.6,0,1.2c0.8-0.6,1.7-0.5,1.8,0.6c0.1,1,0.7,0.2,1.9,2.3
						c1.1,2.1,1.1,4.9,0.6,5.3c-0.6,0.6,3.3-0.3-3.5,2.8c-0.6,0.3-13,6.1-14.9,6.2C78,319,78.1,318.2,78.1,318.2z"/>
					<polygon class="st102" points="43.6,355 65.6,340.8 68.4,341.7 69,343 54,354.5 					"/>
					<path class="st59" d="M65,340.4c0,0-0.2,1.6,1,2.8c1.1,1.1,2.3,1,2.3,1l13-10.6l-1.4-1.8L65,340.4z"/>
					<path class="st103" d="M80,332.6c0,0-0.6-1.9,2.8-5.7c3.4-3.8,8.6-7.4,11.4-7.1c2.7,0.2,2.3,1,2.9,0.9c0.6-0.2,1-0.2,1.4,0.1
						c0.2,0.3,1.6-0.6,1.1,0.6c-0.5,1,2.6-2.3,0.5,1.8c-1.9,3.7-6,8-13.4,10.1c-3.3,0.9-5.4,0.6-6,0.2C80,333.1,80,332.6,80,332.6z"
						/>
					<path class="st104" d="M80.6,333.4c0.6,0.2,2.7,0.6,6-0.2c7.5-2,11.4-6.4,13.4-10.1c2.1-4.1-0.9-0.8-0.5-1.8
						c0.3-1-0.7-0.2-1-0.5c-1.5,1.7-4.7,5.2-8.1,7.5c-4,2.7-10.4,4.4-10.4,4.4L80.6,333.4C80.5,333.3,80.5,333.3,80.6,333.4z"/>
					<path class="st105" d="M98.4,309.9c0.6-0.6,0.6-3.3-0.6-5.3c-1-1.9-1.7-1.4-1.9-2c-1.5,1.5-2.7,4.4-4,5.9
						c-3.5,3.6-0.7-1.5-2.3-0.3c-2.5,1.9-6.3,6-11.2,10.9c0.2,0.1,0.7,0.2,1.5,0.2c1.9-0.1,14.3-5.9,14.9-6.2
						C101.7,309.4,97.8,310.4,98.4,309.9z"/>
					<path class="st98" d="M62.5,291.7c-0.6,5.9,0,8.9,0.6,9.4"/>
					<g>
						<path class="st97" d="M-22.1,268.5c3.5,5.1,7.8,11.6,14.4,12.7c5.9,1,7.1-5.2,5.8-9.6c-0.2-0.7-1.2-0.3-1,0.2
							c1.1,3.8,1,9.4-5.7,7.9c-2-0.5-4.3-2.1-5.8-3.5c-2.7-2.4-4.7-5.4-6.7-8.4C-21.6,267.3-22.6,267.9-22.1,268.5L-22.1,268.5z"/>
					</g>
					<g>
						<path class="st97" d="M-35.8,278.9c1.5,12.5,12,21.4,19.9,30.4c2.5,2.8,5,5.8,7.5,8.6c2.6,3,6,6.2,7.1,10.2
							c1.5,5.7-3.5,11.1-9.2,11.1c-4.5,0-8.4-3-10.6-6.9c-0.3-0.6-1.4-0.1-1,0.6c2.9,5.1,8.8,8.8,14.7,6.9c5.6-1.8,8.8-7.8,6.6-13.3
							c-1.4-3.3-4.2-6-6.4-8.7c-3.5-4-6.9-8-10.3-11.9c-7-8-15.9-15.8-17.2-26.9C-34.9,278.2-35.9,278.2-35.8,278.9L-35.8,278.9z"/>
					</g>
					<g>
						<path class="st97" d="M-34.5,296c3.5,5,7.7,9.5,11.6,14c2.4,2.7,4.7,5.5,6.8,8.6c0.8,1.1,1.5,2.3,2.1,3.5
							c0.5,0.8,0.8,1.6,1.2,2.5c-1,3.4-2.5,4.4-4.6,3.2c-0.6-0.2-1,0.8-0.2,1c2,0.8,5.1,1.7,6.4-0.7c1.5-2.7-2.3-7.5-3.5-9.5
							c-5.4-8.5-13.1-15.1-18.8-23.3C-34,294.9-35,295.4-34.5,296L-34.5,296z"/>
					</g>
					<g>
						<path class="st97" d="M17.2,354.8c-2.1-4.8-4.4-11.4-3.5-16.7c0.2-1.9,1.6-4.1,3.6-4.7c0.7-0.2,1.9,0.2,2.7,0.2
							c1.5,0,2.8,0,4.3-0.2c5.9-1,11.5-4.7,14.2-10.2c2.3-4.7,1.4-9.3,0.1-14.2c-1.6-6.1-3.8-12-5.7-18c-0.2-0.7-1.2-0.3-1,0.2
							c3.8,12.1,13.4,29.4-0.8,38.2c-3.8,2.3-7.8,2.9-12.2,2.7c-1.9-0.1-4.3-0.3-5.6,1.5c-1.7,2.4-0.8,7.2-0.6,9.8
							c0.6,4.1,1.7,7.9,3.4,11.8C16.5,356,17.4,355.3,17.2,354.8L17.2,354.8z"/>
					</g>
					<g>
						<path class="st97" d="M25,354.9c-1.1-2.3-1.8-4.6-1.6-7.1c0.2-2.7,1.1-6.9,4.6-5.8c0.7,0.2,1-0.9,0.2-1
							c-3.2-1-4.5,0.8-5.5,3.8c-1.1,3.6-0.6,7.4,1.1,10.6C24.4,356.1,25.4,355.4,25,354.9L25,354.9z"/>
					</g>
					<g>
						<path class="st97" d="M27.8,303.3c1.6,3.7,2.7,7.7,2.5,11.8c-0.1,2-0.3,4.3-1.5,6c-1.6,2.5-5.5,3.6-8.1,1.9
							c-3.7-2.5-5.2-7.4-4.9-11.6c0.1-1.8,0.6-3.5,1.2-5.2c0.5-1.1,1-2.3,1.9-3.2c1.9-2.5,4.4-2.3,7.2,0.9c0.1,0.7,1.1,0.5,1-0.2
							c-1-5.6-7.2-3.8-9.8-0.5c-3.8,5.2-3.7,13.4,0.2,18.5c2.8,3.7,8.3,4.9,11.5,1c4.4-5.2,2-14.4-0.3-19.9
							C28.5,302.2,27.6,302.7,27.8,303.3L27.8,303.3z"/>
					</g>
					<g>
						<path class="st97" d="M67.7,353.7c2.3-4.5,5.4-8.5,11.2-6.9c4.1,1,6.9,4.5,9.5,7.6c0.5,0.6,1.2-0.2,0.8-0.8
							c-3.3-3.9-7.2-8.3-12.8-8.3c-5,0-7.7,3.8-9.7,7.8C66.5,353.7,67.4,354.3,67.7,353.7L67.7,353.7z"/>
					</g>
					<g>
						<path class="st97" d="M73.1,353c3.2-2.4,7.9-1.7,10.2,1.6c0.5,0.6,1.4,0,1-0.6c-2.7-3.7-8.1-4.7-11.8-1.9
							C71.9,352.4,72.5,353.3,73.1,353L73.1,353z"/>
					</g>
					<path class="st106" d="M35.6,355c0,0,20.1-18.2,21.7-19.9c1.7-1.9,6.4,2.3,5.9,3c-0.3,0.6-16.8,17.9-16.8,17.9L35.6,355z"/>
					<path class="st107" d="M42,331c0,0-9.5,15.6-12.4,23.5c-2.9,7.9,11.8,2.5,11.8,2.5s7-11.5,11.3-22.7
						C54,330.5,43.9,327.7,42,331z"/>
					<path class="st59" d="M41.2,330.7c0,0-0.9,2.8,4.6,5.2c3.5,1.5,6,1,6.6,0.6c0.6-0.5,14.4-33,14.4-33s-2.6-0.9-3.7-2.1
						C62.3,300.4,41.2,329.7,41.2,330.7z"/>
					<path class="st59" d="M78.3,317.2c-0.5,0.8-21.8,17.6-21.8,17.6s-0.8,1.5,0.7,3.1c1.5,1.5,3.6,2.7,4.6,1.9
						c4.1-3.3,18.5-21.1,18.5-21.1L78.3,317.2z"/>
					<path class="st108" d="M46.4,324c-0.2-0.2-0.2-0.2-0.3-0.5c-0.7,1-1.4,1.9-1.9,2.7c0.6,0.8,1.4,1.6,2.4,2.4
						c3,2.3,6.6,2.4,8.5,2.3c0.5-1,1-2.3,1.5-3.4C54.3,327.7,49.4,327.1,46.4,324z"/>
					<path class="st108" d="M45.5,330c-1-0.6-1.9-1.5-2.5-2.1c-1.1,1.6-1.9,2.7-1.9,2.9l0,0c1.2,1.4,2.8,2.8,4.9,3.8
						c2,1,4.6,1.4,6.7,1.2c0.3-0.6,0.9-1.9,1.6-3.5C52.2,332.4,48.6,331.9,45.5,330z"/>
					<path class="st108" d="M60.6,331.7c-0.6,0.6-1.1,1-1.7,1.4c0.2,0.7,0.6,1.5,0.9,1.9c0.7,0.8,1.9,2.1,3.8,2.4
						c0.3,0.1,0.6,0.1,0.9,0.1c0.6-0.6,0.9-1,1.5-1.6C63.8,336.1,61.1,334.8,60.6,331.7z"/>
					<path class="st108" d="M58,333.7c-0.6,0.5-1,0.8-1.2,1c0.2,0.8,0.6,1.6,1,2.3c1.6,2.1,3.2,2.5,4.5,2.7c0.5-0.3,0.9-0.8,1.5-1.5
						C58.8,337.8,58.3,334.2,58,333.7z"/>
					<path class="st108" d="M69,340.6c-0.6-0.6-0.8-1.4-0.8-2l-0.8,0.5c0,0.5,0.1,1,0.3,1.5c0.6,1.5,1.9,1.9,2.7,1.9l0.8-0.7
						C70.6,341.8,69.7,341.4,69,340.6z"/>
					<path class="st108" d="M68.7,343.9l0.9-0.7c-1.5-0.5-3.1-1.9-2.8-3.6l-0.9,0.6C65.7,341.1,65.8,342.9,68.7,343.9z"/>
					<path class="st109" d="M62.2,304.3c0,0-16,18.2-14.5,19.3C50.2,325.4,66.8,301,62.2,304.3z"/>
					<path class="st109" d="M76.1,320c0,0-15.4,12.2-14.1,13.1C63.9,334.8,80.4,318,76.1,320z"/>
					<path class="st109" d="M78.4,333.1c0,0-10.3,5.5-9.7,6.2C69.7,340.4,81.1,332.4,78.4,333.1z"/>
					<path class="st110" d="M41,336.1c0,0-11.8,17.6-10.6,18.8C32.2,356.7,44.4,332.9,41,336.1z"/>
					<path class="st111" d="M55.2,338.7c0,0-8.1,7-7.9,7.7C47.6,347.5,57.2,337.6,55.2,338.7z"/>
					
						<ellipse transform="matrix(0.6414 -0.7672 0.7672 0.6414 -233.5583 152.8826)" class="st109" cx="46.8" cy="326.3" rx="1.1" ry="2"/>
					
						<ellipse transform="matrix(0.6414 -0.7672 0.7672 0.6414 -237.5968 152.3367)" class="st109" cx="44.2" cy="330.3" rx="1.1" ry="2"/>
					
						<ellipse transform="matrix(0.8454 -0.5342 0.5342 0.8454 -168.8996 83.8851)" class="st109" cx="60.4" cy="333.7" rx="0.6" ry="1.2"/>
					
						<ellipse transform="matrix(0.8453 -0.5342 0.5342 0.8453 -170.36 82.9053)" class="st109" cx="58" cy="335.7" rx="0.6" ry="1.1"/>
					<g>
						<path class="st97" d="M-31.7,270.4c-1,4.1,0.2,8.1,3.5,10.9c1.5,1.2,3.2,1.8,5,2.4c2.9,0.9,4.6,2.8,6,5.5
							c0.3,0.6,1.4,0.1,1-0.6c-1.1-2.3-2.8-4.6-5.2-5.6s-4.4-1.1-6.4-2.9c-2.7-2.4-3.5-6-2.7-9.4C-30.4,270.1-31.5,269.8-31.7,270.4
							L-31.7,270.4z"/>
					</g>
					<g>
						<path class="st97" d="M1.7,274.4c0.6,8.1,3.3,16.5,11.6,19.8c5.4,2.1,12.1-1,14.2-6.3c0.2-0.6-0.8-1-1-0.2
							c-2.7,6.7-10.7,7.5-16,3.5c-5.6-4.2-7.2-10.2-7.7-16.8C2.8,273.7,1.7,273.7,1.7,274.4L1.7,274.4z"/>
					</g>
					<path class="st112" d="M83,261.3c0.2-1-3,6.3-9,12.4c-6.1,6.1-10.9,12.1-11.4,18c-0.6,5.9,0,8.9,0.6,9.4s-0.6,1.5,1,1.5
						c1.6,0.1-1.4,3.7,9.5-4.3c6-4.4,8.9-13.8,9.8-23.2C83.8,269.8,82.9,262.7,83,261.3z"/>
					<path class="st105" d="M83,261.3C83,261.1,83,261.1,83,261.3c-0.3,3.2-0.6,10.7-4.4,17.5c-5.3,9.4-11.2,11-13.9,18.9
						c-0.7,2-0.9,3.5-0.5,5.1c1.2,0.2-1,3.5,9.4-4.4c6-4.4,8.9-13.8,9.8-23.2C83.8,269.8,82.9,262.7,83,261.3z"/>
				</g>
			</g>
		</g>
	</g>
</g>
</svg>
