<?xml version="1.0" encoding="utf-8"?>
<!-- Generator: Adobe Illustrator 19.2.0, SVG Export Plug-In . SVG Version: 6.00 Build 0)  -->
<svg version="1.1" id="Layer_1" xmlns="http://www.w3.org/2000/svg" xmlns:xlink="http://www.w3.org/1999/xlink" x="0px" y="0px"
	 viewBox="0 0 511.5 351.8" style="enable-background:new 0 0 511.5 351.8;" xml:space="preserve">
<style type="text/css">
	.st0{fill:url(#SVGID_1_);}
	.st1{fill:url(#SVGID_2_);}
	.st2{fill:#DBD9D9;}
	.st3{clip-path:url(#SVGID_4_);}
	.st4{fill:#007575;}
	.st5{fill:#F9B217;}
	.st6{fill:#C29000;}
	.st7{fill:#FAD404;}
	.st8{fill:#E3ECEE;}
	.st9{fill:#F5E7CA;}
	.st10{fill:#EE4358;}
	.st11{fill:#B91F5E;}
	.st12{fill:#EFF6E4;}
	.st13{fill:#5FC1C9;}
	.st14{fill:#EE3D52;}
	.st15{fill:#ACDEEA;}
	.st16{fill:#525453;}
	.st17{fill:#14576D;}
	.st18{fill:#BBB433;}
	.st19{fill:#D7C5AE;}
	.st20{fill:#BDA030;}
	.st21{fill:#9B1C2A;}
	.st22{fill:#2AB3BB;}
	.st23{fill:#414242;}
	.st24{fill:#0F4656;}
	.st25{fill:#888032;}
	.st26{fill:#157198;}
	.st27{fill:none;stroke:#231F20;stroke-width:0.2756;stroke-miterlimit:10;}
	.st28{fill:#CE2447;}
	.st29{fill:#F8E68E;}
	.st30{fill:#FDCD0B;}
	.st31{fill:#DFAA25;}
	.st32{fill:#F7E0B8;}
	.st33{fill:#EF5577;}
	.st34{fill:#ABABAB;}
	.st35{fill:#BFA066;}
	.st36{fill:#E5C180;}
	.st37{fill:#783E2F;}
	.st38{fill:#D44B68;}
	.st39{fill:#ACACAC;}
	.st40{fill:#AC6D49;}
	.st41{fill:#894A28;}
	.st42{fill:#573019;}
	.st43{fill:#676267;}
	.st44{fill:#D2C8C8;}
	.st45{fill:#EE3C52;}
	.st46{fill:#14B9C6;}
	.st47{fill:#F7BAC9;}
	.st48{fill:#A3DCEC;}
	.st49{fill:#F5BC75;}
	.st50{fill:#D28E55;}
	.st51{fill:#B9B9BA;}
	.st52{fill:#D5D5D4;}
	.st53{fill:#9C1C2C;}
	.st54{fill:#B7E3F3;}
	.st55{fill:#40B8E9;}
	.st56{fill:none;}
	.st57{fill:#62C7D1;}
	.st58{fill:#54ABB5;}
	.st59{fill:#9A9234;}
	.st60{fill:#D8AA29;}
	.st61{fill:#D92E5C;}
	.st62{fill:#5E5E5E;}
	.st63{fill:#5C5D5D;}
	.st64{fill:#7A712E;}
	.st65{fill:#B88B2D;}
	.st66{fill:#AADEE9;}
	.st67{fill:#C29C2E;}
	.st68{fill:#E39000;}
	.st69{fill:#DD6427;}
	.st70{fill:#F6E4A4;}
	.st71{fill:#E8C96A;}
	.st72{fill:#DD9727;}
	.st73{fill:#BBB200;}
	.st74{fill:#928C34;}
	.st75{fill:#C29102;}
	.st76{fill:#F1E6B5;}
	.st77{fill:#087780;}
	.st78{fill:#D59529;}
	.st79{fill:#727989;}
	.st80{fill:#EEE7C9;}
	.st81{fill:#F7B15D;}
	.st82{fill:#64B8E2;}
	.st83{fill:#DFBE85;}
	.st84{fill:#DCC198;}
	.st85{fill:#D1CDD1;}
	.st86{fill:#F8BDCD;}
	.st87{fill:#6F3D1B;}
	.st88{fill:#FFD163;}
	.st89{fill:#F8E8B6;}
	.st90{fill:#FD840B;}
	.st91{fill:#E95A7A;}
	.st92{fill:#F6B3C6;}
	.st93{fill:#CB862A;}
	.st94{fill:#D31F3C;}
	.st95{fill:#019598;}
	.st96{fill:#F38BA6;}
	.st97{fill:#DFDBD5;}
	.st98{fill:#FCF6F0;}
	.st99{fill:#E2F2F5;}
	.st100{fill:#FFF7EF;}
	.st101{fill:#489299;}
	.st102{fill:#F7F5C3;}
	.st103{fill:#ED3E74;}
	.st104{fill:#DCAB27;}
	.st105{fill:#9C9534;}
	.st106{fill:#E0D560;}
	.st107{fill:#F8DD84;}
	.st108{fill:#F7BACB;}
</style>
<g id="_3">
	
		<linearGradient id="SVGID_1_" gradientUnits="userSpaceOnUse" x1="0" y1="175.8" x2="511.5" y2="175.8" gradientTransform="matrix(1 0 0 -1 0 351.7)">
		<stop  offset="1.270012e-03" style="stop-color:#4BFFDA"/>
		<stop  offset="0.1778" style="stop-color:#4BC7FD"/>
		<stop  offset="0.8682" style="stop-color:#9586FF"/>
		<stop  offset="1" style="stop-color:#9844FF"/>
	</linearGradient>
	<rect y="0" class="st0" width="511.5" height="351.8"/>
	
		<linearGradient id="SVGID_2_" gradientUnits="userSpaceOnUse" x1="0" y1="175.8" x2="511.5" y2="175.8" gradientTransform="matrix(1 0 0 -1 0 351.7)">
		<stop  offset="1.270012e-03" style="stop-color:#4BFFDA"/>
		<stop  offset="0.1778" style="stop-color:#4BC7FD"/>
		<stop  offset="0.6795" style="stop-color:#0086FF"/>
		<stop  offset="0.828" style="stop-color:#456DFF"/>
		<stop  offset="0.9427" style="stop-color:#735CFF"/>
		<stop  offset="1" style="stop-color:#8555FF"/>
	</linearGradient>
	<rect y="0" class="st1" width="511.5" height="351.8"/>
</g>
<g id="_6">
	<path class="st2" d="M171.4,251.9c-2.2-1.1-3.9,6.7-4.8,9.2c-2.3,6.4-4.3,7.7-7.5,13.6l4.6,4.7l6-3.3
		C172.2,271.2,174.1,253.3,171.4,251.9z"/>
</g>
<g id="Layer_9">
	<g id="_1">
		<g>
			<g>
				<defs>
					<rect id="SVGID_3_" x="-26.2" y="-18" width="563.9" height="387.9"/>
				</defs>
				<clipPath id="SVGID_4_">
					<use xlink:href="#SVGID_3_"  style="overflow:visible;"/>
				</clipPath>
				<g class="st3">
					<g>
						<g>
							<path class="st4" d="M416.7,286.7c17.4-4.5,35.8,1.9,53.8,1.3"/>
						</g>
						<path class="st4" d="M539.1,145.6L539.1,145.6c-1.1-0.4-2.3-0.4-3.4,0.4c-5.3,4.5-9.5,9.8-12.7,16c-0.7,0.8-1.4,1.7-2.1,2.4
							c-0.4,0.6-0.7,1.2-0.7,1.9c-8.3,9.2-16.8,18.2-25.5,27c-3.2,2.9-6.3,5.8-9,9.2c-1.3,1.5-0.7,3.3,0.6,4.2
							c-3.4,2.8-6.8,5.4-10.4,7.9c-2.9,2.1-0.1,6.8,2.8,4.7c21.1-15.1,39.6-34.4,58.7-51.8c0.7-0.7,0.9-1.3,0.8-2.1l0.1-0.1l0,0l0,0
							c0.2-0.1,0.3-0.3,0.6-0.4c1.8-1.3,0.9-3.2-0.6-4.1c0.3-0.3,0.7-0.6,0.9-0.9c1.8-1.7,0.7-3.7-1.1-4.4c1.7-2,3.3-4,5-6.1
							C545.3,146.7,541.9,143.2,539.1,145.6z"/>
						<path class="st4" d="M542.7,63.2c0.1-0.4,0.2-0.9,0.2-1.2c0.2-1.8-1.3-4-3.2-3.5c-1.4-0.7-3.3-0.2-4,1.7
							c-0.6,1.7-1.1,3.3-1.7,5.1c-0.4,1.2,0,2.1,0.8,2.8c-0.2,0.2-0.4,0.6-0.7,1c-6,13.8-11.9,27.5-18,41.2c-0.8,1.7,0,3.2,1.2,3.7
							c-1.7,3.2-3.3,6.5-5.1,9.7c-0.1,0.1-0.2,0.2-0.3,0.4c-1.9,2.3-3.7,4.7-5.5,7.1c-0.6,0.7-0.7,1.5-0.7,2.2
							c-0.8,1.3-1.5,2.6-2.3,4c2.1-10.1,5.2-20,9.3-29.5c5.6-13.5,14.6-25.8,16.5-40.6c0.3-2.8-3.6-5.3-5.1-2.1
							c-3.4,7.5-6.8,15-10.1,22.5c-0.6-1.5-2.3-2.5-4.1-1.5c-0.9-0.7-2.3-0.8-3.5,0.2c-1.2,1-2.5,2-3.7,3c-0.3,0.1-0.7,0.2-1,0.4
							c-0.2,0.1-0.3,0.3-0.6,0.4l0,0c-0.1,0.1-0.1,0.1-0.2,0.2c-14.9,11.5-28.6,24.3-40.9,38.3c-2.2,1.8-4.3,4-4.1,7.1
							c0,0.7,0.3,1.3,0.8,1.9c0.3,0.7,0.8,1.2,1.4,1.7c0.8,0.4,1.7,0.6,2.5,0.4c0.8,0.2,1.7,0.1,2.4-0.7c1.7-1.5,3.3-3.1,4.7-4.7
							c1.2-0.9,2.3-1.8,3.4-2.6c0.8,0.4,1.7,0.4,2.5,0c0.7-0.3,1.2-0.7,1.9-1c0.1,0,0.2-0.1,0.2-0.1c4.4-2.6,8.4-6.6,12.2-9.9
							c5.3-4.5,10.4-9.2,15.4-14c1.3-1.3,0.9-2.9-0.1-3.9c2.5-2.9,5.1-5.8,7.6-8.8c-12.6,27.8-25.5,55.5-41.7,81.4
							c-0.2,0.4-0.3,0.8-0.4,1.2c-1.3,1.9,0.2,5.2,2.9,4.3c11.6-3.6,15.4-18.7,19.8-28.7c1.8-4,3.6-8,5.4-12
							c-1,5.1-1.8,10.3-2.3,15.5c-0.2,2.1,1.9,2.9,3.5,2.5c-1.7,2.4-3.4,4.9-5.2,7.3c-2.1,2.9,2.6,5.6,4.7,2.8
							c11.7-16.2,21.9-33.3,30.5-51.3c4.7-6.8,9.3-13.8,12.2-21.5c0.4-1.2-0.2-2.3-1.2-3c0.7-0.9,1.4-1.9,2.1-2.8
							c1.4-1.9-0.7-4.2-2.6-4.2c0.1-0.2,0.2-0.4,0.3-0.7c0.6-1,0.4-2,0-2.8c1.1-5.6,2.1-11.2,3-16.9C543,64.3,542.9,63.7,542.7,63.2
							z M501.9,147.1c0.1-0.6,0.2-1.1,0.2-1.7c0.2,0.1,0.3,0.2,0.6,0.2C502.4,146.1,502.2,146.7,501.9,147.1z"/>
						<path class="st4" d="M536.5,47c-1.4-0.1-2.9-0.1-4.2,0c-0.6-0.4-1.4-0.8-2.3-0.4c-1.8,0.4-3.4,0.9-5.2,1.4
							c-0.8,0.1-1.5,0.3-2.4,0.7c-0.1,0-0.2,0.1-0.3,0.1c-2.6,0.8-5.2,1.9-7.7,3.2c-0.1,0.1-0.3,0.2-0.4,0.2
							c-10.7,0.6-20.9,3.3-30.5,8.2c-0.2,0.1-0.4,0.2-0.6,0.4c-8.5,2.4-16.2,6.3-23.4,11.4l-9.9,4.9c-0.4,0.1-0.8,0.1-1.2,0.2
							c-1.2,0.2-1.8,1-2,1.9c-0.1,0.2-0.2,0.3-0.2,0.6c0.1,0,0.1,0,0.2,0c0,1.5,1.4,3.3,3.4,2.9c10.3-1.8,20.2-4.7,29.8-8.7
							c0.4,0.1,1,0.1,1.5,0c15.7-4.5,31.3-9.2,46.9-13.9c2.3-0.7,2.3-3.4,1.1-4.7c2.6-0.9,5.4-1.9,8-2.8
							C540.3,51.3,539.7,47.2,536.5,47z"/>
						<path class="st4" d="M527-24.3c-0.2-0.1-0.3-0.1-0.6-0.2c-2.3-0.8-3.7,1.5-3.3,3.3c-0.6,0.4-1.7,1.1-3,1.8
							c0.7-2.1-1.4-4.5-4-3.3c-3.5,1.8-6.9,3.5-10.4,5.4c-0.1-1.5-1.3-2.9-3.3-2.4c-4.2,1-7.6,3-10.8,6c-0.2,0.2-0.4,0.4-0.6,0.8
							c-5.7,3.9-11.4,7.8-17,11.8c-5.4,3.9-10.1,7.7-10.9,14.6c-0.1,1,0.6,1.9,1.3,2.3c0,2.2-0.1,4.4-0.2,6.6
							c-0.1,1.9-0.3,3.9-0.7,5.7c-0.3,2.2-0.8,4.4-1.1,6.6c-0.1,0.4,0,0.8,0,1.2c-0.2,0.8-0.3,1.7-0.6,2.4c-1.5-2.4-3.1-4.9-4.6-7.4
							c0.1-0.2,0.3-0.6,0.4-0.8c1.3-2.4-1.3-5.2-3.7-3.7c-0.3,0.2-0.7,0.3-0.9,0.6c-0.7-1.1-2.2-1.8-3.7-1c-3.1,1.5-5.2,3.5-7.1,6.5
							c-0.3,0.6-0.4,1.1-0.4,1.5c-0.8,0.9-1.5,1.7-2.3,2.5c-1.5,1.8-0.6,3.9,1.1,4.4c-1.9,1.3-3.9,2.4-6,3.3c1.7-3,2.8-6.3,2.8-9.8
							c1.7-1.3,3.3-2.8,4.9-4.2c2.3-2.1-0.8-6.2-3.3-4.3c-2.6,2-5.4,4-8,6c-5.3,2.6-10,6.2-14.2,10.5c-0.1,0.2-0.3,0.3-0.4,0.6
							c-0.3,0.2-0.7,0.4-1,0.6c-3,1.9-0.2,6.6,2.8,4.7c4.3-2.6,8.6-5.5,12.7-8.6c-1.2,3-3.2,5.6-5.3,8.4c-1.5,2.1,1,4.5,3.1,4.1
							c10.1-2.3,19-7.9,25.2-16.1c2.3,3.6,4.5,7.3,6.8,10.9c1.2,1.9,4.5,1.8,5.1-0.7c2-8.9,3.7-18,5.1-27.1c1.4-3.6,3.6-6.9,6.2-9.9
							c2-1.3,4.1-2.6,6.1-4c7.3-3.7,14.6-7.6,21.9-11.4c5.4-2.9,10.9-5.6,16.3-8.5c3.1-1.7,7.4-2.9,7.3-7.2
							C529-22.9,528.2-23.9,527-24.3z"/>
						<path class="st4" d="M542.2,20.7c0.3-0.8,0.4-1.7,0-2.3c-0.2-0.8-0.6-1.3-1.1-1.7c-0.6-1.2-2-1.8-3.3-1.5
							c-1.4,0.2-3,0.6-4.4,1c-0.3-0.2-0.8-0.2-1.1-0.2c-0.9,0-1.7,0-2.5,0c-1.3,0-2.2,0.8-2.5,1.8c-0.3,0.1-0.7,0.2-1,0.3
							c-1.1,0.1-2.3,0.4-3.3,0.8c-0.8,0.2-1.3,0.8-1.7,1.4c-1.9,0.8-3.7,1.5-5.5,2.4c-3.6,1.7-8.2,3.3-11.1,6.2
							c-0.4,0.4-0.8,1.1-0.8,1.8c-0.2,0.1-0.3,0.1-0.6,0.2c-1.4-0.1-2.8-0.1-4.2-0.2c-2.3-0.1-3.7,3.2-2,4.7
							c0.6,0.4,1.2,0.9,1.9,1.2c0.3,0.9,1.2,1.4,2.4,1.3c6.5-0.6,13,0.1,19.5-1.2c6.3-1.3,12.1-4.2,17.3-8c1.1-0.8,1.5-2.2,1.2-3.3
							c0.2-0.4,0.4-0.8,0.7-1.2c0.1-0.3,0.2-0.7,0.3-1C541.4,22.3,542,21.7,542.2,20.7z"/>
						<path class="st4" d="M398.8-21.6c-0.1,0.1-0.1,0.2-0.2,0.2c-1-2-4.4-2.3-5.2,0.4c-2.3,8.3-4.7,16.4-7.1,24.7
							c-0.6,1.9,0.8,3.2,2.3,3.3c-1.7,5.6-3.5,11.8-6.8,16.1c-2.1,2.8,1.8,6.7,3.9,3.9c4.5-5.7,6.2-13.5,8.6-20.2
							c3-8.6,6.1-17.2,9-25.8C404.3-21.4,400.6-23.7,398.8-21.6z"/>
						<path class="st4" d="M377.4-20.2c-6.1,16.9-12.8,33.6-20,50.1c-1.4,3.2,3.3,6.1,4.7,2.8c5.2-11.8,10-23.6,14.7-35.6
							c0.1-0.1,0.2-0.3,0.3-0.6c2.2-3.7,3.7-7.6,4.6-11.9c0-0.1,0-0.3,0-0.4c0.3-1,0.6-1.9,0.9-2.9
							C383.8-22.2,378.6-23.4,377.4-20.2z"/>
						<path class="st4" d="M358.6-20.2c-2.3,4.1-4.6,8.2-6.8,12.3c-3.3,5.6-6.6,11.2-10.3,16.8c-0.9,1.3-0.4,2.5,0.4,3.3
							c-2.8,6.1-5.3,12.2-7.7,18.5c-1.3,3.3,4.1,4.7,5.3,1.4C344.3,19.3,350,7,356.4-5.1c2.3-4.1,4.6-8.2,6.8-12.3
							C365-20.6,360.3-23.3,358.6-20.2z"/>
						<path class="st4" d="M342.1-21.8c-11.7,18.1-23,36.3-34.2,54.7c-1.9,3.1,2.9,5.8,4.7,2.8c0.2-0.3,0.3-0.6,0.6-0.9
							c0.8-0.1,1.5-0.4,2.1-1.2c11.5-16.8,26-33.6,31.9-53.3C348.1-22.7,343.8-24.3,342.1-21.8z"/>
						<path class="st4" d="M333.4-21.4c0,0.7-0.1,1.2-0.2,1.8c-1-0.7-2.4-0.8-3.4,0.3c-2.6,2.6-5.4,5.1-8.2,7.4
							c-0.2,0-0.3,0.1-0.6,0.2c-13.7,6.2-27.3,12.3-40,20.5c-1.1,0.7-1.4,1.9-1.2,3c-1.3,0.7-2.8,1.4-4.1,2.1
							c-3.5,1.5-6.9,3.2-10.3,5.2c-1.7,1-1.7,2.6-0.8,3.9c-3,0.2-4.3-0.9-7.1-1.7c-5.4-1.5-13.5,7.3-16.6,10.8
							c-2.1,2.2,0.6,6,3.3,4.3c0.3-0.2,0.7-0.4,1-0.6c0.6,0,1.2-0.1,1.8-0.6c0.3-0.1,0.7-0.3,0.9-0.6c2.9-2.3,5.6-4.6,8.5-6.9
							c0.2-0.2,0.4-0.4,0.7-0.7c6.2,2.6,12.1,1.1,17.5-2.1c14-5.6,27.1-13.2,38.8-22.6c3-1.7,5.8-3.2,8.8-5
							c7.5-4.3,16.6-9,16.9-18.7C339-25,333.5-25,333.4-21.4z"/>
						<path class="st4" d="M218.4,4.1c0-0.1,0-0.1,0-0.2c0.1-0.9-0.6-2-1.3-2.4c-1.9-0.9-3.1-2.5-3.4-4.6c-0.6-3.5-5.8-2-5.3,1.4
							c0.4,3.1,2,5.4,4.4,7.1c0,0.1,0,0.2,0,0.3c-0.3-0.1-0.6-0.1-0.9-0.1c-0.7-0.3-1.4-0.4-2.2-0.2c-0.1,0-0.2,0.1-0.3,0.1
							c-2.4,0-4.7,0.6-7.2,1.5c-0.2,0.1-0.4,0.2-0.7,0.4c-5.8,1.4-11.7,2.8-17.5,3.9c0-0.9-0.4-1.9-1.3-2.2
							C177,6.4,171.1,6.2,165,6.6c-5.7,0.3-11.4,0.7-17.1,1.1c-0.7-0.9-1.9-1.5-3.1-1.3c-0.4,0.1-0.9,0.2-1.4,0.3
							c-0.8-0.8-1.9-1-3.1-0.2l-4.4,3c-1.9,1-3.6,2-5.3,3.3c-2,1.5-1.5,5.2,1.4,5.2c4.3-0.1,8.6-0.2,12.9-0.4c0.4,0.6,1.1,1,1.9,1.1
							c19.4,2.4,38.4-1.4,57.1-6.2c0.4,0.2,1,0.3,1.4,0.4c0.3,0.3,0.7,0.6,1.2,0.7c5.5,1.4,10.6,0.9,15.8-1.4
							c0.9-0.4,1.3-1.4,1.3-2.4C223.9,6,221.4,4.5,218.4,4.1z"/>
						<path class="st4" d="M135.7,33.9c-8.2,2-16.8,0-25-0.6C105.4,33,100.2,33,95,33.1c1.7-1.4,3-3,3.2-4.6c0.6-4-4.4-6.5-6.7-8.9
							c-0.2-0.2-0.6-0.6-0.8-0.9c-1.7-2.9-3.9-5.3-5.6-8.2c-1.7-2.6-2.9-5.4-4-8.3c-0.6-2.5-1-5.1-2.4-6.9C76.9-7,73.5-4.5,74-2
							c0.1,0.3,0.2,0.7,0.2,1c-0.4,5.6,5.1,14.2,7.9,18.1c1.2,1.8,2.6,3.4,4.1,5c0,0.1,0.1,0.2,0.2,0.3c-1.7,0-3.3,1.3-2.5,3.3
							c-0.4-1.1-1.9,1.9-2.1,2.5c0,0.2-0.1,0.4-0.1,0.7c-2.5,0-6.1-0.6-7.3-0.7c-3.7-0.2-7.6-0.6-11.4-0.4c-2.8,0-5.4,0.2-7.9,0.8
							c0.3-0.6,0.7-1.2,1-1.8c1.7-3.1-3.1-6-4.7-2.8l-0.1,0.2C40,20.2,28.1,21,17.1,26c-3.2,1.4-0.4,6.2,2.8,4.7
							c9.8-4.5,20.5-4.6,30.5-1c-1.5,0.4-3,1.1-4.5,1.8c-3.2,1.5-0.4,6.3,2.8,4.7c9.2-4.3,19.2-2.5,29-2.2c1.2,0,3.2,0.2,5.3,0.1
							c0.1,0.3,0.2,0.6,0.3,0.9c-0.8,1.5,0.4,3.9,2.2,4c1.7,2.8,3.5,5.4,5.3,7.8c6.2,8.9,13.3,17,21.3,24.4c2.6,2.4,6.5-1.5,3.9-3.9
							c-7.4-6.7-14.1-14.2-19.8-22.4c-1.3-1.9-2.9-4-4.3-6.1c7.1-0.2,14-0.2,21.1,0.3c8.3,0.6,16.3,2.2,24.5,0.2
							C140.6,38.3,139.2,33,135.7,33.9z M90.2,29.3c-0.4,0.4-1,0.9-1.4,1.3c0-0.4,0-0.8-0.1-1.3c-0.1-0.3-0.2-0.7-0.4-0.9
							c0.3-0.4,0.6-0.8,0.9-1.2c0.1-0.8,0.3-1.2,0.2-1.9C91.6,27.4,92.5,27,90.2,29.3z"/>
						<path class="st4" d="M30.3-3.7c-1.7-1.5-3.2-3-4.9-4.5c-1.9-1.7-5.7,0-4.6,2.6c0.6,1.4,1,2.8,1.3,4.1
							c-9,5.1-18,10.1-26.8,15.3c-1-1.7-2.2-3.6-2.6-4.9c0.6-0.9,0.6-2,0-2.9c-0.7-1.2-1.5-1.7-3-1.8c-1.2,0-2.3,0.9-2.6,2
							c-1.2,3.9,3.3,9.4,4.9,12.6c0.7,1.3,2.5,1.7,3.7,1c2.9-1.7,5.8-3.4,8.7-5.1c0.6,0.2,1.1,0.3,1.9,0c7.1-2.8,14-5.8,20.6-9.6
							c0.8-0.4,1.4-1.4,1.3-2.4c0-0.6-0.1-1-0.1-1.5c0.6-0.3,1-0.6,1.5-0.9C31.3-0.2,31.7-2.5,30.3-3.7z"/>
						<path class="st4" d="M74,61.4c-3.7-3.3-10-4.9-14.6-6.8c-2.2-1-4.4-2-6.7-3c-3.1-2.3-6.7-3.7-10.5-5
							c-7.4-2.6-14.9-5.2-22.3-7.7C5.1,33.7-9.7,28.6-24.6,23.4c-3.3-1.2-4.9,4.2-1.4,5.3c13.5,4.6,27,9.4,40.5,14
							c6.4,2.2,12.8,4.4,19.2,6.6c1,0.3,2.1,0.7,3.2,1.1c0.1,0.1,0.2,0.2,0.4,0.2c5.2,2.8,10.3,5.5,15.4,8.3c1.1,0.7,2.2,0.4,3-0.1
							c2.2,1,4.4,2,6.7,3c5.5,2.4,9.4,3.4,9.6,10.1c0.1,4.3-0.6,8.6-1.8,12.7c-2.4,8.2-6.9,15.7-11.7,22.7
							c-4.3,6.4-11.2,20.1-20.7,16.3c-3.3-1.3-4.7,4.1-1.4,5.3c9.5,3.7,16.4-4.3,21.4-11.1c6.8-9.3,13.6-19,17.2-30
							C77.3,80.9,80.6,67,74,61.4z"/>
						<path class="st4" d="M33.7,140.4c-2-2.9-4.2-6-7.8-6.5c-3-0.4-6.4,1.1-7.4,4.1c-0.2,0.6-0.3,1-0.3,1.5
							c-0.9,0.7-1.7,1.5-2.4,2.5c-2.1,2.9,2.6,5.6,4.7,2.8c0.1-0.1,0.3-0.1,0.4-0.2c0.2,0.1,0.3,0.3,0.6,0.4
							c-1.8,3.4,3.9,12.6,5.1,14.3c1,1.5,2.9,1.5,4,0.8c0,0.4,0,0.8,0,1.2c0,1,0.3,1.7,1,2.1c-0.2,0.9-0.6,1.9-0.8,2.8
							c-2.2,4.5-7.6,8-12.8,9.4c-3.5,0.8-2,6,1.4,5.3c9-1.5,19.3-4.1,23.5-13.2C47.3,157.7,38.8,148.1,33.7,140.4z"/>
						<path class="st4" d="M56.8,212.3c1.1-2.5,1.4-5.1,1.3-7.6c0-1.4-0.2-3-0.8-4.3c-2.8-8.6-12-14.9-22.6-10.6
							c-2.3,0.9-2.3,3.9-0.9,5c0,2,1.3,3.7,3.3,4.6c0.2,0.7,0.7,1.3,1.2,1.7c4.9,3,8.5,6.8,5.3,12.7c-0.1,0.2-0.2,0.3-0.3,0.6
							c-2.8,2.8-6.2,4.9-8.7,7.8c-1.2,1.3-0.8,3.2,0.3,4.1c-0.8,0.3-1.5,0.7-2.4,1c0-0.1-0.1-0.3-0.1-0.4c-0.8-3.4-6.1-2-5.3,1.4
							c0.4,2.1,1.5,3.7,3.1,4.9c0.9,1.2,2.3,2,3.9,2.2c7.2,1.2,13.9-5.6,17.3-11c1.7-2.6,2.9-5.5,3.7-8.5
							C55.7,214.7,56.4,213.5,56.8,212.3z"/>
						<path class="st4" d="M9.5,229.4c0.1-2.3-0.1-4.6-0.6-7.1c-0.3-1.9-0.8-4-1.5-6c0.1-1.3-0.4-2.8-1.4-3.9
							c-0.3-0.3-0.8-0.8-1.2-1.1c-1.9-2.4-4.3-4.1-7.7-3.6c-1.7-0.4-3.2-0.8-4.5-0.9c-4.5-0.6-8.9,0.9-11.9,4.4
							c-2.2,2.8,1.7,6.6,3.9,3.9c2.4-3,5.7-3.3,8.9-2.5c0.1,0.1,0.1,0.2,0.2,0.2c2.2,2.2,5.6,7.6,9.4,7.6c0.8,3.1,0.9,6.3,1,7.7
							c0,1.5-0.1,3-0.3,4.4c-0.1-1-0.2-2-0.4-3c-0.2-0.9-1-1.8-1.9-1.9c-7.4-1.3-8.3,12.9-4.7,19.5c-0.3,0.3-0.7,0.8-0.8,1.3
							c-0.7,2.5-0.7,4.4-0.1,6.9c0.3,1.7,2.6,2.6,4.1,1.7c0.2-0.1,0.4-0.3,0.6-0.4c0.1,0,0.1,0,0.2-0.1c5.6-3.1,9.8-8,11.7-14.2
							C13.7,238,13.9,232.1,9.5,229.4z"/>
						<path class="st4" d="M65,317c-1.4-5.3-9.9-7.6-13.9-10.5c-2.9-2-5.2-4.9-6.9-7.9c-1.7-5-1.7-10.4,0.2-15.3
							c0.4-1.2,1-2.3,1.3-3.5c0.2-1.1,0.1-2.1-0.2-3.1c-0.6-1.3-0.6-1.5-0.4-3.1c0.1-2.5-3.4-4.1-5.1-2.1c-0.7,0.8-1.3,1.7-1.9,2.4
							c-1.7,0.6-3.2,1.7-4,3.7c-0.1,0.2-0.2,0.6-0.3,0.8c-1-0.3-2.2-0.1-3.1,0.7c-5.8,5.1-4.5,12.7-1.1,19.3c0.6,5,3.2,9.7,5.2,14.2
							c1.2,2.9,3.6,3.5,5.8,3l0,0c1.5,1.8,3.2,3.4,4.5,5.4c1.4,2.2,3.6,3,5.7,2.6c1.8,1,3.5,1.8,5.4,2C61,326.6,66.5,322.5,65,317z"
							/>
						<path class="st4" d="M30.5,342.9c-3.4,5.6-13.1-5.4-15.5-7.4c-2.8-2.1-5.8-3.7-9.4-4c-5.8-0.3-10.5,3.4-11,9.3
							c-0.3,3.5,5.2,3.5,5.5,0c0.9-8.3,11.5-1.1,13.9,1c2.8,2.3,5.2,5.1,8.5,6.7c4.7,2.4,10,2,12.9-2.9
							C37.1,342.7,32.3,340,30.5,342.9z"/>
						<path class="st4" d="M185.9,376.3c-2.4-7.5-6.2-14.2-10.7-20.4c-1.3-2.3-2.9-4.4-4.5-6.5c6.4-1.8,12.2-7.7,12.5-14.3
							c0-1.7-1.8-3.3-3.5-2.6l0,0c-3.4-0.9-7.2,0.4-10.7,2.6c-2.5,1.1-4.9,2.6-6.8,4.7c-0.6-0.6-1-1.1-1.5-1.5c-1.9-2-3.9-4-5.8-5.8
							c0.7-0.1,1.3-0.3,1.9-0.6c3,1.4,7.3-1.1,9.8-2.5c3.5-2,6.4-4.6,8.9-7.6c1.4-1.1,2.8-2.3,4.1-3.6c1.8-1.8,0.4-4.6-2-4.7
							c-0.4,0-0.8,0-1.1,0c-1.7-1.3-4.1-0.6-6,0.4c-7.4,1.3-14.1,5.1-19.1,11c-0.8-0.2-1.7,0-2.3,0.9c-0.2,0.2-0.3,0.6-0.6,0.8
							c-2.9-2.6-5.7-5.3-8.6-7.8c0.9-1.3,1.8-2.8,2.5-4.2c3-3,6.1-5.7,8.5-9.3c4.4-6.3,7.7-9.5,10.1-18.7c-3,1.7-4.5,2.6-6.6,3.6
							c-2.1-1.5-2.5-5.3-4.2-1.9c-2.5,3-4.7,11.4-7.9,14c-1.3-0.4-5.3-1.2-6.1,0.4c-0.4,1.2-0.3,2.8-0.9,4c-1.4,1.9-0.9,4.7-1.2,7.2
							c-2.6-2.2-5.2-4.4-7.8-6.5c-11.7-9.4-24-18.2-36.7-26.1c-12.5-7.8-25.6-16.3-40.1-19.4c-3.4-0.8-5,4.5-1.4,5.3
							c13.8,3,26.2,11,38,18.4c12.1,7.5,23.7,15.8,34.9,24.6c3.5,2.9,7.1,5.7,10.5,8.7c-0.8,1-1.4,2.1-2,3.3c-1.1,2.2,1,5,3.3,4
							c-0.2,3-0.6,5.8-1,8.8c-0.6,3.4,4.2,4.9,5.3,1.4c0.7-2.1,1.1-4.1,1.3-6.2c4.6,7.6,11.1,13.9,17.4,20.2
							c-0.2,0.7-0.2,1.4,0.2,2.2c0.9,1.5,1.8,3.2,2.5,4.7c1,5,2.8,9.6,5.2,14.1c1.3,2.5,5,1.2,5.1-1.2c1.3,1.7,2.6,3.2,4,4.9
							c0.9,1,2.3,1,3.3,0.3c0.7,0,1.4-0.3,2-0.8c0.9,1.3,1.9,2.6,2.8,4C182.6,381,187,379.5,185.9,376.3z"/>
						<path class="st4" d="M315.8,337.5c-3.6-0.6-6.9-0.6-10.5-0.1c-2.9-0.4-6.1,0.2-9.2,0.4c-7.9,0.6-16-0.2-23.9-1
							c-11-1-22.1-2.1-33.2-3.1c0-1.2-0.7-2.5-2-2.8c-1.7-0.3-3.3-0.4-4.9-0.4c-0.6-0.8-1.5-1.3-2.9-1.1c-1.5,0.3-3,0.7-4.5,1
							c-1.1,0.2-1.7,1-1.9,2c-0.2,0.1-0.3,0.1-0.6,0.2c-2.8,1.2-1,5,1.4,5.2c0.1,0,0.2,0,0.4,0c0.2,0.1,0.3,0.2,0.6,0.3
							c1.3,0.4,2.5,0.6,3.7,0.7c4.6,2.6,9.6,3,14.8,3.4c7.2,0.6,14.3,0.9,21.6,1.1c6,0.2,11.8,0.3,17.8,0.3c2.8,0.2,5.5,0.4,8.2,0.7
							s5.3,0.4,7.8,0.6c6.3,3.1,13.2,2,18.3-3C318.3,340.8,317.9,337.9,315.8,337.5z"/>
						<path class="st4" d="M285.4,354.4c-3.5-3.3-8-0.9-11.9,0.8c-5.7,2.4-10.9,5.7-15.8,9.7l0,0c-1.7,0.4-3.3,0.8-5.1,1.1
							c-2.6,0.6-2.4,3.7-0.7,5c-0.2,0.1-0.4,0.2-0.7,0.2c-3.3,1.2-1.9,6.5,1.4,5.3c4.7-1.7,9-3.9,13-6.8c0.7-0.4,1-1.1,1.2-1.9
							c5.8-1.8,11.2-4.3,16.4-7.7c0.6-0.3,0.9-0.8,1-1.3c0.1-0.1,0.2-0.1,0.2-0.2C286.2,357.7,286.8,355.6,285.4,354.4z"/>
						<path class="st4" d="M485.8,377.5c-1.7-3.5-4.3-6.9-6.7-10.3c0.7-1,0.7-2.4-0.2-3.4c-12.6-13.5-20.7-31.6-35.6-42.7
							c-0.3-0.4-0.8-1-1.1-1.4c-3.4-4.3-9.4-14.1-15.9-16.9c0,0,0,0-0.1-0.1c-0.9-1-2-1.1-2.9-0.7c-1.2-0.1-2.5,0.1-3.7,0.7
							c-1-0.2-2.1-0.2-3.2-0.1c-3.5,0.3-3.5,6,0,5.5c0.2,0,0.4,0,0.7,0c0.8,0.8,2,1.1,3.1,0.7c2.3,1.1,4.2,3.4,5.8,5.4
							c0.4,0.6,0.9,1,1.3,1.4c-0.3,0.7-0.3,1.5,0.2,2.3c5.4,7.7,11.2,15.1,17.5,22c3.6,4.7,7.3,9.4,11,14c0.7,1,1.3,2.1,2,3.1
							c0,0.1,0.1,0.1,0.1,0.2c0.1,0.2,0.2,0.3,0.3,0.4c0.6,0.8,1.1,1.7,1.7,2.4c0.6,0.9,1.4,1.3,2.2,1.3c0.8,0.9,1.4,1.8,2.2,2.6
							c0.9,1.3,1.9,2.8,2.9,4.1c0.8,1.4,1.7,2.6,2.9,3.6c1.4,1.8,3,3.5,4.6,5.2c1.3,1.3,3.1,0.9,4-0.2c0.4,0.6,0.9,1,1.2,1.3
							c-1.2,1.4-1.2,3.5,0.4,4.9c1,0.8,2.2,1.1,3.3,0.4C486.2,382.3,486.9,380.1,485.8,377.5z"/>
						<path class="st4" d="M526.5,371c-9.4-13.2-18.5-26.8-28.7-39.5c-4.7-5.8-9.8-11.5-15.7-16.3c-1.4-1.1-2.9-2.3-4.4-3.4
							c1.5-0.8,2.4-2.8,0.9-4.3c-0.1-0.1-0.2-0.2-0.4-0.3c1.5-0.7,2-3.2,0.9-4.6c-0.8-1-1.7-1.9-2.5-2.8c0.4-0.8,0.6-1.9,0-2.8
							c-2.1-3.3-4.6-5.7-7.8-7.6c0.3,0,0.7-0.1,1-0.1c3.5-0.2,3.6-5.5,0-5.5c-2.9,0-5.7,0.1-8.6,0.2c-0.3-0.2-0.7-0.6-1.1-0.8
							c-1.2-0.9-3-0.2-3.7,1c-2.6,0.1-5.2,0.2-7.8,0.3c-9.7,0.2-19.4,1-29.1,2.1c-1,0.1-1.7,0.6-2.1,1.2c-6.3,0.4-12.6,0.9-18.9,1.3
							c-3.5,0.2-3.5,5.7,0,5.5c13.8-1,27.6-2,41.3-2.9c0.1,0.2,0.2,0.3,0.3,0.6c7.3,8.4,16.6,14.4,27,17.8c1.7,1.7,3.5,3.2,5.5,4.7
							c6.4,5,12.2,10.1,17.5,16.2c11.6,13.3,21.3,28.3,31.5,42.7C523.8,376.7,528.6,373.9,526.5,371z M457.8,290.6h0.1
							c0.3,0.7,0.7,1.3,1.1,1.9c-0.9-0.6-1.9-1.1-2.9-1.7C456.8,290.8,457.3,290.7,457.8,290.6z"/>
						<path class="st4" d="M538.9,348.7c-4.2-6.4-8.3-12.9-12-19.5c-2-4-3.7-7.9-5.5-11.9c-2.5-5.7-4.9-12.1-8.8-17.1
							c-2.2-5.1-4.2-10.1-6.1-15.3c-1.3-3.6-3.5-7.6-7.8-5.4c-2.8,1.3-1,5.2,1.7,5.1c1.8,2.1,3,7.5,3.7,9.4c0.1,0.1,0.1,0.3,0.2,0.4
							c-1.5,0.3-2.8,1.8-2.1,3.3c0.7,1.8,1.3,3.5,2.1,5.2c-1.7,0.3-2.9,2-1.8,4c9,17.1,19,33.6,29.9,49.6c1.4,2.1,5.2,1.5,5.2-1.4
							c0-0.8,0-1.5,0-2.3C538.8,352.1,540,350.3,538.9,348.7z"/>
						<path class="st4" d="M550.8,244.9c-2.1-1.3-4.1,0.7-4.1,2.5c-0.2,0-0.4,0-0.7,0c-2.4,0.2-4.9,0.6-7.3,0.9
							c-0.4-0.6-1.2-0.9-2-0.9c-3.1,0.2-5.8,1-8.6,2.5c-0.7,0.4-1.1,1-1.3,1.5c-4.2-0.9-8.2-2.8-11.4-5.7c-2.6-2.3-6.5,1.5-3.9,3.9
							c7.6,6.7,17.4,9,27.3,7.3c3.9-0.7,10.9-1.8,13.3-5.3C554,249.2,553.4,246.6,550.8,244.9z"/>
					</g>
					<g>
						<path class="st5" d="M-4.8,165.5c-0.1-0.4,10.7,17.8,11.2,18.1c1.4,1,7.3,0.1,13.7-2.8c4.7-2.1,14.3-9.6,14.9-12.5
							c0.4-2-10.8-20.8-10.9-20.6C23.8,148-4.7,166-4.8,165.5z"/>
						<path class="st6" d="M21.2,152.5l-2.8-1.2c-8.4,5.3-23.2,14.4-23.3,14.1c-0.1-0.4,10.7,17.8,11.2,18.1c1.3,0.9,6,0.3,11.5-1.9
							c-1.5-2-6.9-9.5-7.1-9.8c-0.1-0.4-5.1-5.1-1.5-8.4C12.8,160.4,20.8,153.1,21.2,152.5z"/>
						<path class="st7" d="M219.9-5.6L231.4-3c0,0,2.1,2.6,1.5,6.3c-0.4,2.4-1.3,4.1-3.4,5.4c-1.1,0.8-3,0.9-3,0.9L215.2,7
							c0,0-5.3-0.9-5.2-2.9s2-7.1,2-7.1l4.9-3.4L219.9-5.6z"/>
						<path class="st8" d="M458.3,121.5h-0.8l-7.5,9.6c0,0-0.7,0.8,0,2.3c0.7,1.4,1.2,2.3,3.5,2.9c2.1,0.6,3-0.4,3-0.4l8-9.7
							L458.3,121.5z"/>
						<path class="st9" d="M482.3,198.2l-4.4,11.9c0,0,1.3-0.9,2.5,0.1c1.2,1,0.6,1.5,0.6,1.5l8.9-7.6l4-7.1l-1.7-1.8l-6-1.5
							L482.3,198.2z"/>
						<polygon class="st10" points="537.7,271.8 407.1,277 405.3,279.8 409.2,282.5 537.7,277.1 						"/>
						<polygon class="st11" points="408.4,287 537.7,282.5 537.7,277.1 409.2,282.5 406.1,284.3 						"/>
						<path class="st12" d="M-26.2,26c0,0,96,35.3,100,44.1c4.1,9.2-21.9,60.6-28.7,61.3c-10.8,1-71.3-26.1-71.3-26.1V26z"/>
						<path class="st13" d="M-11.8,0.8c0,0,6.6,15.5,9,16c2,0.3,26.7-12.5,26.7-13.2C23.8,3,18.7-7.1,16-11c-0.7-1-1.2-1.5-1.4-1.4
							C13.1-12.1-12.9-1.1-11.8,0.8z"/>
						<path class="st12" d="M20.4-13.2c0.4,0.8,6.9,10.9,6.9,12.3c0,1-4.1,3-4.1,3l-7.8-13.7C15.5-11.5,19.8-14.2,20.4-13.2z"/>
						<circle class="st7" cx="-14" cy="47.9" r="10.7"/>
						<circle class="st14" cx="16.8" cy="61.8" r="10.7"/>
						<circle class="st15" cx="49" cy="74.6" r="10.7"/>
						<circle class="st16" cx="35.6" cy="110.1" r="10.7"/>
						
							<ellipse transform="matrix(0.2478 -0.9688 0.9688 0.2478 -91.4021 82.0108)" class="st17" cx="7.1" cy="99.9" rx="10.7" ry="10.7"/>
						<circle class="st18" cx="-21.7" cy="87.8" r="10.7"/>
						<path class="st19" d="M-26.2,60.9l75,30.4c0,0,2.2,2.2,0.7,4.3c-1.5,2.1-3.5,1.2-3.5,1.2c-4.3,0-72.1-28.8-72.1-28.8V60.9z"/>
						<path class="st19" d="M71.9,68.2c0,0,0.1,5.6-3.6,16.5c-2.6,7.5-6.3,15-9.4,20.8C50,122.2,46,127.4,40.5,127.4
							c-9.6,0.1-66.7-25.6-66.7-25.6l-0.2,5.5c0,0,55.6,22.4,61.5,24.5c3,1.1,8.9,0.2,10.5-0.7c1.5-0.9,6.9-0.4,25.2-42.4
							C75.1,78.7,76,69.7,71.9,68.2z"/>
						<path class="st20" d="M-21.9,40.7c0,0-3.7,5-0.7,10c2.6,4.3,7.2,5.5,11.4,4.7c5.2-1,7.2-4.9,7.5-5.5c0.3-0.7,0,2.1-1.4,4
							c-1.5,2.1-3.7,4.3-7.7,4.6c-3.4,0.3-6-0.7-8.4-2.8c-2.8-2.4-3.6-6.2-3.3-8.9C-24.1,43.6-23.5,42.5-21.9,40.7z"/>
						<path class="st21" d="M9.1,54.4c0,0-3.7,5-0.7,10c2.6,4.3,7.2,5.5,11.4,4.7c5.2-1,7.2-4.9,7.5-5.5c0.3-0.7,0,2.1-1.4,4
							c-1.5,2.1-3.7,4.3-7.7,4.6c-3.4,0.3-6-0.7-8.4-2.8c-2.8-2.4-3.6-6.2-3.3-8.9C6.8,57.4,7.4,56.2,9.1,54.4z"/>
						<path class="st22" d="M41.3,67.4c0,0-3.7,5-0.7,10c2.6,4.3,7.2,5.5,11.4,4.7c5.2-1,7.2-4.9,7.5-5.5s0,2.1-1.4,4
							c-1.5,2.1-3.7,4.3-7.7,4.6c-3.4,0.3-6-0.7-8.4-2.8c-2.8-2.4-3.6-6.2-3.3-8.9C38.9,70.3,39.6,69.1,41.3,67.4z"/>
						<path class="st23" d="M27.9,102.9c0,0-3.7,5-0.7,10c2.6,4.3,7.2,5.5,11.4,4.7c5.2-1,7.2-4.9,7.5-5.5c0.3-0.7,0,2.1-1.4,4
							c-1.5,2.1-3.7,4.3-7.7,4.6c-3.4,0.3-6-0.7-8.4-2.8c-2.8-2.4-3.6-6.2-3.3-8.9C25.6,105.8,26.3,104.7,27.9,102.9z"/>
						<path class="st24" d="M-0.9,92.7c0,0-3.7,5-0.7,10c2.6,4.3,7.2,5.5,11.4,4.7c5.2-1,7.2-4.9,7.5-5.5s0,2.1-1.4,4
							c-1.5,2.1-3.7,4.3-7.7,4.6c-3.4,0.3-6-0.7-8.4-2.8c-2.8-2.4-3.6-6.2-3.3-8.9C-3.1,95.6-2.4,94.4-0.9,92.7z"/>
						<path class="st25" d="M-29.6,80.6c0,0-3.7,5-0.8,10c2.5,4.3,7.2,5.6,11.2,4.9c5.2-0.9,7.3-4.9,7.6-5.5s-0.1,2.1-1.4,4
							c-1.5,2.1-3.7,4.3-7.7,4.6c-3.4,0.3-6-0.7-8.4-2.9c-2.8-2.4-3.6-6.2-3.2-8.9C-31.9,83.6-31.3,82.4-29.6,80.6z"/>
						<path class="st26" d="M-6.1,12.5c0.6,0.9,28.2-12.2,27.6-13.6c-0.2-0.4,2.9,4.1,2.4,4.6C23.2,4.5,0,17.1-2.8,16.8
							C-4.3,16.6-6.1,12.5-6.1,12.5z"/>
						<path class="st19" d="M21.2-1.5c0,0,4.9-2.8,4.7-3.1c-0.2-0.3,1.9,3.1,1.9,4.1c0,0.4-1.3,1.4-1.5,1.5c-0.1,0.1-1,0.7-1.4,0.9
							c-0.4,0.2-1.1,0.6-1.1,0.6S21.5-0.8,21.2-1.5z"/>
						<path class="st27" d="M23.8,349.2c0,0,5.8,16.8,6.4,17.3c0.4,0.6,11.2-1.5,21.9-5.1s16.9-7.4,17.3-8.4c0.6-1-5.3-16.9-6-17.4
							c-2-1.9-14.6,0.1-21.8,2.4C33.7,340.6,24.1,345.6,23.8,349.2z"/>
						<path class="st28" d="M13.7,203.1c0.3-0.3-9.5,18.4-9.5,19.1c-0.1,1.8,3.7,6.2,9.5,10.3c4.3,3,15.7,7.2,18.4,6.2
							c1.9-0.7,12-20.1,11.8-20.2C43.7,218.2,13.4,203.5,13.7,203.1z"/>
						<path class="st15" d="M-34.2,237.5c0.1-0.4,1.9,22.2,2.2,22.8c0.9,1.7,6.8,3.3,14.2,3.4c5.5,0.1,18-3,20-5.5
							c1.3-1.8-2.8-28-2.8-28C-0.9,230.5-34.3,238-34.2,237.5z"/>
						<path class="st27" d="M23.8,349.1c0,0,0.4,3.9,19.6-1.5c13-3.6,18.4-7.5,20-10.4c0.8-1.4-0.2-1.7-0.3-2
							c-0.6-0.8-8.2-1-18.3,1.7c-7.9,2.1-9.8,3.5-12.1,4.5C30.6,342.5,23.5,346.7,23.8,349.1z"/>
						<polygon class="st29" points="236.1,323.1 232.8,326.9 315.2,333.9 311,329.4 						"/>
						<polygon class="st30" points="232.8,331.2 315.2,338.3 315.2,333.9 232.8,326.9 						"/>
						<polygon class="st31" points="311.8,342.2 234.9,335.1 232.8,331.2 315.2,338.3 						"/>
						<polygon class="st32" points="236.1,323.1 222.7,326.4 223.9,328.5 221.1,330.2 234.9,335.1 232.8,331.2 232.8,326.9 						
							"/>
						<polygon class="st30" points="214.4,327.8 221.1,330.2 223.9,328.5 222.7,326.4 						"/>
						<path class="st33" d="M222.3,369.8c0.4-0.6,28.1-9.5,28.1-9.5s0.2,0,0.7,0c1.2,0,3.7,0.6,4.7,4.3c0.8,3,0,3.9,0,3.9l-3.2,1.4
							h-30.3V369.8z"/>
						<path class="st34" d="M266.5,354.3l-16.1,6c0,0,5.7,0.1,5.5,6.9c0,1.3-0.1,1.2-0.1,1.2l15-6.5c0,0,0.1-0.2,0.2-0.6
							C271.5,359.7,272.6,354.6,266.5,354.3z"/>
						<path class="st9" d="M278.6,356.9c1.2-0.9-0.7-6.3-3.5-5.3c-4.7,1.5-7.2,2.4-7.4,2.5c0,0,5,1,3.4,6.3c-0.3,1.3,0,0,0,0
							S276.2,358.6,278.6,356.9z"/>
						<path class="st35" d="M156.5,345.9c-12.3-16.3-39.9-42.8-61.9-59c-16.9-12.5-33-20.4-53.6-25.9c-20.4-5.4-29.7,0.4-33.4,11.5
							c-3.9,11.6,2.5,29,6.9,36.9c4.4,7.9,13,19,11.1,26.6c-2.1,8.5-11.9,0.9-20.5-2.3c-8.5-3.1-12.7,0.7-13.8,11.6
							c-1.2,12.1,7.2,24.8,7.2,24.8h173.9C172.6,370.1,168.8,362.2,156.5,345.9z M59,313.9c-5.5,0.9-15-2.3-22.3-12.5
							c-8-11.1-3.5-17.2-3.5-17.2c12-12.9,33,9.5,33.1,20.2C66.2,309.7,64.5,313.1,59,313.9z"/>
						<path class="st36" d="M154.8,349.5c-12.3-16.3-37.2-40.6-60.6-58.3c-17.9-13.5-25.9-18.5-48.8-26c-20.1-6.5-30.5-4.1-34.3,6.9
							c-3.9,11.6,0.4,31.5,4.9,39.5c4.4,7.9,13,19,11.1,26.6c-2.1,8.5-12.8-2.3-21.7-4.5c-8.9-2.2-11.5,4.2-11.2,14.3
							c0.3,12.2,5.8,24.3,5.8,24.3l168.2-1.7C168,370.6,167.1,365.9,154.8,349.5z M60.2,316.2c-5.5,0.9-15-2.3-22.3-12.5
							c-8-11.1-3.5-17.2-3.5-17.2c12-12.9,33,9.5,33.1,20.2C67.4,312.1,65.7,315.3,60.2,316.2z"/>
						<path class="st37" d="M150.8,324.8c-0.8-1.2,9.6-26.5,11.4-25.6c1.2,0.7,0.3,4.3,1.1,2.8c0.6-1.1,2-2.3,3.6-1.1
							c1.9,1.3,0.3,3.3,1.1,2.6c0.8-0.7,2.5-2,2.6-1c0.1,1.1-0.7,2,0,1.5c1-0.7,2.1-0.6,2.2,0.8c0.1,1.3,0.9,0.2,2.3,2.9
							c1.4,2.6,1.4,6.1,0.8,6.6c-0.7,0.7,4.1-0.4-4.3,3.5c-0.8,0.4-16.1,7.6-18.5,7.7C150.7,325.8,150.8,324.8,150.8,324.8z"/>
						<polygon class="st38" points="108,370.5 135.3,352.9 138.7,354 139.5,355.6 120.9,369.8 						"/>
						<path class="st39" d="M134.6,352.3c0,0-0.2,2,1.2,3.5c1.4,1.4,2.9,1.2,2.9,1.2l16.1-13.1l-1.7-2.2L134.6,352.3z"/>
						<path class="st40" d="M153.1,342.7c0,0-0.7-2.3,3.5-7.1c4.2-4.7,10.7-9.2,14.1-8.8c3.4,0.3,2.8,1.3,3.6,1.1s1.3-0.3,1.7,0.1
							c0.3,0.4,2-0.7,1.4,0.7c-0.6,1.2,3.2-2.8,0.6,2.2c-2.4,4.6-7.4,9.9-16.6,12.5c-4.1,1.1-6.7,0.8-7.5,0.3
							C153.2,343.3,153.1,342.7,153.1,342.7z"/>
						<path class="st41" d="M153.9,343.7c0.8,0.3,3.4,0.8,7.5-0.3c9.3-2.5,14.2-7.9,16.6-12.5c2.6-5.1-1.1-1-0.6-2.2
							c0.4-1.2-0.9-0.3-1.3-0.6c-1.8,2.1-5.8,6.4-10,9.3c-5,3.4-12.9,5.4-12.9,5.4L153.9,343.7C153.8,343.6,153.8,343.6,153.9,343.7
							z"/>
						<path class="st42" d="M176,314.5c0.7-0.7,0.7-4.1-0.8-6.6c-1.3-2.4-2.1-1.7-2.3-2.5c-1.8,1.8-3.3,5.5-5,7.3
							c-4.3,4.5-0.9-1.9-2.8-0.4c-3.1,2.3-7.8,7.5-13.9,13.5c0.3,0.1,0.9,0.2,1.8,0.2c2.4-0.1,17.8-7.3,18.5-7.7
							C180.1,313.9,175.3,315.1,176,314.5z"/>
						<path class="st27" d="M131.4,291.9c-0.7,7.3,0,11.1,0.7,11.7"/>
						<path class="st43" d="M264.2,358.9c-0.4-1-1.5-2-2.6-2.8l-4.9,1.8c0.7,0.3,1.3,0.9,2,1.7c2.3,2.3,2,6,2,6.6l4.3-1.9
							C265.2,362.8,265.1,360.9,264.2,358.9z"/>
						<path class="st44" d="M285.1,369.8c0,0,128.2-71.4,129.3-70.7c1.1,0.8,59.2,70.7,59.2,70.7h-185H285.1z"/>
						<path class="st44" d="M290.3,369.8c0,0,122.7-68.5,123.7-67.8c0.9,0.8,57,67.8,57,67.8H290.3z"/>
						<polygon class="st5" points="456.2,365 411.4,310.3 390.4,323.1 433.6,378.8 						"/>
						<polygon class="st45" points="423.9,382.5 379.1,327.7 358.1,340.5 401.3,396.2 						"/>
						<polygon class="st46" points="391,401.9 346.2,347.1 325.2,359.9 368.4,415.6 						"/>
						<polygon class="st18" points="360.1,418 315.2,363.3 294.3,376.1 337.5,431.8 						"/>
						<g>
							<path class="st29" d="M434.5,368.6c-0.4,0-1-0.2-1.3-0.7l-33.1-42c-0.6-0.8-0.4-1.8,0.3-2.3c0.8-0.6,1.8-0.4,2.3,0.3l33.1,42
								c0.6,0.8,0.4,1.8-0.3,2.3C435.2,368.5,434.9,368.6,434.5,368.6z"/>
						</g>
						<g>
							<path class="st29" d="M442.8,362.9c-0.4,0-1-0.2-1.3-0.7l-33.1-42c-0.6-0.8-0.4-1.8,0.3-2.3c0.8-0.6,1.8-0.4,2.3,0.3l33.1,42
								c0.6,0.8,0.4,1.8-0.3,2.3C443.5,362.8,443.1,362.9,442.8,362.9z"/>
						</g>
						<g>
							<path class="st47" d="M409.6,380.4c-0.4,0-1-0.2-1.3-0.7l-33.1-42c-0.6-0.8-0.4-1.8,0.3-2.3c0.8-0.6,1.8-0.4,2.3,0.3l33.1,42
								c0.6,0.8,0.4,1.8-0.3,2.3C410.4,380.3,410,380.4,409.6,380.4z"/>
						</g>
						<g>
							<path class="st47" d="M400.8,385.9c-0.4,0-1-0.2-1.3-0.7l-33.1-42c-0.6-0.8-0.4-1.8,0.3-2.3c0.8-0.6,1.8-0.4,2.3,0.3l33.1,42
								c0.6,0.8,0.4,1.8-0.3,2.3C401.6,385.8,401.2,385.9,400.8,385.9z"/>
						</g>
						<g>
							<path class="st48" d="M377.4,398.9c-0.4,0-1-0.2-1.3-0.7l-33.1-42c-0.6-0.8-0.4-1.8,0.3-2.3c0.8-0.6,1.8-0.4,2.3,0.3l33.1,42
								c0.6,0.8,0.4,1.8-0.3,2.3C378.2,398.7,377.9,398.9,377.4,398.9z"/>
						</g>
						<g>
							<path class="st48" d="M368.7,404.7c-0.4,0-1-0.2-1.3-0.7l-33.1-42c-0.6-0.8-0.4-1.8,0.3-2.3c0.8-0.6,1.8-0.4,2.3,0.3l33.1,42
								c0.6,0.8,0.4,1.8-0.3,2.3C369.5,404.6,369.1,404.7,368.7,404.7z"/>
						</g>
						<path class="st21" d="M41,216.9c-7.7-3.7-27.6-13.6-27.3-13.8c0.3-0.3-9.5,18.4-9.5,19.1C4.1,223.4,6,226,9,228.7
							c1.7-4,4.7-12.5,7.3-12.8c3.3-0.4,11.7,1.3,15.1,1.7C33.7,217.8,38.2,217.4,41,216.9z"/>
						<path class="st49" d="M537.7,356.4c0,0-27.7-39-29.5-44.7c-1.9-5.6-6.4-28-8.4-33.6c-2-5.6-5.1-11.8-7.9-13
							c-4-1.5-5.3,1.1-5.3,1.1s-2.4-2.6-6.1-2.1c-2.9,0.6-2.8,0.8-2.8,0.8s-3.2-2.4-7.3-1c-3,1.1-4,2.5-4,2.5s-2.9-2.3-6.7-1.1
							c-3.9,1.2-8.5,3.6-9.4,7.5c-0.9,3.9-0.3,3.1-0.3,3.1c-4.2,0,4.5-0.3,7.6-0.3c1.5,0,8.7,7.2,9.9,12.7c1.2,5.5,2.3,7.6,0.1,7.9
							c-2.2,0.3-9.4-1.1-12.6-5.4c-3.2-4.3-8.4-1.9-8.4-1.9s5.4,10.1,14.3,15.7c8.9,5.5,13.5,2.4,19.7,11c6.3,8.6,26.6,50.7,27,52.4
							c0.4,1.7,0.4,1.7,0.4,1.7h29.5v-13.2H537.7z"/>
						<g>
							<path class="st50" d="M473.3,277.1c-1-5.7-7.1-10.1-7.1-10.3l0.4-0.7c0.2,0.2,6.4,4.7,7.4,10.7L473.3,277.1z"/>
						</g>
						<g>
							<path class="st50" d="M484,274.4c0-0.1-2.3-7.5-6.4-8.9l0.2-0.8c4.5,1.5,6.7,9.2,6.8,9.5L484,274.4z"/>
						</g>
						<g>
							<path class="st50" d="M490.6,273.8c0-0.1-1.1-6.1-4-7.5l0.3-0.8c3.3,1.7,4.4,7.8,4.4,8L490.6,273.8z"/>
						</g>
						<g>
							<path class="st50" d="M450.1,275.9c-0.1,0-0.1,0-0.1,0C450,276.1,450.1,275.9,450.1,275.9z"/>
							<path class="st50" d="M476.1,297.7c-3.7-7.8-5.1-12.6-12.2-20.7c-4.7-5.4-10.8-3.1-13.9-1.3c0,0.1,0,0.1,0,0.2
								c1.9-0.1,5.8-0.2,7.7-0.2c1.5,0,8.7,7.2,9.9,12.7s2.3,7.6,0.1,7.9c-2.2,0.3-9.4-1.1-12.6-5.4c-3.2-4.3-8.4-1.9-8.4-1.9
								s5.4,10.1,14.3,15.7c8.9,5.5,13.5,2.4,19.7,11c6.3,8.6,26.6,50.7,27,52.4c0.4,1.7,0.4,1.7,0.4,1.7h9.5
								c0,0-12.1-24.5-19.7-38.4S481,308.2,476.1,297.7z"/>
							<path class="st50" d="M449.4,275.9c0.1,0,0.3,0,0.6,0c0,0,0,0,0-0.1c-0.1,0-0.3,0-0.4,0C449.5,275.9,449.4,275.9,449.4,275.9
								z"/>
						</g>
						<path class="st9" d="M389.3,282.5l17.8-5.5l-1.8,2.8l3.9,2.8l-3.1,1.8l2.3,2.8l-20-2.2C388.4,284.8,392.7,283.4,389.3,282.5z"
							/>
						<path class="st10" d="M392.6,282.1c0,0-13.9,1.2-12.2,2c1.7,0.9,15.8,1.2,15.8,1.2L392.6,282.1z"/>
						<path class="st51" d="M537.7,212.3c0,0-11.1-3.1-21.6,7.1c-8.9,8.6-9.8,16.5-6.7,23.8c3.1,7.3,11.1,9.9,18.7,8.9
							c5.5-0.8,8.2-2.9,8.2-2.9l1.5-1.5v-33.8v-1.5H537.7z"/>
						<path class="st52" d="M522.8,217.5c-4.6,3.1-12.7,13.2-7.5,22.3c2.3,4.2,9.8,8.4,17.1,6.6c5.5-1.3,5.3-2.1,5.3-2.1v-30.5
							C537.7,213.7,531.2,211.8,522.8,217.5z"/>
						<path class="st33" d="M537.7,127.4l-55.5,70.8c0,0,1-1.3,3.2-1c1.2,0.1-0.4,4.5-0.4,4.5l52.7-64.8V127.4z"/>
						<path class="st53" d="M490,204.2l47.7-55.6v-11.9L485,201.6c0,0,3.7-3.1,5.3-2.2C491.5,200,491.2,202.6,490,204.2z"/>
						<path class="st33" d="M479.4,205.9c0,0-1,2.6-1.9,4.9c-0.9,2.2-2.3,5.1-2.3,5.1l0.8,1.5l8.6-9L479.4,205.9z"/>
						<path class="st54" d="M177.2,32.2c-2.4-3.5,3.1-5.5,11.9-6.8c8.8-1.3,14.1-5.7,21.3-4.1c7.2,1.7,1.9,2.9,6.8,5.8
							c5,3,10.5,7.1,3.3,9.4c-8.9,2.9-5.4,3.1-15,3.9c-24.7,2.1-16-6.1-21.3-6.1C179,34.2,177.2,32.2,177.2,32.2z"/>
						<path class="st54" d="M232.9,40.7c6.6,1,17.2,3.7,9.8,5.6c-6,1.4-7.6,3.4-17.1,2.4C215.1,47.8,226.6,39.9,232.9,40.7z"/>
						<path class="st55" d="M223,31.4c-0.1,0.3-0.3,0.8-0.4,1.1c-0.7,1.9-26.5,10.1-33,3.4c-2-2-3.1-5-8.4-5.1
							c-2.1-0.1-3.1-0.9-3.6-2c-1.1,1-1.3,2.1-0.4,3.4c0,0,1.8,2,7.2,2c5.3,0-1.5,10.8,22.9,7.1C226.1,38.4,224.6,33.3,223,31.4z"/>
						<path class="st55" d="M242.7,46.4c4.4-1.1,2.4-2.5-1.2-3.6c-0.9,0.7,0.4,1.5-0.6,2.2c-2.2,1.5-10.8,1.9-16,1.4
							c-1.5-0.1-2.5-0.6-3.1-1c-1.1,1.5-0.3,3.1,3.7,3.5C235.1,49.8,236.7,47.8,242.7,46.4z"/>
						<g>
							<path class="st20" d="M131.9-18c0,0-9.5,21.1-9.8,23.7c-0.3,2.6,10.8,0.2,10.8,0.2s9.6-23.9,10-23.9S131.9-18,131.9-18z"/>
						</g>
						<path class="st7" d="M132.8,5.9c0,0,1.2,3.5,33.6,4.9s35.8,1.2,35.8,1.2l13.1-5.1c0,0-2.4-5.5,0.9-9.9
							c1.8-2.3,3.7-2.5,3.7-2.5L214.6-18h-71.7L132.8,5.9z"/>
						<path class="st12" d="M212.4-16.5c-5.8,4.3-10.8,10.9-10.8,24.4c0,1.7,0.2,3.1,0.6,4.1c0.1,0,0.1,0,0.1,0l13.1-5.1
							c0,0-2.4-5.5,0.9-9.9c1.8-2.3,3.7-2.5,3.7-2.5L214.6-18C214.1-17.8,212.8-16.9,212.4-16.5z"/>
						<g>
							<line class="st56" x1="125.8" y1="0.6" x2="132.4" y2="1.4"/>
							<path class="st7" d="M132.4,1.8L132.4,1.8l-6.7-0.9c-0.2,0-0.4-0.2-0.3-0.4c0-0.2,0.2-0.4,0.4-0.3l6.7,0.9
								c0.2,0,0.4,0.2,0.3,0.4C132.9,1.6,132.7,1.8,132.4,1.8z"/>
						</g>
						<g>
							<line class="st56" x1="128" y1="-5.6" x2="134.3" y2="-3.5"/>
							<path class="st7" d="M134.3-3h-0.1l-6.3-2.1c-0.2-0.1-0.3-0.3-0.2-0.6c0.1-0.2,0.3-0.3,0.6-0.2l6.3,2.1
								c0.2,0.1,0.3,0.3,0.2,0.6C134.6-3.1,134.5-3,134.3-3z"/>
						</g>
						<g>
							<line class="st56" x1="130.3" y1="-10.9" x2="136.7" y2="-8.9"/>
							<path class="st7" d="M136.7-8.3c-0.1,0-0.1,0-0.2,0l-6.3-2c-0.3-0.1-0.4-0.4-0.3-0.7c0.1-0.3,0.4-0.4,0.7-0.3l6.3,2
								c0.3,0.1,0.4,0.4,0.3,0.7C137.2-8.4,137-8.3,136.7-8.3z"/>
						</g>
						<g>
							<line class="st56" x1="132.4" y1="-14.8" x2="138.7" y2="-13"/>
							<path class="st7" d="M138.7-12.5h-0.1l-6.3-2c-0.2-0.1-0.3-0.3-0.2-0.6s0.3-0.3,0.6-0.2l6.3,2c0.2,0.1,0.3,0.3,0.2,0.6
								C139.1-12.6,138.8-12.5,138.7-12.5z"/>
						</g>
						<g>
							<line class="st56" x1="134.6" y1="-18" x2="139.6" y2="-15.8"/>
							<path class="st7" d="M139.6-15.4c-0.1,0-0.1,0-0.2,0l-4.9-2.2c-0.2-0.1-0.3-0.3-0.2-0.6c0.1-0.2,0.3-0.3,0.6-0.2l4.9,2.2
								c0.2,0.1,0.3,0.3,0.2,0.6C139.8-15.5,139.7-15.4,139.6-15.4z"/>
						</g>
						<g>
							<line class="st56" x1="124.2" y1="4.6" x2="131.4" y2="4.6"/>
							<path class="st7" d="M131.4,5h-7.3c-0.2,0-0.4-0.2-0.4-0.4c0-0.2,0.2-0.4,0.4-0.4h7.3c0.2,0,0.4,0.2,0.4,0.4
								C131.9,4.8,131.7,5,131.4,5z"/>
						</g>
						<g>
							<line class="st56" x1="129.5" y1="-8.4" x2="135.6" y2="-6.5"/>
							<path class="st7" d="M135.6-6h-0.1l-6.2-2c-0.2-0.1-0.3-0.3-0.2-0.6c0.1-0.2,0.3-0.3,0.6-0.2l6.2,2c0.2,0.1,0.3,0.3,0.2,0.6
								C136-6.1,135.7-6,135.6-6z"/>
						</g>
						<g>
							<line class="st56" x1="126.9" y1="-2.5" x2="132.8" y2="-0.9"/>
							<path class="st7" d="M132.8-0.5L132.8-0.5L126.7-2c-0.2-0.1-0.3-0.3-0.3-0.6c0.1-0.2,0.3-0.3,0.6-0.3l6,1.5
								c0.2,0.1,0.3,0.3,0.3,0.6C133.2-0.7,133-0.5,132.8-0.5z"/>
						</g>
						<path class="st27" d="M225.9,6.3"/>
						<g>
							<path class="st20" d="M226.5,6.8L226.5,6.8l-11.4-1.9c-0.2,0-0.3-0.2-0.3-0.4c0-0.2,0.2-0.3,0.4-0.3L226.6,6
								c0.2,0,0.3,0.2,0.3,0.4C226.8,6.7,226.7,6.8,226.5,6.8z"/>
						</g>
						<g>
							<path class="st20" d="M226.6,3.6L226.6,3.6l-11.8-2.1c-0.2,0-0.3-0.2-0.3-0.4c0-0.2,0.2-0.3,0.4-0.3l11.7,2.1
								c0.2,0,0.3,0.2,0.3,0.4C226.9,3.4,226.8,3.6,226.6,3.6z"/>
						</g>
						<g>
							<path class="st20" d="M227.7,0.9L227.7,0.9l-12-2.4c-0.2,0-0.3-0.2-0.3-0.4s0.2-0.3,0.4-0.3l11.9,2.4c0.2,0,0.3,0.2,0.3,0.4
								C228.1,0.8,227.9,0.9,227.7,0.9z"/>
						</g>
						<g>
							<path class="st20" d="M230-1.8C229.9-1.8,229.9-1.8,230-1.8l-11.7-2.3c-0.2,0-0.3-0.2-0.3-0.4c0-0.2,0.2-0.3,0.4-0.3L230-2.6
								c0.2,0,0.3,0.2,0.3,0.4C230.3-1.9,230.1-1.8,230-1.8z"/>
						</g>
						<path class="st20" d="M201.8,12c-0.7-2.9,0-6.6-0.2-8.8c-0.2-2.5-65-4.1-66.7-2.2l-2.1,5c0,0,1.2,3.5,33.6,4.9
							C193.3,12,200.2,12,201.8,12z"/>
						<path class="st19" d="M201.6,3.1c-0.1,1.4,0,3.1,0,4.7s-0.1,3.1,0.2,4.1c0.1,0,0.4,0,0.4,0l13.1-5.1c0,0-0.3-0.8-0.7-2l0,0
							C214.7,4.4,203.2,3.4,201.6,3.1z"/>
						<path class="st57" d="M240.3,17l-2.8-11.8c0,0,21.9-16.9,22.1-17.4c0.1-0.6-0.4-4.3,2.2-3.4s0.4-1,3.4-1c3,0,4.6-1.5,4.6-1.5
							h59.8L298.5,4.1c0,0,4,2-1,2.1c-5,0.1-2.4-0.4-5,1.2c-2.4,1.7-2.6-1.5-6.1,1.9c-3.4,3.4-26.5,16.1-26.9,16.2
							c-0.4,0.1-12.1-1.1-12.1-1.1S238.1,22.5,240.3,17z"/>
						<path class="st27" d="M264-12.6"/>
						<g>
							<path class="st58" d="M291.4,6.2c-8.2-13.6-22.7-21.5-22.8-21.6l0.4-0.8c0.1,0.1,14.9,8.2,23.2,21.9L291.4,6.2z"/>
						</g>
						<g>
							<path class="st58" d="M285.7,7.8c-0.1-0.2-9.4-17.9-20.6-21.1l0.2-0.8c11.6,3.2,20.7,20.7,21.1,21.4L285.7,7.8z"/>
						</g>
						<g>
							<path class="st58" d="M294.7,4.5c-4.3-11.6-20.9-19.6-21.1-19.7L274-16c0.7,0.3,17.1,8.3,21.5,20.2L294.7,4.5z"/>
						</g>
						<path class="st58" d="M315.5-17.1c-3.1,2.3-7.8,5.3-14.4,8.6c-14.2,7.2-33.1,20.4-38.8,23.2c-5.7,2.6-15.4,0.9-16,5
							c-0.1,1.2,1.1,2.5,2.9,3.9c3.4,0.4,9.5,1.3,9.8,1.2c0.4-0.1,23.8-12,27.5-15.3c3.5-3.3,3.6-0.1,6.2-1.7c2.5-1.5,0-1.1,5-1.1
							c5,0,1-2.1,1-2.1l31.9-21.3L315.5-17.1z"/>
						<path class="st39" d="M334.4-18c0,0-29.9,48.6-30,49.2c-0.1,0.6-2.5,4.9,0.6,6.8c3.7,2.4,7.1-0.7,8.2-3.3
							c1.1-2.6,33.5-53.8,33.5-53.8L334.4-18z"/>
						<polygon class="st59" points="348.9,-18 340.1,2.3 349.5,3.7 359.6,-18 						"/>
						<polygon class="st60" points="369.6,-20.3 362,-0.4 369.4,1.4 378,-20 						"/>
						<polygon class="st61" points="388,-21.2 382.2,0.9 390.3,1.9 397.1,-22 						"/>
						<path class="st18" d="M340.3-1.1l-12.1,30.5c0,0,0.2,3.4,3.2,4.9c3.4,1.7,7.3-0.7,8-1.9c0.8-1.2,11.5-30.2,11.5-30.2
							c0.1-0.2-1.4,0.1-3.6-0.2C345,1.8,342.2,1,340.3-1.1z"/>
						<path class="st30" d="M362-2.3l-12.1,30.5c0,0,0.2,3.4,3.2,4.9c3.4,1.7,7.3-0.7,8-1.9C361.9,30,372.6,1,372.6,1
							c0.1-0.2-1.4,0.1-3.6-0.2C366.7,0.5,364.1-0.2,362-2.3z"/>
						<path class="st33" d="M382.3-1.1L375,25.1c0,0,0.4,2.8,3.1,3.6c3,1,6-1.2,6.4-2.2c0.4-1.1,6.8-25.9,6.8-25.9
							c0.1-0.1-1.2,0.2-3,0.1C386.5,0.8,384.1,0.5,382.3-1.1z"/>
						<path class="st62" d="M316.1,19c-1.7-0.8-2.5-1.7-2.9-2.5c-2.4,4.1-4.6,7.6-6.3,10.3c0.8,1.3,2,2.5,4,3.3
							c1.4,0.7,3.1,0.7,4.6,0.4c1.7-2.6,4-6.5,6.6-10.7C320.5,20.1,318.3,20,316.1,19z"/>
						<path class="st63" d="M343.2-18.8c-5,8.5-28.1,47.4-34.8,56.4c-0.3,0.6-0.8,0.9-1.1,1.2c2.8,0.2,4.9-2.1,5.7-4.2
							c1.1-2.6,33.5-53.8,33.5-53.8L343.2-18.8z"/>
						<polygon class="st64" points="347.2,2 349.7,3.2 359.6,-18 355.9,-18 						"/>
						<polygon class="st65" points="368.9,0.7 371.5,1.9 380.9,-19.5 377.3,-19.5 						"/>
						<polygon class="st21" points="388.2,1.7 390.3,1.9 397.1,-22.8 394.3,-22.8 						"/>
						<path class="st49" d="M453.9-18c0,0-13.8,17.2-18.5,20c-4.6,2.6-9.8,2.2-13.9,1.9c-4.1-0.3-14.9-4.1-18.3-3.1
							c-3.4,1-2.8,4.5,0.3,6.6c3.1,2.1,11,5.3,14.1,5.7c3.1,0.4,2.2,1.1,2.2,1.1s-21.9,17.8-23.7,19.5c-2.6,2.8-2.5,6-0.3,7.2
							c2.2,1.2,6.4-0.2,8.4-1.9l-0.7,2.1c0,0-1.4,2.9,2.2,4.7c3.6,1.9,12-4,12.7-4.5s15.5-11,15.5-11s-9.7,17.2-10.1,18.3
							c-0.4,1.1-1.9,3.4-1.2,5.8c0.7,2.4,3.1,3.9,5.8,2.8c2.8-1.1,3.4-2.3,4.9-4.6c1.4-2.3,16.3-24.1,16.3-24.1
							c1.1-1.2,0.8-2.4,1.7,0.8c0.9,3.1,5.7,15.9,7.9,19.4c2.3,3.7,5.3,5.4,8.7,4.5c3.4-0.9,3.1-4.6,2.8-5.2
							c-0.3-0.6-6.8-21.5-4.9-31.6c0.9-4.3,7.9-12.7,16-19.8c7.2-6.4,16-14.3,16-14.3h-43.9V-18z"/>
						<g>
							<g>
								<line class="st56" x1="404.2" y1="38.9" x2="425" y2="20.4"/>
								<path class="st50" d="M404.2,38.9c0,0,0.3-0.3,0.8-0.9c0.6-0.6,1.3-1.3,2.2-2.2c1-0.9,2.1-2,3.3-3.1
									c1.2-1.1,2.5-2.3,3.7-3.4c1.3-1.1,2.6-2.3,3.9-3.3c1.2-1.1,2.4-2,3.4-2.9c1-0.9,1.9-1.4,2.5-2c0.7-0.4,1-0.7,1-0.7
									s-0.3,0.3-0.8,0.9c-0.6,0.6-1.3,1.3-2.2,2.2c-1,0.9-2,2-3.2,3.1c-1.2,1.1-2.5,2.3-3.7,3.4c-1.3,1.1-2.6,2.3-3.9,3.3
									c-1.2,1.1-2.4,2-3.4,2.9c-1,0.9-1.9,1.4-2.5,2C404.5,38.6,404.2,38.9,404.2,38.9z"/>
							</g>
						</g>
						<path class="st50" d="M481.7-3.7c7.2-6.4,16-14.3,16-14.3h-13c-0.4,0.3-14.3,12.3-19.5,19.4c-6.4,8.6-6.7,17.4-5.1,25.9
							c2.2,10.9,7.8,19.7,10.4,23.4c0.4-1.2,0.2-2.5,0.1-2.9c-0.2-0.6-6.8-21.5-4.9-31.6C466.6,11.8,473.7,3.5,481.7-3.7z"/>
						<path class="st66" d="M396.2,33.7c-2.3,2.4-2.5,6-0.3,7.2c2.2,1.2,6.4-0.2,8.3-1.9c0.6-1.8,0.4-3.4-0.3-4
							c-1.7-1.1-1.7-0.4-3.3-2.9c-0.3-0.6-0.9-0.9-1.4-1C397.5,32.2,396.5,33.2,396.2,33.7z"/>
						<path class="st30" d="M413.4,41.9c0,0-2,0.3-3.2-0.7c-1.2-1,0.6-3.7-2.8-4.2c-1.9-0.2-3.3,1.8-3.3,1.8l-0.7,2.1
							c0,0-1.4,2.9,2.2,4.7c2.1,1.1,5.7-0.3,8.5-1.9C414.6,42.8,414.3,42.1,413.4,41.9z"/>
						<path class="st28" d="M434,47.2c-2-1.2-2.4,0.2-4,1.1c-1.5,0.8-0.6-2.4-2.9-2.3c-0.8,0-1.7,0.6-2.5,1.2
							c-0.3,0.7-0.6,1.1-0.7,1.3c-0.3,1.1-1.9,3.4-1.2,5.8c0.7,2.4,3.1,3.9,5.8,2.8s3.4-2.3,4.9-4.6c0.2-0.3,0.8-1.2,1.5-2.4
							C434.7,48.8,434.5,47.7,434,47.2z"/>
						<path class="st67" d="M468.4,40.2c-1.8-2.1-1.8,0.7-4,3.2c-2.6,2.9-3.2-1.7-6.2-2.2c-1.1-0.2-1.7,0.6-1.8,1.7
							c1,2.4,2,4.5,2.8,5.6c2.3,3.7,5.3,5.4,8.7,4.5c3.4-0.9,3.1-4.6,2.8-5.2C470.5,47.6,469.5,44.5,468.4,40.2z"/>
						<path class="st28" d="M478.5,41.8c0-0.2-0.1-3.2,3.7-4.2c3.9-0.9,4.9-1.4,7.5-0.6c2.5,0.9,4.9,3.7,2.3,5.1
							c-2.5,1.3-4.2,1.5-7.9,1.8C478.3,44.3,478.5,41.8,478.5,41.8z"/>
						<path class="st28" d="M496.3,39.5c0,0,0-1.1,1.5-0.7s2.3,1,0.9,1.5C497.1,40.8,494.3,40.7,496.3,39.5z"/>
						<path class="st21" d="M486.9,7.4l6.2,27.5c0,0,5.4,2.4,12.6,2.2c10.5-0.4,19.4-4,20.1-6.1S527,1.4,527,1.4s-6.1-4.9-22.5-2.3
							C497.4,0.3,489.1,3.5,486.9,7.4z"/>
						<path class="st21" d="M487.3,8.3c0,0-1.9-2.2,1.4-7.1c3.3-4.9,10.6-7.3,18.3-8.3c5-0.6,13.7,0.8,16.5,2.9
							c3.4,2.4,4.1,5.1,3.5,6.4C526.6,4.1,490.5,10.6,487.3,8.3z"/>
						<polygon class="st15" points="453.8,64.4 459.3,66.6 537.7,39.6 537.7,33.7 						"/>
						<polygon class="st55" points="458.4,72.2 537.7,46 537.7,39.6 459.3,66.6 						"/>
						<polygon class="st9" points="444.7,73.3 453.8,64.4 459.3,66.6 458.4,72.2 445.4,74.6 						"/>
						<polygon class="st55" points="447.3,71.1 440.7,75.9 449,73.6 						"/>
						<path class="st68" d="M526.1,49.9l-69.7,68.5v4.9c0,0,4.7,0.1,6.3,4.2c0.3,0.9,0.2,1,0.2,1l6.2-1.7l68.6-70.9V46L526.1,49.9z"
							/>
						<path class="st51" d="M469.1,126.7c-0.7-1.7-1.9-3.1-3.1-4.4c-1.8-1.8-3.3-3.1-6.6-3.9c-1-0.2-1.9-0.2-2.9-0.2l-0.2,0.2v4.9
							c0,0,4.7,0.1,6.3,4.2c0.3,0.9,0.2,1,0.2,1L469.1,126.7z"/>
						<path class="st27" d="M450.1,133.5c0.7,1.4,1.2,2.3,3.5,2.9c2.1,0.6,3-0.4,3-0.4"/>
						<path class="st33" d="M456.2,133.6c-0.9-1.3-3.1-2.6-5.1-2.6c-0.4,0-0.8,0.1-1.1,0.3c-0.1,0.3-0.4,1,0.1,2.1
							c0.7,1.4,1.2,2.3,3.5,2.9c2.1,0.6,3-0.4,3-0.4l0.2-0.3C456.9,134.9,456.7,134.2,456.2,133.6z"/>
						<path class="st30" d="M501.4,93.4l-36.7,78.5c0,0-1.1,2.9,1.3,4.7c3.7,3,7.5,0.9,8.3,0s46.4-103.2,46.4-103.2L501.4,93.4z"/>
						<path class="st69" d="M524.6,69.5l-37.4,95c0,0-0.3,2.5,2.1,4.2c2.6,1.9,6.3,1.4,7.8-0.7c1.5-2.1,40.7-106.6,40.7-106.6v-5.6
							L524.6,69.5z"/>
						<path class="st70" d="M469.1,169.8c-2,0-3.6,1-4.6,2.6c-0.2,0.9-0.3,2.9,1.4,4.3c3.7,3,7.5,0.9,8.3,0c0,0,0.1-0.2,0.3-0.7
							c0-0.2,0.1-0.4,0.1-0.7C474.7,172.3,472.2,169.8,469.1,169.8z"/>
						<path class="st71" d="M492,161.7c-2.2,0-4,1.2-4.9,3.1c0,0.7,0.1,2.6,2.1,4c2.6,1.9,6.3,1.4,7.8-0.7c0.1-0.1,0.2-0.4,0.4-0.9
							C497.5,164.1,495,161.7,492,161.7z"/>
						
							<ellipse transform="matrix(0.2242 -0.9745 0.9745 0.2242 220.3933 608.3812)" class="st72" cx="492.3" cy="165.8" rx="1.2" ry="2.4"/>
						
							<ellipse transform="matrix(0.2242 -0.9745 0.9745 0.2242 194.7005 592.5838)" class="st30" cx="469.5" cy="174" rx="1.2" ry="2.4"/>
						<path class="st28" d="M140.8,36.5c-0.7-1.1-3.2-2.4-7.3-4.2c-4.1-1.7-19.2-5.4-33.3-8.4S43,14.6,40.2,15.4
							c-2.9,0.8,1,1.7-2.6,1.8c-3.6,0.1-3.6,1.7-4.5,1.7s-6.1-0.2-11.9,0s-8,4.6-8.3,5.1c-2.6,5.6-0.1,10.6,4.1,13.2
							c3.1,2.1,10.1,5.1,24.4,5.1c6.6,0,8.8-3.9,9.5-7.3c0.9-4.2,2.1-3.5,5.6-4.4c3.5-0.9,45.9,3.1,48.6,3.3s1.5,1.1,4.6,0.6
							c3.1-0.6,2.1,0.9,4.6-0.1s2.1,1.8,4.3,1.1c2.2-0.7,1-0.4,3.4,0.9c0.9,0.4,1.8-1.2,4.2-0.1c2.4,1.1,2.2,2.3,3,1.1
							c1.7-2.6,1.4,0.1,2,1c0.4,0.6,2.5,0.4,3.2-0.2c1-1.3,2,0.6,3.9,1S141.5,37.9,140.8,36.5z M45.1,33.1c-0.7,3.9-7.4,6.1-15,4.7
							s-13.3-5.5-12.7-9.4c0.7-3.9,7.4-6.1,15-4.7C40.2,25,45.8,29.2,45.1,33.1z"/>
						<path class="st73" d="M91.6,36.1c0.9-2.4,3.1-2.3,2.1-4.2C92.7,30,76.9,3.5,76.3,1.7c-0.7-2.3-3-5.7,0-6.2
							c3-0.4,6.1,0.2,7.8-2.9s1.3-9.2,0-10.6c-0.4-0.4-3.5-0.7-7.6-0.7c3.1,2.1,4.7,4.7,4,6.9c-1.1,3.2-6.8,4.2-12.8,2.2
							c-5.6-1.9-9.5-5.6-9.2-8.7c-2.5,0-4.2,0.1-4.2,0.1S59,2.9,70.9,24.6c11.7,21.5,30.1,42.8,34.4,46.3c4.3,3.5,9.4,4.9,9.4,4.9
							S90.8,38.6,91.6,36.1z"/>
						
							<ellipse transform="matrix(0.2478 -0.9688 0.9688 0.2478 36.0828 100.3621)" class="st28" cx="82.7" cy="26.9" rx="4.5" ry="6.3"/>
						<path class="st74" d="M70.9,24.6c11.7,21.5,30.1,42.8,34.4,46.3c4.3,3.5,9.4,4.9,9.4,4.9s-0.1-0.1-0.1-0.2
							c-4.2-3.1-9.7-8-16.4-16C71.9,28.3,59.6-8.5,56.7-18.1C55.3-18,54.5-18,54.5-18S59,2.9,70.9,24.6z"/>
						<path class="st22" d="M-1.5,230.6c-5.5,1.3-32.7,7.4-32.6,6.9c0.1-0.4,1.9,22.2,2.2,22.8c0.8,1.4,5.2,2.9,10.9,3.3
							c-0.4-3.7-1.1-12.6,0.1-15.9c1.5-4.3,8.5-4.9,19.8-12.3L-1.5,230.6z"/>
						<path class="st15" d="M-40.5,217.5c0,0,1.5,19.2,1.9,20c0.3,0.8,12.2,1.5,24.5,0.8c12.1-0.7,19.7-3.1,20.6-4s-0.9-19.2-1.3-20
							c-1.5-2.5-15.3-3.9-23.7-3.5C-27.9,211.2-39.2,213.7-40.5,217.5z"/>
						<path class="st22" d="M-40.5,217.5c0,0-1.1,4.5,20.7,4.2c14.9-0.2,21.7-2.8,24.3-5.4c1.2-1.3,0.3-1.9,0.2-2.2
							c-0.3-1-8.5-3.3-20-3.4c-9,0-11.5,1-14.2,1.4C-32.1,212.5-40.2,214.8-40.5,217.5z"/>
						<path class="st28" d="M17.9,186.9c0,0-6.8,15.1-6.9,15.8c-0.1,0.7,8.6,6.5,18.1,11.2s16.2,6.3,17.2,6s7.3-14.8,7.3-15.7
							c-0.1-2.6-9.9-9.7-16.3-13C30.1,187.7,20.4,184.6,17.9,186.9z"/>
						<path class="st21" d="M17.9,186.9c0,0-2,3,14.6,12.1c11.2,6.3,17.3,7.4,20.1,6.4c1.4-0.4,0.9-1.2,1-1.5
							c0.1-0.9-5.1-6.2-13.8-11.1c-6.7-4-8.9-4.3-11.1-5.1C26.6,187,19.1,185.1,17.9,186.9z"/>
						<path class="st5" d="M-15.7,152.6c0,0,8.6,14.1,9.2,14.6c0.6,0.4,10.1-3.5,19.5-8.6c9.3-5.2,14.3-9.8,14.6-10.8
							c0.2-1-8.2-14.3-8.8-14.8c-2.2-1.4-13.6,2.9-20,6.3C-8.1,142.9-16.2,149.2-15.7,152.6z"/>
						<path class="st75" d="M-15.7,152.6c0,0,2.8,3.2,18.3-4.7c11.5-5.8,15.5-10.5,16.3-13.3c0.4-1.4-0.6-1.4-0.8-1.7
							c-0.7-0.6-8,0.6-17,5.2s-8.4,5-10.3,6.3C-10.9,145.6-16.3,150-15.7,152.6z"/>
						<g>
							<g>
								<path class="st19" d="M-72.4-287.4c0.9,0,0.9-1.3,0-1.3S-73.3-287.4-72.4-287.4L-72.4-287.4z"/>
							</g>
						</g>
						<g>
							<path class="st76" d="M26.4,263.1c4.3,6.3,9.7,14.4,17.9,15.8c7.3,1.2,8.8-6.5,7.2-11.9c-0.2-0.9-1.5-0.4-1.3,0.3
								c1.4,4.7,1.2,11.7-7.1,9.8c-2.5-0.6-5.3-2.6-7.2-4.3c-3.3-3-5.8-6.7-8.3-10.4C27.1,261.7,25.9,262.4,26.4,263.1L26.4,263.1z"
								/>
						</g>
						<g>
							<path class="st76" d="M9.4,276.1c1.8,15.5,14.9,26.6,24.7,37.7c3.1,3.5,6.2,7.2,9.3,10.7c3.2,3.7,7.5,7.7,8.8,12.6
								c1.9,7.1-4.4,13.8-11.4,13.8c-5.6,0-10.4-3.7-13.1-8.5c-0.4-0.8-1.7-0.1-1.2,0.7c3.6,6.3,10.9,10.9,18.3,8.5
								c6.9-2.2,10.9-9.7,8.2-16.5c-1.7-4.1-5.2-7.5-7.9-10.8c-4.3-5-8.5-9.9-12.8-14.8c-8.7-9.9-19.7-19.6-21.4-33.4
								C10.6,275.2,9.3,275.2,9.4,276.1L9.4,276.1z"/>
						</g>
						<g>
							<path class="st76" d="M11.1,297.3c4.3,6.2,9.5,11.8,14.4,17.4c3,3.4,5.8,6.8,8.4,10.7c1,1.4,1.9,2.9,2.6,4.4
								c0.6,1,1,2,1.5,3.1c-1.2,4.2-3.1,5.5-5.7,4c-0.8-0.3-1.2,1-0.3,1.3c2.5,1,6.3,2.1,7.9-0.9c1.9-3.3-2.8-9.3-4.4-11.8
								c-6.7-10.5-16.2-18.7-23.3-28.9C11.7,295.9,10.5,296.5,11.1,297.3L11.1,297.3z"/>
						</g>
						<g>
							<path class="st76" d="M-5.9,346.7c16.2,1.8,25.9,15.3,34.4,27.8c0.4,0.8,1.7,0,1.2-0.7c-8.7-12.9-18.9-26.7-35.6-28.4
								C-6.8,345.2-6.8,346.6-5.9,346.7L-5.9,346.7z"/>
						</g>
						<g>
							<path class="st76" d="M-5.6,352.6c9.9-0.6,18.2,10,20.8,18.5c0.2,0.9,1.5,0.4,1.3-0.3c-2.9-9.2-11.6-20.2-22.2-19.5
								C-6.5,351.3-6.5,352.6-5.6,352.6L-5.6,352.6z"/>
						</g>
						<g>
							<path class="st76" d="M75.2,370.2c-2.6-6-5.4-14.1-4.3-20.7c0.3-2.3,2-5.1,4.5-5.8c0.9-0.2,2.4,0.2,3.4,0.2
								c1.8,0,3.5,0,5.3-0.3c7.3-1.2,14.3-5.8,17.6-12.6c2.9-5.8,1.7-11.6,0.1-17.6c-2-7.6-4.7-14.9-7.1-22.3
								c-0.2-0.9-1.5-0.4-1.3,0.3c4.7,15,16.6,36.5-1,47.4c-4.7,2.9-9.7,3.6-15.1,3.4c-2.4-0.1-5.3-0.4-6.9,1.9
								c-2.1,3-1,8.9-0.7,12.1c0.7,5.1,2.1,9.8,4.2,14.6C74.3,371.7,75.5,370.9,75.2,370.2L75.2,370.2z"/>
						</g>
						<g>
							<path class="st76" d="M84.9,370.3c-1.4-2.8-2.2-5.7-2-8.8c0.2-3.3,1.4-8.5,5.7-7.2c0.9,0.2,1.2-1.1,0.3-1.3
								c-4-1.2-5.6,1-6.8,4.7c-1.4,4.5-0.8,9.2,1.4,13.2C84.1,371.8,85.4,371,84.9,370.3L84.9,370.3z"/>
						</g>
						<g>
							<path class="st76" d="M88.4,306.3c2,4.6,3.3,9.6,3.1,14.7c-0.1,2.5-0.4,5.3-1.8,7.5c-2,3.1-6.8,4.5-10,2.4
								c-4.6-3.1-6.4-9.2-6.1-14.4c0.1-2.2,0.7-4.4,1.5-6.4c0.6-1.4,1.3-2.8,2.4-4c2.4-3.1,5.4-2.8,8.9,1.1c0.1,0.9,1.4,0.6,1.3-0.3
								c-1.2-6.9-8.9-4.7-12.1-0.6c-4.7,6.4-4.6,16.6,0.2,22.9c3.5,4.6,10.3,6.1,14.3,1.3c5.5-6.5,2.5-17.9-0.4-24.7
								C89.3,304.9,88.1,305.6,88.4,306.3L88.4,306.3z"/>
						</g>
						<g>
							<path class="st76" d="M137.9,368.8c2.9-5.6,6.7-10.5,13.9-8.6c5.1,1.3,8.6,5.6,11.8,9.4c0.6,0.7,1.5-0.3,1-1
								c-4.1-4.9-8.9-10.3-15.9-10.3c-6.2,0-9.5,4.7-12,9.7C136.4,368.9,137.5,369.6,137.9,368.8L137.9,368.8z"/>
						</g>
						<g>
							<path class="st76" d="M144.6,368c4-3,9.8-2.1,12.7,2c0.6,0.8,1.7,0,1.2-0.7c-3.3-4.6-10-5.8-14.7-2.4
								C143.1,367.3,143.8,368.4,144.6,368L144.6,368z"/>
						</g>
						<path class="st77" d="M98,370.5c0,0,25-22.6,26.9-24.7c2.1-2.4,7.9,2.8,7.3,3.7c-0.4,0.8-20.9,22.2-20.9,22.2L98,370.5z"/>
						<path class="st78" d="M106,340.7c0,0-11.8,19.3-15.4,29.1c-3.6,9.8,14.6,3.1,14.6,3.1s8.7-14.3,14-28.2
							C120.9,340.1,108.4,336.6,106,340.7z"/>
						<path class="st39" d="M105,340.3c0,0-1.1,3.5,5.7,6.4c4.4,1.8,7.4,1.2,8.2,0.7c0.8-0.6,17.9-41,17.9-41s-3.2-1.1-4.6-2.6
							C131.2,302.7,105,339.1,105,340.3z"/>
						<path class="st39" d="M151,323.6c-0.6,1-27,21.9-27,21.9s-1,1.9,0.9,3.9c1.8,1.8,4.5,3.4,5.7,2.4c5.1-4.1,23-26.2,23-26.2
							L151,323.6z"/>
						<path class="st79" d="M111.5,332c-0.2-0.2-0.3-0.3-0.4-0.6c-0.9,1.2-1.7,2.3-2.4,3.3c0.7,1,1.7,2,3,3c3.7,2.9,8.2,3,10.6,2.8
							c0.6-1.3,1.2-2.8,1.9-4.2C121.3,336.6,115.2,335.8,111.5,332z"/>
						<path class="st79" d="M110.4,339.4c-1.3-0.8-2.3-1.8-3.1-2.6c-1.4,2-2.3,3.4-2.3,3.6l0,0c1.5,1.7,3.5,3.5,6.1,4.7
							c2.5,1.2,5.7,1.7,8.3,1.5c0.4-0.8,1.1-2.3,2-4.4C118.7,342.4,114.2,341.8,110.4,339.4z"/>
						<path class="st79" d="M129.1,341.5c-0.8,0.7-1.4,1.2-2.1,1.7c0.3,0.9,0.8,1.9,1.1,2.4c0.9,1,2.4,2.6,4.7,3
							c0.4,0.1,0.8,0.1,1.1,0.1c0.7-0.7,1.1-1.2,1.9-2C133,347,129.7,345.4,129.1,341.5z"/>
						<path class="st79" d="M125.8,344.1c-0.7,0.6-1.2,1-1.5,1.2c0.2,1,0.7,2,1.3,2.9c2,2.6,4,3.1,5.6,3.3c0.6-0.4,1.1-1,1.8-1.8
							C126.9,349.1,126.2,344.7,125.8,344.1z"/>
						<path class="st79" d="M139.5,352.6c-0.7-0.8-1-1.7-1-2.5l-1,0.6c0,0.6,0.1,1.2,0.4,1.8c0.8,1.8,2.3,2.3,3.3,2.4l1-0.9
							C141.5,354.1,140.4,353.6,139.5,352.6z"/>
						<path class="st79" d="M139.1,356.7l1.1-0.9c-1.9-0.6-3.9-2.3-3.5-4.5l-1.1,0.7C135.4,353.2,135.5,355.5,139.1,356.7z"/>
						<path class="st80" d="M131.1,307.5c0,0-19.8,22.6-18,23.9C116.2,333.8,136.8,303.5,131.1,307.5z"/>
						<path class="st80" d="M148.3,327.1c0,0-19.1,15.1-17.5,16.3C133.2,345.4,153.6,324.5,148.3,327.1z"/>
						<path class="st80" d="M151.2,343.3c0,0-12.8,6.8-12,7.7C140.4,352.4,154.5,342.4,151.2,343.3z"/>
						<path class="st81" d="M104.8,347c0,0-14.6,21.9-13.2,23.3C93.8,372.6,109,343.1,104.8,347z"/>
						<path class="st82" d="M122.4,350.2c0,0-10.1,8.7-9.8,9.6C113,361.2,124.8,348.9,122.4,350.2z"/>
						
							<ellipse transform="matrix(0.6414 -0.7672 0.7672 0.6414 -216.7203 205.9486)" class="st80" cx="111.9" cy="334.8" rx="1.4" ry="2.5"/>
						
							<ellipse transform="matrix(0.6414 -0.7672 0.7672 0.6414 -221.8109 205.2443)" class="st80" cx="108.7" cy="339.9" rx="1.4" ry="2.5"/>
						
							<ellipse transform="matrix(0.8454 -0.5342 0.5342 0.8454 -163.851 122.0566)" class="st80" cx="128.9" cy="344" rx="0.8" ry="1.5"/>
						
							<ellipse transform="matrix(0.8453 -0.5342 0.5342 0.8453 -165.6616 120.8609)" class="st80" cx="125.9" cy="346.5" rx="0.8" ry="1.4"/>
						<polygon class="st83" points="232.8,331.2 234.9,335.1 221.1,330.2 223.9,328.5 						"/>
						<path class="st84" d="M271.4,358l7.4-3.4c0,0,0.3,0.4,0.2,1.2s-0.8,1.3-0.8,1.3l-7.1,3.3C271.1,360.6,271.4,359.1,271.4,358z"
							/>
						
							<ellipse transform="matrix(0.7728 -0.6347 0.6347 0.7728 -166.8378 249.2243)" class="st85" cx="264.6" cy="357.6" rx="0.9" ry="2.3"/>
						
							<ellipse transform="matrix(0.7728 -0.6347 0.6347 0.7728 -170.1016 245.3456)" class="st85" cx="257.6" cy="360.2" rx="0.9" ry="2.3"/>
						<line class="st56" x1="259" y1="357" x2="259" y2="357"/>
						<path class="st27" d="M259.8,356.8"/>
						
							<ellipse transform="matrix(0.9373 -0.3485 0.3485 0.9373 -112.4662 107.1898)" class="st86" cx="241.7" cy="366.2" rx="10.9" ry="1.1"/>
						<g>
							<path class="st76" d="M14.6,265.5c-1.2,5.1,0.2,10.1,4.3,13.5c1.9,1.5,4,2.2,6.2,3c3.6,1.1,5.7,3.5,7.4,6.8
								c0.4,0.8,1.7,0.1,1.2-0.7c-1.4-2.8-3.5-5.7-6.4-6.9c-2.9-1.2-5.5-1.4-7.9-3.6c-3.4-3-4.4-7.4-3.4-11.7
								C16.1,265.1,14.8,264.7,14.6,265.5L14.6,265.5z"/>
						</g>
						<g>
							<path class="st76" d="M56,270.5c0.8,10.1,4.1,20.5,14.4,24.6c6.7,2.6,15-1.2,17.6-7.8c0.3-0.8-1-1.2-1.3-0.3
								c-3.3,8.3-13.3,9.3-19.8,4.4c-6.9-5.2-8.9-12.7-9.5-20.9C57.4,269.6,56,269.6,56,270.5L56,270.5z"/>
						</g>
						<path class="st87" d="M156.9,254.2c0.2-1.3-3.7,7.8-11.2,15.4c-7.6,7.6-13.5,15-14.2,22.3s0,11.1,0.7,11.7
							c0.7,0.6-0.7,1.8,1.3,1.9c2,0.1-1.7,4.6,11.8-5.3c7.5-5.5,11.1-17.1,12.1-28.8C157.9,264.7,156.7,255.9,156.9,254.2z"/>
						<path class="st42" d="M156.9,254.2c0-0.2,0-0.2-0.1,0c-0.3,4-0.7,13.3-5.4,21.7c-6.6,11.7-13.9,13.6-17.3,23.5
							c-0.9,2.5-1.1,4.3-0.6,6.3c1.5,0.3-1.3,4.3,11.7-5.4c7.5-5.5,11.1-17.1,12.1-28.8C157.9,264.7,156.7,255.9,156.9,254.2z"/>
						<path class="st8" d="M519.2,222.4c0,0-5.5,1.1-6.3,7.5c-1.3,10.3,4.9,16.9,9.4,15.3C525.4,244.1,513.9,230.1,519.2,222.4z"/>
						
							<ellipse transform="matrix(0.7071 -0.7071 0.7071 0.7071 82.7533 374.1798)" class="st88" cx="493.1" cy="87.2" rx="39.7" ry="2"/>
						
							<ellipse transform="matrix(0.4218 -0.9067 0.9067 0.4218 165.5392 517.9888)" class="st89" cx="488.9" cy="129.2" rx="39.7" ry="2"/>
						
							<ellipse transform="matrix(0.3524 -0.9359 0.9359 0.3524 203.6081 556.1758)" class="st90" cx="503.7" cy="131" rx="30.2" ry="0.9"/>
						<path class="st91" d="M527.2,2.3c0-0.6,0-0.9,0-0.9s-6.1-4.9-22.5-2.3c-7.4,1.1-15.7,4.3-17.9,8.3c2.4,1.7,5.8,3.4,9.5,4.1
							c6.8,1.2,17.9-0.6,22.7-2.8C522.6,7.1,525.5,4.2,527.2,2.3z"/>
						<ellipse class="st92" cx="499.5" cy="8.7" rx="8.8" ry="2.8"/>
						<polygon class="st93" points="390.4,323.1 390.4,327.7 428.1,377.9 430.9,375.2 						"/>
						<polygon class="st94" points="358.1,340.5 358.1,345.1 395.8,395.3 398.6,392.7 						"/>
						<polygon class="st95" points="325.2,359.8 325.2,364.5 362.9,414.7 365.6,412.1 						"/>
						<g>
							<path class="st21" d="M73.1,28.5c-9-0.3-17.1-0.4-20.4,0c-7.3,1-4.2,7.4-6.4,9.7c-4.2,4.3-11.5,2.3-20.2,0.7
								c-9.7-1.8-13.2-7.1-14.3-11.7c-0.7,4.3,1.7,7.9,5,10c3.1,2.1,10.1,5.1,24.4,5.1c6.6,0,8.8-3.9,9.5-7.3
								c0.9-4.2,2.1-3.5,5.6-4.4c1.4-0.3,9.3,0.1,18.4,0.8L73.1,28.5z"/>
							<path class="st21" d="M139.3,37.2c-1.7,0-5.1-1.1-13.1-3c-8.2-2-20.1-1.8-26.1-3.4c-1.3-0.3-4.1-0.8-7.6-1.1l1.5,3.1
								c6,0.6,10.1,1,11,1.1c2.8,0.2,1.5,1.1,4.6,0.6c3.1-0.6,2.1,0.9,4.6-0.1c2.5-1,2.1,1.8,4.3,1.1c2.2-0.7,1-0.4,3.4,0.9
								c0.9,0.4,1.8-1.2,4.2-0.1c2.4,1.1,2.2,2.3,3,1.1c1.7-2.6,1.4,0.1,2,1c0.4,0.6,2.5,0.4,3.2-0.2c1-1.3,2,0.6,3.9,1
								c1.3,0.3,2.4-0.3,2.6-1.1C140.4,37.4,139.8,37.2,139.3,37.2z"/>
						</g>
						<path class="st96" d="M78.7,23.8c0,0-1.8,0.6-1.5,2.6c0.3,2.1,2.3,3.5,4.5,3.9c3.7,0.6,6.1-0.3,1-1.8
							C77.6,27.2,78.7,23.8,78.7,23.8z"/>
						<path class="st97" d="M184.6-18h-15.1H168c-1.7,1.9-4.1,5.6-5.8,10c-3,7.6-3,14.3-2.5,18.4c2.1,0.1,4.3,0.2,6.8,0.3
							c3.1,0.1,6,0.2,8.6,0.3c-0.6-4.3-0.7-10.5,2.2-16.8C179.7-11.3,182.7-15.8,184.6-18z"/>
						<path class="st98" d="M163.5-4.5c-2,7.7,5.2,13.2,6.3,9c3-11.7,5.5-13,9.4-16c5.8-4.5-6.6-8-9.6-4
							C166.7-11.3,164.4-7.8,163.5-4.5z"/>
						<ellipse class="st99" cx="194" cy="29.6" rx="5.5" ry="2.4"/>
						<path class="st100" d="M258.1,21.1c-2.3-7.4-5.5-11.7-13.6-14.9c-2.5-1-7.1-1.1-7.1-1.1l2.6,11.8c-1.1,2.5,0.4,4.4,2.3,5.6
							c1.2,0.6,2.5,1.1,3.9,1.7c0.6,0.2,1,0.2,1,0.2s10,1.2,11.8,1.2C259,24.5,258.7,22.9,258.1,21.1z"/>
						<path class="st101" d="M229.6,25.6l11.4-9.7c0,0,1.8-0.3,4.9,2c2.6,2,2.6,5.3,2.6,5.3l-11,10.1c0,0-4.3,1.1-6.6-1.7
							S229.6,25.6,229.6,25.6z"/>
						<path class="st15" d="M237.3,33.3c1-1.1,1.4-2.6,1-4.5c-0.9-3.7-4.6-5.1-7.4-4.1c-0.3,0.1-0.7,0.3-0.9,0.4l-0.6,0.4
							c0,0-1.1,3.3,1.2,6.1C232.9,34.2,236.6,33.6,237.3,33.3z"/>
						<path class="st99" d="M247,2.8c0,0,16.2-8.8,18-11s2.9-1.9,6.4-3c3.5-1.1,4-1.1,6.8-3s4.1-5.7-1.7-3.1s-2.8-3-13.5,4.4
							c-10.7,7.5-20.8,14.8-21.1,16C241.7,4.8,247,2.8,247,2.8z"/>
						<path class="st102" d="M229.8,8.9c2-1.3,3.2-3.1,3.4-5.6c0.3-5.3-1.9-6.3-1.9-6.3c-1.2,0.4-3.1,1.7-3.9,3.5
							c-2,4.5-1.1,7.9-0.3,9.3C227.4,9.6,228.8,9.5,229.8,8.9z"/>
						<path class="st100" d="M313.1,19c0,0,4.6-1.2-3.3,11c-2.8,4.2-6,7.1-4.9,3.1S308.5,24.2,313.1,19z"/>
						<path class="st103" d="M388.5,0.9c-0.2,0-0.6,0-0.8,0c-0.3,3.6-1.5,12.8-5.5,23.8c-1.4,3.9-2.4,4.4-2.4,4.5
							c2.1-0.2,3.7-1.7,4.3-2.4s7.2-26,7.2-26C391.3,0.6,390.3,0.9,388.5,0.9z"/>
						<path class="st104" d="M368.7,0.7c-0.3,0-0.7-0.1-1-0.1c-0.8,4.4-2.9,15.2-8.6,28c-2,4.5-3.2,5.1-3.2,5.2
							c2.5-0.1,4.7-1.5,5.3-2.5c0.7-1.2,11.1-30.3,11.1-30.3C372.4,0.7,370.9,0.9,368.7,0.7z"/>
						<path class="st105" d="M347.2,2c-0.3,0-0.7-0.1-1-0.1c-0.8,4.4-3.1,15.2-8.9,27.9c-2.1,4.5-3.3,5.1-3.3,5.1
							c2.5,0,4.7-1.5,5.3-2.4c0.7-1.2,11.5-30.2,11.5-30.2C351,2,349.3,2.3,347.2,2z"/>
						
							<ellipse transform="matrix(0.3603 -0.9328 0.9328 0.3603 191.0798 326.3465)" class="st106" cx="333.5" cy="23.9" rx="5.8" ry="1.9"/>
						
							<ellipse transform="matrix(0.3603 -0.9328 0.9328 0.3603 203.8465 346.5984)" class="st107" cx="354.6" cy="24.7" rx="5.8" ry="1.9"/>
						
							<ellipse transform="matrix(0.2705 -0.9627 0.9627 0.2705 257.7177 379.4395)" class="st108" cx="379.2" cy="19.7" rx="5.4" ry="1.4"/>
						<path class="st108" d="M424.7,50.2c0,0-2.2,3-0.6,4.5C425.8,56.3,428.6,56.5,424.7,50.2z"/>
					</g>
				</g>
			</g>
		</g>
	</g>
</g>
<g id="Layer_5">
</g>
</svg>
