<svg id="Layer_1" data-name="Layer 1" xmlns="http://www.w3.org/2000/svg" xmlns:xlink="http://www.w3.org/1999/xlink" viewBox="0 0 4747.01 2417.12"><defs><linearGradient id="Neutral_2" x1="-3354.51" y1="3540.85" x2="-3354.51" y2="3538.73" gradientTransform="matrix(-1, 0.04, 0.04, 1, 8732.88, -76.84)" gradientUnits="userSpaceOnUse"><stop offset="0" stop-color="#fff"/><stop offset="0.13" stop-color="#939393"/><stop offset="0.29" stop-color="#939393"/><stop offset="0.64" stop-color="#bbb"/><stop offset="0.8" stop-color="#d6d6d6"/><stop offset="1" stop-color="#939598"/></linearGradient></defs><title>Bibliomovil_isologo</title><path d="M8792.23,3995.54c9.09,44.06,60.92,74.83,119.94,69.74,46.76-4,84.69-29.44,98.59-62.14l-57.58-2.34Z" transform="translate(-8269.42 -2255.67)" style="fill:none"/><path d="M12824.49,2967.9l84.36,188.64s43.7,5.19,57.17,2.12,50.4-26.82,50.4-26.82l-87.8-202.9-9.91-28.3-155.07-105.56-60.34,5.16c25.84,50.24,50.41,103.13,71.72,156.29Z" transform="translate(-8269.42 -2255.67)" style="fill:#fff"/><path d="M8284.39,3973.72l0-.09-1.12,0Z" transform="translate(-8269.42 -2255.67)" style="fill:#fff"/><path d="M9150.72,4005.83l1866.84,78.83c52.38-127.47,205.81-220.34,382.32-219.45,188.58,0.95,340.2,108.49,366.87,249.88l415.49,16.88c25.64-2.74,229.59-27,400.58-82.68,4.06-1.33,61.2-29.76,65.08-31.49,117.25-52.1,276.66-147,325.56-150.75a91.66,91.66,0,0,0,5-25.87s13.13-222.93-1.21-246.57c4.34-10.07-11.82-69.32-41.57-156.53,18.63,65.09,32.28,116.84,39.3,145.88-187.54,138.54-592,157.37-692.63-83.86-15.74-37.84-67.42-222.82-73.38-239.45-13.49-65.27-37.31-149.85-66-241.18l-52.73-19.09-59.14-25.36c66.59,240.52,120.35,495.76,116.09,628.17a21.82,21.82,0,0,1-4.11,1.39l62.44,521.76-62.44-521.76c-74.08,18.06-549.35-176-805-423.36-15.52-15-49.6-36.67-63.41-52-220.17-149.57-403.21-615.92-428.66-679.08,73.9-4.56,852.06-193.15,974.11-36.69,36.25,27.12,109.79,219.43,178,447.18l40.48-20.72,45.79,2.29c-84.14-244.55-177.72-481.54-187-496-16.88-20.11,427.42,38.88,575.94,126.62,10.11,3.88,24.8,16.62,42.56,36.45-42.52-63.45-80.94-105-111.3-112.57C12205,2347,11665,2248.9,11554.16,2256c-36.07,5.88-749.62,142.82-1495.38,283.93-760.62,143.89-1587.83,321.36-1601.43,325-127.62,62.25-138.72,274-149.24,316.79-4.37,39.92-48.09,722.2-23.76,791.9l371.23,15.08c12.31-130.93,131.12-233.53,266.94-229.51,137.19,4,239.52,115.16,228.19,248.06m-791.7-820c-31.08-44.47,39.39-233,73.12-279.37,10.55-14.36,2239.51-429.85,2327.4-446.09,17.7,54.87,111.4,309.38,171,394.57,4.35,11.67-439,68.28-983.54,148.28C9390.67,3086.44,8712.82,3199.47,8359,3187.24Zm496.8,429.82s31-240.34,34.63-290.8c0,0,2027.34-141.21,2135.29-153.28,54.24,85.74,321.75,262.63,371.2,290.83,0,0,7.42,64.24,9.13,118.14C11406.07,3581.95,8961.28,3621.35,8855.82,3617.06Zm3364.92-283.74-0.64-2.09S12220.34,3332,12220.73,3333.32Zm760.57,280.38a203.11,203.11,0,0,1,.12,45.66c10.68,145.13-762.51,130.41-821.51,59.58l1,31.85-1-31.85c-0.41-.49-0.79-1-1.14-1.49l-4.42-53.41C12183,3750.57,12992.19,3761.54,12981.3,3613.7Z" transform="translate(-8269.42 -2255.67)" style="fill:#fff"/><path d="M12935.72,3438.08c-37-129.21-93.59-311-157-472.22q-1.83-4.66-3.7-9.32l-32.25-7.41C12821.49,3127.86,12892.77,3312.13,12935.72,3438.08Z" transform="translate(-8269.42 -2255.67)" style="fill:#fff;stroke:#fff;stroke-miterlimit:10;stroke-width:3.76475567256814px"/><path d="M12689.42,2774.66l11.71,25.77,2.16-.18c-65-126.4-138.05-236-187.35-291.05,45.78,68.32,96.31,162,146.65,265.95Z" transform="translate(-8269.42 -2255.67)" style="fill:#fff;stroke:#fff;stroke-miterlimit:10;stroke-width:3.76475567256814px"/><path d="M12763.65,2937.91s-8.61,2.31-23.14,6.08l2.26,5.14,32.25,7.41c-21.31-53.17-45.88-106.05-71.72-156.29l-2.16.18Z" transform="translate(-8269.42 -2255.67)" style="fill:#fff;stroke:#fff;stroke-miterlimit:10;stroke-width:3.76475567256814px"/><path d="M12220.1,3331.22l0.64,2.09C12220.34,3332,12220.1,3331.22,12220.1,3331.22Z" transform="translate(-8269.42 -2255.67)" style="fill:#fff"/><path d="M12220.1,3331.22l0.64,2.09C12220.34,3332,12220.1,3331.22,12220.1,3331.22Z" transform="translate(-8269.42 -2255.67)" style="fill:url(#Neutral_2)"/><path d="M12701.14,2800.43l-11.71-25.77-26.82.47q6.6,13.62,13.18,27.46Z" transform="translate(-8269.42 -2255.67)" style="fill:#fff"/><path d="M12740.51,2944c14.53-3.77,23.14-6.08,23.14-6.08l-62.51-137.48-25.36,2.17C12697.61,2848.46,12719.32,2896,12740.51,2944Z" transform="translate(-8269.42 -2255.67)" style="fill:#fff"/><path d="M12313.33,2980.25l2.37,14.19c49.22,7.43,96,12.82,122.62,11.71,64.9-2.68,223.94-42,292.74-59.72l-2-.46-88-25.64-31.85,4.1-16.14-71.83,63-48.33,19.69-1.68q-6.59-13.84-13.18-27.46l-596,10.5,19.92,56.62,75,3.75Z" transform="translate(-8269.42 -2255.67)" style="fill:#fff"/><path d="M12656.09,2804.28l-63,48.33,16.14,71.83,31.85-4.1,88,25.64,2,0.46,9.46-2.44c-21.19-48-42.9-95.53-64.73-141.4Z" transform="translate(-8269.42 -2255.67)" style="fill:#fff"/><path d="M12038.67,2839.86l-40.48,20.72c11.19,37.38,22.24,75.72,33,114.43l59.14,25.36,52.73,19.09c-18.05-57.47-38-117.62-58.57-177.32Z" transform="translate(-8269.42 -2255.67)" style="fill:#fff"/><path d="M12248.32,3250.87s48.38,12,64.17,10.68,62.52-21.27,62.52-21.27l-56.45-228.62-2.87-17.22c-89.63-13.52-187.52-33.78-187.52-33.78l-41.66-118.41-2.05-.1c20.54,59.7,40.51,119.85,58.57,177.32l50.18,18.16Z" transform="translate(-8269.42 -2255.67)" style="fill:#fff"/><path d="M11965.62,2877.26l33.85,84.18,31.67,13.58c-10.72-38.72-21.77-77.05-33-114.43Z" transform="translate(-8269.42 -2255.67)" style="fill:#fff"/><path d="M12315.69,2994.44l-2.37-14.19L12161.49,2846l-75-3.75,41.66,118.41S12226.06,2980.92,12315.69,2994.44Z" transform="translate(-8269.42 -2255.67)" style="fill:#fff"/><polygon points="2994.76 663.44 3102.16 720.32 3736.29 721.26 3730.06 705.77 3727.2 704.54 3690.43 704.18 3687.88 625.85 3696.21 621.59 3689.54 605.01 2994.76 663.44" style="fill:#fff"/><polygon points="3690.43 704.18 3727.2 704.54 3730.06 705.77 3696.21 621.59 3687.88 625.85 3690.43 704.18" style="fill:#fff"/><path d="M8655.59,3988.71c-0.07.78-.16,1.57-0.23,2.35l70.62,2.31c-0.06-.6-0.1-1.21-0.15-1.81Z" transform="translate(-8269.42 -2255.67)" style="fill:#fff"/><path d="M8792,3994.25c0.08,0.43.16,0.86,0.25,1.29l160.94,5.26Z" transform="translate(-8269.42 -2255.67)" style="fill:#fff"/><path d="M8912.17,4065.28c-59,5.09-110.85-25.69-119.94-69.74l-66.25-2.17c0,0.23,0,.46.06,0.7,7.44,75.46,93,129.79,191.07,121.33,79.2-6.83,142.34-52.51,159.82-109.57l-66.17-2.69C8996.86,4035.84,8958.93,4061.25,8912.17,4065.28Z" transform="translate(-8269.42 -2255.67)" style="fill:#fff"/><path d="M9010.94,4002.69l-0.19.45,66.17,2.69c0.1-.32.21-0.65,0.3-1Z" transform="translate(-8269.42 -2255.67)" style="fill:#fff"/><path d="M8792,3994.25l-66.15-2.69c0,0.6.09,1.2,0.15,1.81l66.25,2.17C8792.15,3995.11,8792.06,3994.68,8792,3994.25Z" transform="translate(-8269.42 -2255.67)" style="fill:#fff"/><path d="M9081.25,3963.42c-7.43-75.44-93-129.74-191.07-121.27-97,8.37-169.93,75-164.35,149.42l66.15,2.69c-0.36-1.91-.64-3.84-0.83-5.8-4.71-47.77,41.83-90.86,104-96.22s116.31,29,121,76.81a69.17,69.17,0,0,1-5.19,33.65l66.29,2.17A107.85,107.85,0,0,0,9081.25,3963.42Z" transform="translate(-8269.42 -2255.67)" style="fill:#fff"/><path d="M11406.06,3972.25q138.46,14,224.94,126.51t70.42,256.88q-16.15,145-124.82,237.19t-248.35,78.09q-139.72-14.1-226-125.95t-70.09-256.86q16.15-145,125.46-237.43T11406.06,3972.25Zm-8.12,126.65q-83.4-8.49-149.55,49.57t-76.59,150.93q-10.32,91.81,41,160.65t135.87,77.45q82.29,8.38,148.44-49.65t76.21-147.58q10.19-90.64-41.44-161.8T11397.94,4098.91Z" transform="translate(-8269.42 -2255.67)" style="fill:#fff"/><path d="M8544.2,4176.87q75.12,0,106.75,31.36,23.72,23.85,23.72,60.22a141,141,0,0,1-2.64,26.35l-5.93,30.11q-7.26,35.75-28,55.83t-36.57,20.07l-0.66,5q18.44,0,37.56,19.45t19.11,45.79a105.05,105.05,0,0,1-2.64,22.58l-4,19.45q-10.55,54-50.41,84.68t-111,30.74H8269.42l83.69-451.64h191.1Zm-59.31,267.22h-62.6l-15.82,86.56h65.24q30.3,0,48.1-13.49t17.79-32.93Q8537.61,4444.1,8484.9,4444.09Zm17.79-169.37h-49.42l-17.13,93.46h48.76q63.26,0,63.26-52.69,0-18.19-11.53-29.48T8502.69,4274.73Z" transform="translate(-8269.42 -2255.67)" style="fill:#fff"/><path d="M8904.65,4176.87l-83,451.64H8702.35L8786,4176.87h118.61Z" transform="translate(-8269.42 -2255.67)" style="fill:#fff"/><path d="M9189.32,4176.87q75.12,0,106.75,31.36,23.72,23.85,23.72,60.22a141,141,0,0,1-2.64,26.35l-5.93,30.11q-7.26,35.75-28,55.83t-36.57,20.07l-0.66,5q18.44,0,37.56,19.45t19.11,45.79a105.05,105.05,0,0,1-2.64,22.58l-4,19.45q-10.55,54-50.41,84.68t-111,30.74H8914.53l83.69-451.64h191.1ZM9130,4444.09h-62.6l-15.82,86.56h65.24q30.3,0,48.1-13.49t17.79-32.93Q9182.73,4444.1,9130,4444.09Zm17.79-169.37h-49.42l-17.13,93.46H9130q63.26,0,63.26-52.69,0-18.19-11.53-29.48T9147.8,4274.73Z" transform="translate(-8269.42 -2255.67)" style="fill:#fff"/><path d="M9648,4628.51H9347.47l83.69-451.64h118.61l-65.24,353.79H9666.4Z" transform="translate(-8269.42 -2255.67)" style="fill:#fff"/><path d="M9903,4176.87l-83,451.64H9700.67l83.69-451.64H9903Z" transform="translate(-8269.42 -2255.67)" style="fill:#fff"/><path d="M10169.18,4172.48q158.8,0,158.81,123.57a235.71,235.71,0,0,1-4.61,44.54L10300.31,4466q-15.81,87.2-68.53,129.22t-148.27,42q-95.55,0-133.11-42-25.7-28.85-25.7-79.66A259.37,259.37,0,0,1,9930,4466L9953,4340.59Q9984,4172.49,10169.18,4172.48Zm-67.87,367.59q32.94,0,52.72-16.31t27.68-60.22l22.4-120.44a146.44,146.44,0,0,0,2-22.58q0-50.81-54-50.81-67.88,1.26-81.05,73.39l-22.41,120.44a196.26,196.26,0,0,0-2.64,32.62Q10046,4540.07,10101.31,4540.06Z" transform="translate(-8269.42 -2255.67)" style="fill:#fff"/><path d="M10621.56,4176.87l70.51,216.41,151.56-216.41h124.54l-83.69,451.64h-119.27l47.45-254.68-101.48,151.8h-86.32l-44.81-151.8-47.44,254.68H10414l83.69-451.64h123.88Z" transform="translate(-8269.42 -2255.67)" style="fill:#fff"/><path d="M12372.94,4186.78l-83,441.74h-119.27l83.69-441.74h118.61Z" transform="translate(-8269.42 -2255.67)" style="fill:#fff"/><path d="M12683.31,4628.51h-300.49l83.69-441.74h118.61l-65.24,346h181.87Z" transform="translate(-8269.42 -2255.67)" style="fill:#fff"/><path d="M11926.31,4521.41l123.5-333.56h126.75l-177.45,440.66h-208l-5.2-440.66h127.4l-2,333.56h15Z" transform="translate(-8269.42 -2255.67)" style="fill:#fff"/><path d="M11589.66,3826.7m91.17-1.1" transform="translate(-8269.42 -2255.67)" style="fill:#fff"/></svg>